SplineFontDB: 3.0
FontName: ElsieSwashCapsBlack-Regular
FullName: Elsie Swash Caps Blacks
FamilyName: Elsie Swash Caps Black
Weight: Black
Copyright: Copyright (c) 2010-2012, Alejandro Inler (alejandroinler@gmail.com), with Reserved Font Name 'Elsie'
Version: 1.001
ItalicAngle: 0
UnderlinePosition: -50
UnderlineWidth: 50
Ascent: 800
Descent: 200
sfntRevision: 0x00010042
LayerCount: 2
Layer: 0 1 "Back"  1
Layer: 1 1 "Fore"  0
XUID: [1021 180 2002659053 6895062]
FSType: 0
OS2Version: 3
OS2_WeightWidthSlopeOnly: 0
OS2_UseTypoMetrics: 1
CreationTime: 1267061160
ModificationTime: 1354445657
PfmFamily: 17
TTFWeight: 900
TTFWidth: 5
LineGap: 0
VLineGap: 0
Panose: 2 0 0 0 0 0 0 0 0 0
OS2TypoAscent: 878
OS2TypoAOffset: 0
OS2TypoDescent: -274
OS2TypoDOffset: 0
OS2TypoLinegap: 0
OS2WinAscent: 878
OS2WinAOffset: 0
OS2WinDescent: 274
OS2WinDOffset: 0
HheadAscent: 878
HheadAOffset: 0
HheadDescent: -274
HheadDOffset: 0
OS2SubXSize: 650
OS2SubYSize: 600
OS2SubXOff: 0
OS2SubYOff: 75
OS2SupXSize: 650
OS2SupYSize: 600
OS2SupXOff: 0
OS2SupYOff: 350
OS2StrikeYSize: 50
OS2StrikeYPos: 220
OS2Vendor: 'pyrs'
OS2CodePages: 20000001.00000000
OS2UnicodeRanges: 8000002f.5000204a.00000000.00000000
Lookup: 4 0 1 "'liga' Standard Ligatures lookup 0"  {"'liga' Standard Ligatures lookup 0 subtable"  } ['liga' ('DFLT' <'dflt' > ) ]
DEI: 91125
TtTable: prep
PUSHW_1
 511
SCANCTRL
PUSHB_1
 4
SCANTYPE
EndTTInstrs
ShortTable: maxp 16
  1
  0
  282
  118
  6
  0
  0
  2
  0
  1
  1
  0
  64
  0
  0
  0
EndShort
LangName: 1033 "" "" "" "AlejandroInler: Elsie Swash Caps Black: 2010" "" "1.001" "" "Elsie is a trademark of Alejandro Inler." "Alejandro Inler" "Alejandro Inler" "" "" "" "This Font Software is licensed under the SIL Open Font License, Version 1.1. This license is available with a FAQ at: http://scripts.sil.org/OFL" "http://scripts.sil.org/OFL" "" "Elsie Swash Caps" "Black" 
GaspTable: 1 65535 15 1
Encoding: UnicodeBmp
UnicodeInterp: none
NameList: AGL For New Fonts
DisplaySize: -24
AntiAlias: 1

StartChar: exclam
Encoding: 33 33 4
Width: 282
GlyphClass: 2
Flags: W
LayerCount: 2
Fore
SplineSet
150 224 m 1,0,-1
 132 224 l 1,1,2
 132 304 132 304 116 365.5 c 128,-1,3
 100 427 100 427 81 458 c 0,4,5
 30 541 30 541 30 596.5 c 128,-1,6
 30 652 30 652 58.5 685.5 c 128,-1,7
 87 719 87 719 141 719 c 128,-1,8
 195 719 195 719 223.5 685.5 c 128,-1,9
 252 652 252 652 252 608.5 c 128,-1,10
 252 565 252 565 236 527 c 128,-1,11
 220 489 220 489 201 458 c 128,-1,12
 182 427 182 427 166 365.5 c 128,-1,13
 150 304 150 304 150 224 c 1,0,-1
46 85 m 128,-1,15
 46 125 46 125 73.5 152.5 c 128,-1,16
 101 180 101 180 141 180 c 128,-1,17
 181 180 181 180 208.5 152.5 c 128,-1,18
 236 125 236 125 236 85 c 128,-1,19
 236 45 236 45 208.5 17.5 c 128,-1,20
 181 -10 181 -10 141 -10 c 128,-1,21
 101 -10 101 -10 73.5 17.5 c 128,-1,14
 46 45 46 45 46 85 c 128,-1,15
EndSplineSet
EndChar

StartChar: quotedbl
Encoding: 34 34 5
Width: 198
GlyphClass: 2
Flags: W
LayerCount: 2
Fore
SplineSet
40 700 m 1,0,-1
 59 700 l 1,1,-1
 59 488 l 1,2,-1
 40 488 l 1,3,-1
 40 700 l 1,0,-1
133 700 m 1,4,-1
 152 700 l 1,5,-1
 152 488 l 1,6,-1
 133 488 l 1,7,-1
 133 700 l 1,4,-1
EndSplineSet
EndChar

StartChar: numbersign
Encoding: 35 35 6
Width: 729
GlyphClass: 2
Flags: W
LayerCount: 2
Fore
SplineSet
71 140 m 1,0,-1
 71 161 l 1,1,-1
 227 161 l 1,2,-1
 279 316 l 1,3,-1
 135 316 l 1,4,-1
 135 337 l 1,5,-1
 286 337 l 1,6,-1
 338 488 l 1,7,-1
 360 488 l 1,8,-1
 308 337 l 1,9,-1
 481 337 l 1,10,-1
 533 488 l 1,11,-1
 555 488 l 1,12,-1
 503 337 l 1,13,-1
 649 337 l 1,14,-1
 649 316 l 1,15,-1
 496 316 l 1,16,-1
 444 161 l 1,17,-1
 585 161 l 1,18,-1
 585 140 l 1,19,-1
 437 140 l 1,20,-1
 386 -10 l 1,21,-1
 364 -10 l 1,22,-1
 415 140 l 1,23,-1
 242 140 l 1,24,-1
 191 -10 l 1,25,-1
 169 -10 l 1,26,-1
 220 140 l 1,27,-1
 71 140 l 1,0,-1
301 316 m 1,28,-1
 249 161 l 1,29,-1
 422 161 l 1,30,-1
 474 316 l 1,31,-1
 301 316 l 1,28,-1
EndSplineSet
EndChar

StartChar: dollar
Encoding: 36 36 7
Width: 469
GlyphClass: 2
Flags: W
LayerCount: 2
Fore
SplineSet
96 20 m 0,0,1
 72 20 72 20 55 -5 c 1,2,-1
 40 -5 l 1,3,-1
 40 185 l 1,4,-1
 55 185 l 1,5,6
 74 89 74 89 115 49 c 128,-1,7
 156 9 156 9 227 8 c 1,8,-1
 227 150 l 1,9,10
 115 201 115 201 82 241 c 0,11,12
 42 289 42 289 42 349 c 0,13,14
 42 426 42 426 95.5 467 c 128,-1,15
 149 508 149 508 232 508 c 2,16,-1
 236 508 l 1,17,-1
 236 570 l 1,18,-1
 256 570 l 1,19,-1
 256 506 l 1,20,21
 274 504 274 504 316.5 493 c 128,-1,22
 359 482 359 482 374.5 482 c 128,-1,23
 390 482 390 482 398 488 c 128,-1,24
 406 494 406 494 409 507 c 1,25,-1
 425 507 l 1,26,-1
 425 334 l 1,27,-1
 409 334 l 1,28,29
 400 401 400 401 358 442 c 128,-1,30
 316 483 316 483 256 489 c 1,31,-1
 256 341 l 1,32,33
 294 326 294 326 335 304 c 128,-1,34
 376 282 376 282 385 274 c 128,-1,35
 394 266 394 266 409.5 252 c 128,-1,36
 425 238 425 238 432 225 c 0,37,38
 449 190 449 190 449 156 c 0,39,40
 449 72 449 72 393.5 32 c 128,-1,41
 338 -8 338 -8 247 -10 c 1,42,-1
 247 -62 l 1,43,-1
 227 -62 l 1,44,-1
 227 -10 l 1,45,46
 189 -8 189 -8 146 6 c 128,-1,47
 103 20 103 20 96 20 c 0,0,1
158 434 m 0,48,49
 158 388 158 388 236 350 c 1,50,-1
 236 490 l 1,51,52
 202 489 202 489 180 475 c 128,-1,53
 158 461 158 461 158 434 c 0,48,49
326 71 m 0,54,55
 326 91 326 91 306 106.5 c 128,-1,56
 286 122 286 122 247 141 c 1,57,-1
 247 8 l 1,58,59
 326 14 326 14 326 71 c 0,54,55
EndSplineSet
EndChar

StartChar: percent
Encoding: 37 37 8
Width: 982
GlyphClass: 2
Flags: W
LayerCount: 2
Fore
SplineSet
693.5 356.5 m 128,-1,1
 685 307 685 307 685 221.5 c 128,-1,2
 685 136 685 136 693.5 86.5 c 128,-1,3
 702 37 702 37 713.5 22.5 c 128,-1,4
 725 8 725 8 743 8 c 128,-1,5
 761 8 761 8 772.5 23 c 128,-1,6
 784 38 784 38 792.5 87.5 c 128,-1,7
 801 137 801 137 801 222.5 c 128,-1,8
 801 308 801 308 792.5 357.5 c 128,-1,9
 784 407 784 407 772.5 422 c 128,-1,10
 761 437 761 437 743 437 c 128,-1,11
 725 437 725 437 713.5 421.5 c 128,-1,0
 702 406 702 406 693.5 356.5 c 128,-1,1
534 222 m 128,-1,13
 534 325 534 325 593 390 c 128,-1,14
 652 455 652 455 743 455 c 128,-1,15
 834 455 834 455 893 390 c 128,-1,16
 952 325 952 325 952 222 c 128,-1,17
 952 119 952 119 893 54.5 c 128,-1,18
 834 -10 834 -10 743 -10 c 128,-1,19
 652 -10 652 -10 593 54.5 c 128,-1,12
 534 119 534 119 534 222 c 128,-1,13
89 299.5 m 128,-1,21
 30 364 30 364 30 466.5 c 128,-1,22
 30 569 30 569 87.5 634.5 c 128,-1,23
 145 700 145 700 234 700 c 0,24,25
 296 700 296 700 364 654 c 0,26,27
 390 637 390 637 427.5 623 c 128,-1,28
 465 609 465 609 503 609 c 0,29,30
 578 609 578 609 626 643.5 c 128,-1,31
 674 678 674 678 690 711 c 1,32,-1
 699 727 l 1,33,-1
 716 720 l 1,34,-1
 293 -17 l 1,35,-1
 279 -8 l 1,36,-1
 647 635 l 1,37,38
 581 591 581 591 503 591 c 0,39,40
 457 591 457 591 408 611 c 1,41,42
 448 549 448 549 448 467 c 0,43,44
 448 364 448 364 389 299.5 c 128,-1,45
 330 235 330 235 239 235 c 128,-1,20
 148 235 148 235 89 299.5 c 128,-1,21
189.5 601.5 m 128,-1,47
 181 552 181 552 181 466.5 c 128,-1,48
 181 381 181 381 189.5 331.5 c 128,-1,49
 198 282 198 282 209.5 267.5 c 128,-1,50
 221 253 221 253 239 253 c 128,-1,51
 257 253 257 253 268.5 268 c 128,-1,52
 280 283 280 283 288.5 332.5 c 128,-1,53
 297 382 297 382 297 467.5 c 128,-1,54
 297 553 297 553 288.5 602.5 c 128,-1,55
 280 652 280 652 268.5 667 c 128,-1,56
 257 682 257 682 239 682 c 128,-1,57
 221 682 221 682 209.5 666.5 c 128,-1,46
 198 651 198 651 189.5 601.5 c 128,-1,47
EndSplineSet
EndChar

StartChar: ampersand
Encoding: 38 38 9
Width: 661
GlyphClass: 2
Flags: W
LayerCount: 2
Fore
SplineSet
426 631 m 0,0,1
 388 665 388 665 335 665 c 0,2,3
 228 665 228 665 228 525 c 0,4,5
 228 477 228 477 249.5 441 c 128,-1,6
 271 405 271 405 312 405 c 0,7,8
 334 405 334 405 362 416 c 1,9,-1
 372 419 l 1,10,-1
 377 401 l 1,11,12
 296 367 296 367 266.5 324 c 128,-1,13
 237 281 237 281 237 200 c 128,-1,14
 237 119 237 119 277 73.5 c 128,-1,15
 317 28 317 28 383 28 c 128,-1,16
 449 28 449 28 499 68.5 c 128,-1,17
 549 109 549 109 549 171.5 c 128,-1,18
 549 234 549 234 518 264 c 128,-1,19
 487 294 487 294 442.5 294 c 128,-1,20
 398 294 398 294 365.5 269.5 c 128,-1,21
 333 245 333 245 333 200 c 128,-1,22
 333 155 333 155 365 131 c 0,23,24
 374 125 374 125 380 125 c 0,25,26
 389 125 389 125 389 134 c 0,27,28
 389 139 389 139 382.5 144 c 128,-1,29
 376 149 376 149 374 150 c 0,30,31
 354 167 354 167 354 195 c 128,-1,32
 354 223 354 223 374.5 241.5 c 128,-1,33
 395 260 395 260 426.5 260 c 128,-1,34
 458 260 458 260 479 237.5 c 128,-1,35
 500 215 500 215 500 179 c 128,-1,36
 500 143 500 143 474 120 c 128,-1,37
 448 97 448 97 406 97 c 128,-1,38
 364 97 364 97 333 131 c 128,-1,39
 302 165 302 165 302 216 c 0,40,41
 302 294 302 294 362.5 334 c 128,-1,42
 423 374 423 374 503 380 c 0,43,44
 615 388 615 388 651 402 c 0,45,46
 715 428 715 428 716 493 c 0,47,48
 716 537 716 537 684 561 c 0,49,50
 675 567 675 567 669 567 c 0,51,52
 660 567 660 567 660 558 c 0,53,54
 660 553 660 553 666.5 548 c 128,-1,55
 673 543 673 543 675 542 c 0,56,57
 695 525 695 525 695 497 c 128,-1,58
 695 469 695 469 674.5 450.5 c 128,-1,59
 654 432 654 432 622.5 432 c 128,-1,60
 591 432 591 432 570 454.5 c 128,-1,61
 549 477 549 477 549 513 c 128,-1,62
 549 549 549 549 575 572 c 128,-1,63
 601 595 601 595 642.5 595 c 128,-1,64
 684 595 684 595 714 559.5 c 128,-1,65
 744 524 744 524 744 475.5 c 128,-1,66
 744 427 744 427 720.5 391.5 c 128,-1,67
 697 356 697 356 664 338 c 0,68,69
 592 300 592 300 540 293 c 2,70,-1
 517 290 l 1,71,72
 540 277 540 277 554.5 246 c 128,-1,73
 569 215 569 215 569 180.5 c 128,-1,74
 569 146 569 146 555.5 114.5 c 128,-1,75
 542 83 542 83 514 54 c 128,-1,76
 486 25 486 25 434.5 7.5 c 128,-1,77
 383 -10 383 -10 307.5 -10 c 128,-1,78
 232 -10 232 -10 172 8 c 128,-1,79
 112 26 112 26 81 56 c 0,80,81
 23 114 23 114 23 187.5 c 128,-1,82
 23 261 23 261 77 311 c 128,-1,83
 131 361 131 361 229 380 c 1,84,-1
 227 390 l 1,85,86
 138 390 138 390 92.5 429 c 128,-1,87
 47 468 47 468 47 528.5 c 128,-1,88
 47 589 47 589 112.5 639 c 128,-1,89
 178 689 178 689 290 689 c 128,-1,90
 402 689 402 689 451 633 c 0,91,92
 475 606 475 606 475 569.5 c 128,-1,93
 475 533 475 533 452 507 c 128,-1,94
 429 481 429 481 393 481 c 128,-1,95
 357 481 357 481 334 502 c 128,-1,96
 311 523 311 523 311 554.5 c 128,-1,97
 311 586 311 586 330 606.5 c 128,-1,98
 349 627 349 627 377 627 c 128,-1,99
 405 627 405 627 422 607 c 1,100,101
 430 592 430 592 438.5 592 c 128,-1,102
 447 592 447 592 447 601.5 c 128,-1,103
 447 611 447 611 426 631 c 0,0,1
EndSplineSet
EndChar

StartChar: quotesingle
Encoding: 39 39 10
Width: 422
GlyphClass: 2
Flags: W
LayerCount: 2
Fore
SplineSet
177 700 m 1,0,-1
 196 700 l 1,1,-1
 196 488 l 1,2,-1
 177 488 l 1,3,-1
 177 700 l 1,0,-1
EndSplineSet
EndChar

StartChar: parenleft
Encoding: 40 40 11
Width: 443
GlyphClass: 2
Flags: W
LayerCount: 2
Fore
SplineSet
443 684 m 1,0,1
 224 684 224 684 224 247.5 c 128,-1,2
 224 -189 224 -189 443 -189 c 1,3,-1
 443 -205 l 1,4,5
 328 -205 328 -205 241.5 -140 c 128,-1,6
 155 -75 155 -75 112.5 26.5 c 128,-1,7
 70 128 70 128 70 247.5 c 128,-1,8
 70 367 70 367 112.5 468.5 c 128,-1,9
 155 570 155 570 241.5 635 c 128,-1,10
 328 700 328 700 443 700 c 1,11,-1
 443 684 l 1,0,1
EndSplineSet
EndChar

StartChar: parenright
Encoding: 41 41 12
Width: 443
GlyphClass: 2
Flags: W
LayerCount: 2
Fore
SplineSet
0 -189 m 1,0,1
 219 -189 219 -189 219 247.5 c 128,-1,2
 219 684 219 684 0 684 c 1,3,-1
 0 700 l 1,4,5
 115 700 115 700 201.5 635 c 128,-1,6
 288 570 288 570 330.5 468.5 c 128,-1,7
 373 367 373 367 373 247.5 c 128,-1,8
 373 128 373 128 330.5 26.5 c 128,-1,9
 288 -75 288 -75 201.5 -140 c 128,-1,10
 115 -205 115 -205 0 -205 c 1,11,-1
 0 -189 l 1,0,1
EndSplineSet
EndChar

StartChar: asterisk
Encoding: 42 42 13
Width: 328
GlyphClass: 2
Flags: W
LayerCount: 2
Fore
SplineSet
198 705 m 128,-1,1
 212 691 212 691 212 670 c 128,-1,2
 212 649 212 649 188.5 617.5 c 128,-1,3
 165 586 165 586 164 576 c 1,4,5
 163 585 163 585 139.5 617 c 128,-1,6
 116 649 116 649 116 670 c 128,-1,7
 116 691 116 691 130 705 c 128,-1,8
 144 719 144 719 164 719 c 128,-1,0
 184 719 184 719 198 705 c 128,-1,1
132 567 m 2,9,-1
 79 564 l 1,10,11
 52 564 52 564 36 578 c 128,-1,12
 20 592 20 592 20 613.5 c 128,-1,13
 20 635 20 635 34.5 648.5 c 128,-1,14
 49 662 49 662 70.5 662 c 128,-1,15
 92 662 92 662 107 641 c 128,-1,16
 122 620 122 620 131.5 595 c 128,-1,17
 141 570 141 570 151 564 c 1,18,19
 143 567 143 567 132 567 c 2,9,-1
248 564 m 1,20,-1
 196 567 l 2,21,22
 184 567 184 567 177 564 c 1,23,24
 187 570 187 570 196.5 595 c 128,-1,25
 206 620 206 620 221 641 c 128,-1,26
 236 662 236 662 257.5 662 c 128,-1,27
 279 662 279 662 293.5 648.5 c 128,-1,28
 308 635 308 635 308 613.5 c 128,-1,29
 308 592 308 592 291.5 578 c 128,-1,30
 275 564 275 564 248 564 c 1,20,-1
79 552 m 1,31,-1
 132 548 l 2,32,33
 141 548 141 548 151 552 c 1,34,35
 141 546 141 546 131.5 521 c 128,-1,36
 122 496 122 496 107 475 c 128,-1,37
 92 454 92 454 70.5 454 c 128,-1,38
 49 454 49 454 34.5 467.5 c 128,-1,39
 20 481 20 481 20 502 c 128,-1,40
 20 523 20 523 36 537.5 c 128,-1,41
 52 552 52 552 79 552 c 1,31,-1
130 411.5 m 128,-1,43
 116 425 116 425 116 446 c 128,-1,44
 116 467 116 467 139.5 498.5 c 128,-1,45
 163 530 163 530 164 540 c 1,46,47
 165 529 165 529 188.5 497.5 c 128,-1,48
 212 466 212 466 212 445.5 c 128,-1,49
 212 425 212 425 198 411.5 c 128,-1,50
 184 398 184 398 164 398 c 128,-1,42
 144 398 144 398 130 411.5 c 128,-1,43
196 548 m 2,51,-1
 248 552 l 1,52,53
 275 552 275 552 291.5 537.5 c 128,-1,54
 308 523 308 523 308 502 c 128,-1,55
 308 481 308 481 293.5 467.5 c 128,-1,56
 279 454 279 454 257.5 454 c 128,-1,57
 236 454 236 454 221 475 c 128,-1,58
 206 496 206 496 196.5 521 c 128,-1,59
 187 546 187 546 177 552 c 1,60,61
 187 548 187 548 196 548 c 2,51,-1
EndSplineSet
EndChar

StartChar: plus
Encoding: 43 43 14
Width: 593
GlyphClass: 2
Flags: W
LayerCount: 2
Fore
SplineSet
83 226 m 1,0,-1
 83 247 l 1,1,-1
 310 247 l 1,2,-1
 310 474 l 1,3,-1
 330 474 l 1,4,-1
 330 247 l 1,5,-1
 557 247 l 1,6,-1
 557 226 l 1,7,-1
 330 226 l 1,8,-1
 330 0 l 1,9,-1
 310 0 l 1,10,-1
 310 226 l 1,11,-1
 83 226 l 1,0,-1
EndSplineSet
EndChar

StartChar: comma
Encoding: 44 44 15
Width: 330
GlyphClass: 2
Flags: W
LayerCount: 2
Fore
SplineSet
265 46 m 0,0,1
 265 115 265 115 211 148 c 0,2,3
 195 157 195 157 186.5 157 c 128,-1,4
 178 157 178 157 178 149 c 128,-1,5
 178 141 178 141 189 137 c 0,6,7
 231 119 231 119 231 70 c 0,8,9
 231 34 231 34 205.5 12 c 128,-1,10
 180 -10 180 -10 142.5 -10 c 128,-1,11
 105 -10 105 -10 79.5 16.5 c 128,-1,12
 54 43 54 43 54 83 c 128,-1,13
 54 123 54 123 82.5 151.5 c 128,-1,14
 111 180 111 180 158 180 c 128,-1,15
 205 180 205 180 244 145.5 c 128,-1,16
 283 111 283 111 283 45 c 0,17,18
 283 -79 283 -79 146 -144 c 1,19,-1
 138 -128 l 1,20,21
 265 -68 265 -68 265 46 c 0,0,1
EndSplineSet
EndChar

StartChar: hyphen
Encoding: 45 45 16
Width: 309
GlyphClass: 2
Flags: W
LayerCount: 2
Fore
SplineSet
52 226 m 1,0,-1
 52 247 l 1,1,-1
 250 247 l 1,2,-1
 250 226 l 1,3,-1
 52 226 l 1,0,-1
EndSplineSet
EndChar

StartChar: period
Encoding: 46 46 17
Width: 295
GlyphClass: 2
Flags: W
LayerCount: 2
Fore
SplineSet
80.5 17.5 m 128,-1,1
 53 45 53 45 53 84.5 c 128,-1,2
 53 124 53 124 80.5 151.5 c 128,-1,3
 108 179 108 179 148 179 c 128,-1,4
 188 179 188 179 215 151.5 c 128,-1,5
 242 124 242 124 242 84.5 c 128,-1,6
 242 45 242 45 214.5 17.5 c 128,-1,7
 187 -10 187 -10 147.5 -10 c 128,-1,0
 108 -10 108 -10 80.5 17.5 c 128,-1,1
EndSplineSet
EndChar

StartChar: slash
Encoding: 47 47 18
Width: 348
GlyphClass: 2
Flags: W
LayerCount: 2
Fore
SplineSet
33 -114 m 1,0,-1
 319 700 l 1,1,-1
 338 694 l 1,2,-1
 53 -121 l 1,3,-1
 33 -114 l 1,0,-1
EndSplineSet
EndChar

StartChar: zero
Encoding: 48 48 19
Width: 568
GlyphClass: 2
Flags: W
LayerCount: 2
Fore
SplineSet
284 488 m 128,-1,1
 398 488 398 488 468 419.5 c 128,-1,2
 538 351 538 351 538 239 c 128,-1,3
 538 127 538 127 468 58.5 c 128,-1,4
 398 -10 398 -10 284 -10 c 128,-1,5
 170 -10 170 -10 100 58.5 c 128,-1,6
 30 127 30 127 30 239 c 128,-1,7
 30 351 30 351 100 419.5 c 128,-1,0
 170 488 170 488 284 488 c 128,-1,1
284 8 m 128,-1,9
 342 8 342 8 342 239 c 128,-1,10
 342 470 342 470 284 470 c 128,-1,11
 226 470 226 470 226 239 c 128,-1,8
 226 8 226 8 284 8 c 128,-1,9
EndSplineSet
EndChar

StartChar: one
Encoding: 49 49 20
Width: 421
GlyphClass: 2
Flags: W
LayerCount: 2
Fore
SplineSet
133 25 m 1,0,-1
 133 322 l 1,1,2
 94 294 94 294 50 281 c 2,3,-1
 36 277 l 1,4,-1
 31 294 l 1,5,6
 174 338 174 338 198 469 c 1,7,8
 251 471 251 471 303 484 c 1,9,-1
 322 488 l 1,10,-1
 322 25 l 1,11,-1
 408 25 l 1,12,-1
 408 9 l 1,13,-1
 47 9 l 1,14,-1
 47 25 l 1,15,-1
 133 25 l 1,0,-1
EndSplineSet
EndChar

StartChar: two
Encoding: 50 50 21
Width: 548
GlyphClass: 2
Flags: W
LayerCount: 2
Fore
SplineSet
234 164 m 2,0,-1
 445 164 l 2,1,2
 473 164 473 164 485 175 c 128,-1,3
 497 186 497 186 499 211 c 1,4,-1
 514 211 l 1,5,-1
 514 9 l 1,6,-1
 26 9 l 1,7,8
 26 148 26 148 137 206 c 0,9,10
 158 217 158 217 190 231 c 128,-1,11
 222 245 222 245 235.5 252.5 c 128,-1,12
 249 260 249 260 264.5 273.5 c 128,-1,13
 280 287 280 287 285.5 305.5 c 128,-1,14
 291 324 291 324 291 361.5 c 128,-1,15
 291 399 291 399 266 428.5 c 128,-1,16
 241 458 241 458 191.5 458 c 128,-1,17
 142 458 142 458 103.5 425.5 c 128,-1,18
 65 393 65 393 65 351 c 0,19,20
 65 339 65 339 74 339 c 0,21,22
 81 339 81 339 83 349 c 1,23,24
 85 376 85 376 102 392.5 c 128,-1,25
 119 409 119 409 148.5 409 c 128,-1,26
 178 409 178 409 197 387 c 128,-1,27
 216 365 216 365 216 333 c 128,-1,28
 216 301 216 301 193 278.5 c 128,-1,29
 170 256 170 256 132.5 256 c 128,-1,30
 95 256 95 256 71 283 c 128,-1,31
 47 310 47 310 47 348 c 0,32,33
 47 415 47 415 107 451.5 c 128,-1,34
 167 488 167 488 262 488 c 128,-1,35
 357 488 357 488 421.5 454.5 c 128,-1,36
 486 421 486 421 486 361 c 0,37,38
 486 300 486 300 451 271 c 0,39,40
 433 256 433 256 415.5 246.5 c 128,-1,41
 398 237 398 237 368 231 c 0,42,43
 316 221 316 221 245 214 c 0,44,45
 116 203 116 203 75 126 c 1,46,-1
 81 121 l 1,47,48
 132 164 132 164 234 164 c 2,0,-1
EndSplineSet
EndChar

StartChar: three
Encoding: 51 51 22
Width: 511
GlyphClass: 2
Flags: W
LayerCount: 2
Fore
SplineSet
42 -64 m 0,0,1
 42 -107 42 -107 75.5 -136 c 128,-1,2
 109 -165 109 -165 144 -165 c 0,3,4
 214 -165 214 -165 248 -119.5 c 128,-1,5
 282 -74 282 -74 282 -9 c 0,6,7
 282 147 282 147 185 147 c 0,8,9
 170 147 170 147 121 125 c 1,10,-1
 113 142 l 1,11,12
 287 219 287 219 287 329 c 0,13,14
 287 379 287 379 254.5 416.5 c 128,-1,15
 222 454 222 454 175.5 454 c 128,-1,16
 129 454 129 454 97.5 422.5 c 128,-1,17
 66 391 66 391 66 350 c 0,18,19
 66 332 66 332 71.5 319 c 128,-1,20
 77 306 77 306 85.5 306 c 128,-1,21
 94 306 94 306 94 314 c 0,22,23
 94 317 94 317 88.5 327 c 128,-1,24
 83 337 83 337 83 357 c 128,-1,25
 83 377 83 377 102 394.5 c 128,-1,26
 121 412 121 412 152 412 c 128,-1,27
 183 412 183 412 204 390 c 128,-1,28
 225 368 225 368 225 334 c 128,-1,29
 225 300 225 300 202.5 277 c 128,-1,30
 180 254 180 254 141.5 254 c 128,-1,31
 103 254 103 254 75.5 281.5 c 128,-1,32
 48 309 48 309 48 343 c 128,-1,33
 48 377 48 377 63 404 c 0,34,35
 111 488 111 488 239 488 c 0,36,37
 323 488 323 488 383.5 448.5 c 128,-1,38
 444 409 444 409 444 334 c 0,39,40
 444 276 444 276 390.5 236 c 128,-1,41
 337 196 337 196 237 182 c 1,42,-1
 240 173 l 1,43,44
 270 180 270 180 298 180 c 0,45,46
 359 180 359 180 408 147 c 0,47,48
 481 99 481 99 481 10 c 128,-1,49
 481 -79 481 -79 415.5 -140.5 c 128,-1,50
 350 -202 350 -202 217 -202 c 0,51,52
 132 -202 132 -202 78 -162 c 128,-1,53
 24 -122 24 -122 24 -63 c 0,54,55
 24 -19 24 -19 48.5 9.5 c 128,-1,56
 73 38 73 38 113 38 c 128,-1,57
 153 38 153 38 174.5 14 c 128,-1,58
 196 -10 196 -10 196 -42 c 128,-1,59
 196 -74 196 -74 175 -95.5 c 128,-1,60
 154 -117 154 -117 128.5 -117 c 128,-1,61
 103 -117 103 -117 84 -105 c 0,62,63
 61 -90 61 -90 61 -57 c 0,64,65
 61 -47 61 -47 53 -47 c 0,66,67
 42 -47 42 -47 42 -64 c 0,0,1
EndSplineSet
EndChar

StartChar: four
Encoding: 52 52 23
Width: 581
GlyphClass: 2
Flags: W
LayerCount: 2
Fore
SplineSet
-17 -33 m 1,0,-1
 -17 -16 l 1,1,2
 -6 -7 -6 -7 13.5 9.5 c 128,-1,3
 33 26 33 26 83 78.5 c 128,-1,4
 133 131 133 131 173 185 c 128,-1,5
 213 239 213 239 250 317.5 c 128,-1,6
 287 396 287 396 297 470 c 1,7,8
 368 474 368 474 427 488 c 1,9,-1
 427 19 l 1,10,-1
 575 19 l 1,11,-1
 575 -33 l 1,12,-1
 427 -33 l 1,13,-1
 427 -194 l 1,14,-1
 238 -194 l 1,15,-1
 238 -33 l 1,16,-1
 -17 -33 l 1,0,-1
54 19 m 1,17,-1
 238 19 l 1,18,-1
 238 241 l 1,19,-1
 233 241 l 1,20,21
 192 179 192 179 147.5 124.5 c 128,-1,22
 103 70 103 70 78 46 c 2,23,-1
 54 23 l 1,24,-1
 54 19 l 1,17,-1
EndSplineSet
EndChar

StartChar: five
Encoding: 53 53 24
Width: 533
GlyphClass: 2
Flags: W
LayerCount: 2
Fore
SplineSet
70 -73 m 0,0,1
 70 -115 70 -115 100 -143.5 c 128,-1,2
 130 -172 130 -172 171 -172 c 0,3,4
 293 -172 293 -172 293 10 c 0,5,6
 293 82 293 82 265.5 124.5 c 128,-1,7
 238 167 238 167 197 167 c 0,8,9
 136 167 136 167 89 90 c 1,10,-1
 71 90 l 1,11,-1
 71 469 l 1,12,-1
 373 469 l 2,13,14
 401 469 401 469 413 480 c 128,-1,15
 425 491 425 491 427 516 c 1,16,-1
 445 516 l 1,17,-1
 445 304 l 1,18,-1
 91 304 l 1,19,-1
 91 132 l 1,20,-1
 98 132 l 1,21,22
 130 171 130 171 181.5 192.5 c 128,-1,23
 233 214 233 214 290 214 c 0,24,25
 374 214 374 214 434 163.5 c 128,-1,26
 494 113 494 113 494 14.5 c 128,-1,27
 494 -84 494 -84 424 -144.5 c 128,-1,28
 354 -205 354 -205 234 -205 c 0,29,30
 142 -205 142 -205 97 -165 c 128,-1,31
 52 -125 52 -125 52 -71 c 0,32,33
 52 -33 52 -33 75.5 -6 c 128,-1,34
 99 21 99 21 139 21 c 128,-1,35
 179 21 179 21 201.5 -0.5 c 128,-1,36
 224 -22 224 -22 224 -56.5 c 128,-1,37
 224 -91 224 -91 201.5 -111 c 128,-1,38
 179 -131 179 -131 153 -131 c 0,39,40
 102 -131 102 -131 91 -84 c 0,41,42
 88 -72 88 -72 87 -67 c 128,-1,43
 86 -62 86 -62 78 -62 c 128,-1,44
 70 -62 70 -62 70 -73 c 0,0,1
EndSplineSet
EndChar

StartChar: six
Encoding: 54 54 25
Width: 591
GlyphClass: 2
Flags: W
LayerCount: 2
Fore
SplineSet
233 298 m 2,0,-1
 233 197 l 2,1,2
 233 93 233 93 248 50.5 c 128,-1,3
 263 8 263 8 298 8 c 128,-1,4
 333 8 333 8 348 50.5 c 128,-1,5
 363 93 363 93 363 197 c 128,-1,6
 363 301 363 301 348.5 341 c 128,-1,7
 334 381 334 381 298 381 c 0,8,9
 277 381 277 381 255 357 c 128,-1,10
 233 333 233 333 233 298 c 2,0,-1
499 547 m 0,11,12
 499 585 499 585 463 620 c 128,-1,13
 427 655 427 655 361 655 c 0,14,15
 296 655 296 655 270 618 c 0,16,17
 257 598 257 598 249 580.5 c 128,-1,18
 241 563 241 563 238 531 c 0,19,20
 233 490 233 490 233 430 c 2,21,-1
 233 363 l 1,22,-1
 236 363 l 1,23,24
 281 418 281 418 361.5 418 c 128,-1,25
 442 418 442 418 502.5 366.5 c 128,-1,26
 563 315 563 315 563 217 c 128,-1,27
 563 119 563 119 490 54.5 c 128,-1,28
 417 -10 417 -10 299 -10 c 0,29,30
 225 -10 225 -10 170.5 18.5 c 128,-1,31
 116 47 116 47 87 97 c 0,32,33
 31 194 31 194 31 343.5 c 128,-1,34
 31 493 31 493 103.5 587 c 128,-1,35
 176 681 176 681 325 681 c 0,36,37
 415 681 415 681 466 640.5 c 128,-1,38
 517 600 517 600 517 544 c 0,39,40
 517 506 517 506 493 479 c 128,-1,41
 469 452 469 452 431.5 452 c 128,-1,42
 394 452 394 452 371.5 475.5 c 128,-1,43
 349 499 349 499 349 531 c 128,-1,44
 349 563 349 563 367.5 584 c 128,-1,45
 386 605 386 605 415.5 605 c 128,-1,46
 445 605 445 605 462 588.5 c 128,-1,47
 479 572 479 572 481 545 c 1,48,49
 483 535 483 535 490 535 c 0,50,51
 499 535 499 535 499 547 c 0,11,12
EndSplineSet
EndChar

StartChar: seven
Encoding: 55 55 26
Width: 479
GlyphClass: 2
Flags: W
LayerCount: 2
Fore
SplineSet
50 469 m 1,0,-1
 375 469 l 2,1,2
 403 469 403 469 415 480 c 128,-1,3
 427 491 427 491 429 516 c 1,4,-1
 447 516 l 1,5,-1
 447 419 l 2,6,7
 447 287 447 287 387 206 c 0,8,9
 362 173 362 173 337.5 138.5 c 128,-1,10
 313 104 313 104 295.5 46 c 128,-1,11
 278 -12 278 -12 278 -92 c 0,12,13
 278 -140 278 -140 256 -171 c 128,-1,14
 234 -202 234 -202 187.5 -202 c 128,-1,15
 141 -202 141 -202 115 -171.5 c 128,-1,16
 89 -141 89 -141 89 -92 c 0,17,18
 89 -35 89 -35 112 2 c 0,19,20
 124 22 124 22 134 36 c 128,-1,21
 144 50 144 50 166 67.5 c 128,-1,22
 188 85 188 85 199.5 93 c 128,-1,23
 211 101 211 101 239.5 119.5 c 128,-1,24
 268 138 268 138 288 151.5 c 128,-1,25
 308 165 308 165 326.5 180.5 c 128,-1,26
 345 196 345 196 368 220 c 0,27,28
 413 268 413 268 425 352 c 1,29,30
 421 347 421 347 413 339 c 128,-1,31
 405 331 405 331 370 318 c 128,-1,32
 335 305 335 305 290 305 c 2,33,-1
 121 305 l 2,34,35
 93 305 93 305 81 294 c 128,-1,36
 69 283 69 283 67 258 c 1,37,-1
 50 258 l 1,38,-1
 50 469 l 1,0,-1
EndSplineSet
EndChar

StartChar: eight
Encoding: 56 56 27
Width: 531
GlyphClass: 2
Flags: W
LayerCount: 2
Fore
SplineSet
90.5 44 m 128,-1,1
 29 98 29 98 29 189.5 c 128,-1,2
 29 281 29 281 111 340 c 1,3,4
 43 413 43 413 43 500 c 128,-1,5
 43 587 43 587 102.5 633 c 128,-1,6
 162 679 162 679 258.5 679 c 128,-1,7
 355 679 355 679 409 634 c 128,-1,8
 463 589 463 589 463 518 c 128,-1,9
 463 447 463 447 395 392 c 1,10,11
 502 308 502 308 502 201 c 0,12,13
 502 112 502 112 436.5 51 c 128,-1,14
 371 -10 371 -10 261.5 -10 c 128,-1,0
 152 -10 152 -10 90.5 44 c 128,-1,1
301.5 37 m 128,-1,16
 332 63 332 63 332 108 c 128,-1,17
 332 153 332 153 301.5 185.5 c 128,-1,18
 271 218 271 218 212 259 c 128,-1,19
 153 300 153 300 125 327 c 1,20,21
 88 300 88 300 68 260.5 c 128,-1,22
 48 221 48 221 48 185 c 0,23,24
 48 112 48 112 97.5 61.5 c 128,-1,25
 147 11 147 11 224 11 c 0,26,15
 271 11 271 11 301.5 37 c 128,-1,16
334 436 m 128,-1,28
 368 412 368 412 379 404 c 1,29,30
 445 452 445 452 445 514 c 128,-1,31
 445 576 445 576 409 612 c 128,-1,32
 373 648 373 648 320 648 c 0,33,34
 284 648 284 648 259.5 627 c 128,-1,35
 235 606 235 606 235 565 c 128,-1,36
 235 524 235 524 267.5 492 c 128,-1,27
 300 460 300 460 334 436 c 128,-1,28
EndSplineSet
EndChar

StartChar: nine
Encoding: 57 57 28
Width: 591
GlyphClass: 2
Flags: W
LayerCount: 2
Fore
SplineSet
358 180 m 2,0,-1
 358 281 l 2,1,2
 358 385 358 385 343 427.5 c 128,-1,3
 328 470 328 470 293 470 c 128,-1,4
 258 470 258 470 243 427.5 c 128,-1,5
 228 385 228 385 228 281 c 128,-1,6
 228 177 228 177 242.5 137 c 128,-1,7
 257 97 257 97 293 97 c 0,8,9
 314 97 314 97 336 121 c 128,-1,10
 358 145 358 145 358 180 c 2,0,-1
92 -69 m 0,11,12
 92 -107 92 -107 128 -142 c 128,-1,13
 164 -177 164 -177 230 -177 c 0,14,15
 295 -177 295 -177 320 -140 c 0,16,17
 334 -120 334 -120 342 -102.5 c 128,-1,18
 350 -85 350 -85 354 -53 c 0,19,20
 358 -12 358 -12 358 48 c 2,21,-1
 358 115 l 1,22,-1
 355 115 l 1,23,24
 310 60 310 60 229.5 60 c 128,-1,25
 149 60 149 60 88.5 111.5 c 128,-1,26
 28 163 28 163 28 261 c 128,-1,27
 28 359 28 359 101 423.5 c 128,-1,28
 174 488 174 488 292 488 c 0,29,30
 366 488 366 488 420.5 459.5 c 128,-1,31
 475 431 475 431 504 381 c 0,32,33
 560 284 560 284 560 134.5 c 128,-1,34
 560 -15 560 -15 487.5 -109 c 128,-1,35
 415 -203 415 -203 266 -203 c 0,36,37
 176 -203 176 -203 125 -162.5 c 128,-1,38
 74 -122 74 -122 74 -66 c 0,39,40
 74 -28 74 -28 98 -1 c 128,-1,41
 122 26 122 26 159.5 26 c 128,-1,42
 197 26 197 26 219.5 2.5 c 128,-1,43
 242 -21 242 -21 242 -53 c 128,-1,44
 242 -85 242 -85 223.5 -106 c 128,-1,45
 205 -127 205 -127 175.5 -127 c 128,-1,46
 146 -127 146 -127 129 -110.5 c 128,-1,47
 112 -94 112 -94 110 -67 c 1,48,49
 108 -57 108 -57 101 -57 c 0,50,51
 92 -57 92 -57 92 -69 c 0,11,12
EndSplineSet
EndChar

StartChar: colon
Encoding: 58 58 29
Width: 294
GlyphClass: 2
Flags: W
LayerCount: 2
Fore
SplineSet
47 85 m 128,-1,1
 47 125 47 125 74.5 152.5 c 128,-1,2
 102 180 102 180 142 180 c 128,-1,3
 182 180 182 180 209.5 152.5 c 128,-1,4
 237 125 237 125 237 85 c 128,-1,5
 237 45 237 45 209.5 17.5 c 128,-1,6
 182 -10 182 -10 142 -10 c 128,-1,7
 102 -10 102 -10 74.5 17.5 c 128,-1,0
 47 45 47 45 47 85 c 128,-1,1
47 393 m 128,-1,9
 47 433 47 433 74.5 460.5 c 128,-1,10
 102 488 102 488 142 488 c 128,-1,11
 182 488 182 488 209.5 460.5 c 128,-1,12
 237 433 237 433 237 393 c 128,-1,13
 237 353 237 353 209.5 325.5 c 128,-1,14
 182 298 182 298 142 298 c 128,-1,15
 102 298 102 298 74.5 325.5 c 128,-1,8
 47 353 47 353 47 393 c 128,-1,9
EndSplineSet
EndChar

StartChar: semicolon
Encoding: 59 59 30
Width: 330
GlyphClass: 2
Flags: W
LayerCount: 2
Fore
SplineSet
207 148 m 0,0,1
 191 157 191 157 182.5 157 c 128,-1,2
 174 157 174 157 174 149 c 128,-1,3
 174 141 174 141 185 137 c 0,4,5
 227 119 227 119 227 70 c 0,6,7
 227 34 227 34 201.5 12 c 128,-1,8
 176 -10 176 -10 138.5 -10 c 128,-1,9
 101 -10 101 -10 75.5 16.5 c 128,-1,10
 50 43 50 43 50 82.5 c 128,-1,11
 50 122 50 122 78.5 151 c 128,-1,12
 107 180 107 180 154.5 180 c 128,-1,13
 202 180 202 180 239.5 146.5 c 128,-1,14
 277 113 277 113 277 47 c 0,15,16
 277 -81 277 -81 143 -145 c 1,17,-1
 135 -129 l 1,18,19
 172 -112 172 -112 202 -83 c 0,20,21
 259 -28 259 -28 259 44 c 128,-1,22
 259 116 259 116 207 148 c 0,0,1
52 393 m 128,-1,24
 52 433 52 433 79.5 460.5 c 128,-1,25
 107 488 107 488 147 488 c 128,-1,26
 187 488 187 488 214.5 460.5 c 128,-1,27
 242 433 242 433 242 393 c 128,-1,28
 242 353 242 353 214.5 325.5 c 128,-1,29
 187 298 187 298 147 298 c 128,-1,30
 107 298 107 298 79.5 325.5 c 128,-1,23
 52 353 52 353 52 393 c 128,-1,24
EndSplineSet
EndChar

StartChar: less
Encoding: 60 60 31
Width: 471
GlyphClass: 2
Flags: W
LayerCount: 2
Fore
SplineSet
14 220 m 1,0,-1
 14 240 l 1,1,-1
 470 409 l 1,2,-1
 478 389 l 1,3,-1
 48 230 l 1,4,-1
 478 71 l 1,5,-1
 470 51 l 1,6,-1
 14 220 l 1,0,-1
EndSplineSet
EndChar

StartChar: equal
Encoding: 61 61 32
Width: 642
GlyphClass: 2
Flags: W
LayerCount: 2
Fore
SplineSet
83 144 m 1,0,-1
 83 165 l 1,1,-1
 557 165 l 1,2,-1
 557 144 l 1,3,-1
 83 144 l 1,0,-1
557 330 m 1,4,-1
 557 309 l 1,5,-1
 83 309 l 1,6,-1
 83 330 l 1,7,-1
 557 330 l 1,4,-1
EndSplineSet
EndChar

StartChar: greater
Encoding: 62 62 33
Width: 510
GlyphClass: 2
Flags: W
LayerCount: 2
Fore
SplineSet
466 240 m 1,0,-1
 466 220 l 1,1,-1
 10 51 l 1,2,-1
 2 71 l 1,3,-1
 432 230 l 1,4,-1
 2 389 l 1,5,-1
 10 409 l 1,6,-1
 466 240 l 1,0,-1
EndSplineSet
EndChar

StartChar: question
Encoding: 63 63 34
Width: 504
GlyphClass: 2
Flags: W
LayerCount: 2
Fore
SplineSet
193 13 m 128,-1,1
 170 36 170 36 170 68.5 c 128,-1,2
 170 101 170 101 193 124 c 128,-1,3
 216 147 216 147 248.5 147 c 128,-1,4
 281 147 281 147 304 124 c 128,-1,5
 327 101 327 101 327 68.5 c 128,-1,6
 327 36 327 36 304 13 c 128,-1,7
 281 -10 281 -10 248.5 -10 c 128,-1,0
 216 -10 216 -10 193 13 c 128,-1,1
186.5 204 m 128,-1,9
 158 227 158 227 158 264.5 c 128,-1,10
 158 302 158 302 172.5 329.5 c 128,-1,11
 187 357 187 357 204.5 375.5 c 128,-1,12
 222 394 222 394 236.5 435.5 c 128,-1,13
 251 477 251 477 251 534 c 0,14,15
 251 683 251 683 146 683 c 0,16,17
 97 683 97 683 58.5 650 c 128,-1,18
 20 617 20 617 20 571 c 0,19,20
 20 548 20 548 28 535.5 c 128,-1,21
 36 523 36 523 42 523 c 0,22,23
 51 523 51 523 51 532 c 0,24,25
 51 535 51 535 45 545 c 128,-1,26
 39 555 39 555 39 577 c 128,-1,27
 39 599 39 599 59 617 c 128,-1,28
 79 635 79 635 109.5 635 c 128,-1,29
 140 635 140 635 162 612.5 c 128,-1,30
 184 590 184 590 184 555.5 c 128,-1,31
 184 521 184 521 159.5 497 c 128,-1,32
 135 473 135 473 95.5 473 c 128,-1,33
 56 473 56 473 29 500.5 c 128,-1,34
 2 528 2 528 2 570 c 0,35,36
 2 635 2 635 62.5 677.5 c 128,-1,37
 123 720 123 720 215 720 c 0,38,39
 338 720 338 720 396 671.5 c 128,-1,40
 454 623 454 623 454 549 c 0,41,42
 454 497 454 497 426 458 c 128,-1,43
 398 419 398 419 357.5 397 c 128,-1,44
 317 375 317 375 276.5 357 c 128,-1,45
 236 339 236 339 208 316 c 128,-1,46
 180 293 180 293 180 263 c 128,-1,47
 180 233 180 233 201 216 c 128,-1,48
 222 199 222 199 251 199 c 0,49,50
 304 199 304 199 344 250 c 1,51,-1
 357 238 l 1,52,53
 314 181 314 181 252 181 c 0,54,8
 215 181 215 181 186.5 204 c 128,-1,9
EndSplineSet
EndChar

StartChar: at
Encoding: 64 64 35
Width: 834
GlyphClass: 2
Flags: W
LayerCount: 2
Fore
SplineSet
756 253 m 0,0,1
 756 398 756 398 658 490.5 c 128,-1,2
 560 583 560 583 418.5 583 c 128,-1,3
 277 583 277 583 177.5 483 c 128,-1,4
 78 383 78 383 78 243 c 128,-1,5
 78 103 78 103 177.5 3 c 128,-1,6
 277 -97 277 -97 417 -97 c 0,7,8
 503 -97 503 -97 578 -57 c 1,9,-1
 592 -80 l 1,10,11
 510 -124 510 -124 417 -124 c 0,12,13
 265 -124 265 -124 157.5 -16.5 c 128,-1,14
 50 91 50 91 50 243 c 128,-1,15
 50 395 50 395 157.5 502.5 c 128,-1,16
 265 610 265 610 418.5 610 c 128,-1,17
 572 610 572 610 678 510 c 128,-1,18
 784 410 784 410 784 253 c 0,19,20
 784 159 784 159 729.5 99 c 128,-1,21
 675 39 675 39 588 39 c 0,22,23
 545 39 545 39 516 67.5 c 128,-1,24
 487 96 487 96 484 134 c 1,25,-1
 479 134 l 1,26,27
 468 90 468 90 439.5 64.5 c 128,-1,28
 411 39 411 39 352.5 39 c 128,-1,29
 294 39 294 39 254 65 c 128,-1,30
 214 91 214 91 214 148 c 0,31,32
 214 271 214 271 466 271 c 1,33,-1
 466 298 l 2,34,35
 466 377 466 377 448 401 c 0,36,37
 426 429 426 429 373 429 c 128,-1,38
 320 429 320 429 283 404 c 0,39,40
 258 387 258 387 258 362 c 0,41,42
 258 353 258 353 266.5 353 c 128,-1,43
 275 353 275 353 277 364 c 0,44,45
 286 397 286 397 324 397 c 0,46,47
 345 397 345 397 362.5 380 c 128,-1,48
 380 363 380 363 380 336.5 c 128,-1,49
 380 310 380 310 361 292.5 c 128,-1,50
 342 275 342 275 311 275 c 128,-1,51
 280 275 280 275 259 296.5 c 128,-1,52
 238 318 238 318 238 348 c 0,53,54
 238 450 238 450 403 450 c 0,55,56
 532 450 532 450 577 406 c 128,-1,57
 622 362 622 362 622 260 c 2,58,-1
 622 121 l 2,59,60
 622 85 622 85 647 85 c 0,61,62
 682 85 682 85 719 131 c 128,-1,63
 756 177 756 177 756 253 c 0,0,1
466 179 m 2,64,-1
 466 253 l 1,65,66
 462 253 462 253 458 253 c 0,67,68
 370 253 370 253 370 165 c 0,69,70
 370 123 370 123 382.5 102 c 128,-1,71
 395 81 395 81 417.5 81 c 128,-1,72
 440 81 440 81 453 112 c 128,-1,73
 466 143 466 143 466 179 c 2,64,-1
EndSplineSet
EndChar

StartChar: A
Encoding: 65 65 36
Width: 614
GlyphClass: 2
Flags: W
LayerCount: 2
Fore
SplineSet
72 327 m 0,0,1
 -11 327 -11 327 -47 275 c 0,2,3
 -53 266 -53 266 -53 260 c 0,4,5
 -53 251 -53 251 -44 251 c 0,6,7
 -36 251 -36 251 -29 266 c 1,8,9
 -12 290 -12 290 18.5 290 c 128,-1,10
 49 290 49 290 66.5 270 c 128,-1,11
 84 250 84 250 84 218 c 128,-1,12
 84 186 84 186 61.5 165 c 128,-1,13
 39 144 39 144 3 144 c 128,-1,14
 -33 144 -33 144 -56 170 c 128,-1,15
 -79 196 -79 196 -79 237 c 128,-1,16
 -79 278 -79 278 -40 312 c 128,-1,17
 -1 346 -1 346 71 346 c 0,18,19
 108 346 108 346 144 335 c 1,20,-1
 246 629 l 2,21,22
 260 671 260 671 277 687 c 0,23,24
 304 711 304 711 350 711 c 1,25,-1
 593 25 l 1,26,-1
 631 25 l 1,27,-1
 631 9 l 1,28,-1
 383 9 l 1,29,-1
 361 70 l 1,30,31
 278 263 278 263 156 311 c 1,32,-1
 95 138 l 2,33,34
 85 111 85 111 85 87 c 0,35,36
 85 25 85 25 175 25 c 2,37,-1
 208 25 l 1,38,-1
 208 9 l 1,39,-1
 -48 9 l 1,40,-1
 -48 25 l 1,41,42
 -18 25 -18 25 2 31.5 c 128,-1,43
 22 38 22 38 36 57 c 128,-1,44
 50 76 50 76 57 92.5 c 128,-1,45
 64 109 64 109 77 145 c 2,46,-1
 137 317 l 1,47,48
 104 327 104 327 72 327 c 0,0,1
162 329 m 1,49,50
 252 296 252 296 317 195 c 1,51,-1
 216 482 l 1,52,-1
 162 329 l 1,49,50
EndSplineSet
EndChar

StartChar: B
Encoding: 66 66 37
Width: 726
GlyphClass: 2
Flags: W
LayerCount: 2
Fore
SplineSet
337 719 m 0,0,1
 500 719 500 719 578 683 c 128,-1,2
 656 647 656 647 656 570 c 0,3,4
 656 505 656 505 604.5 456.5 c 128,-1,5
 553 408 553 408 437 393 c 1,6,-1
 437 387 l 1,7,8
 536 385 536 385 610 346 c 0,9,10
 649 326 649 326 671.5 291 c 128,-1,11
 694 256 694 256 694 211 c 0,12,13
 694 9 694 9 370 9 c 2,14,-1
 29 9 l 1,15,-1
 29 25 l 1,16,-1
 103 25 l 1,17,-1
 103 463 l 1,18,19
 151 411 151 411 241.5 411 c 128,-1,20
 332 411 332 411 392 451 c 128,-1,21
 452 491 452 491 452 571 c 0,22,23
 452 629 452 629 416.5 662 c 128,-1,24
 381 695 381 695 305.5 695 c 128,-1,25
 230 695 230 695 179.5 671 c 128,-1,26
 129 647 129 647 117 607 c 0,27,28
 115 599 115 599 115 596 c 0,29,30
 115 587 115 587 123.5 587 c 128,-1,31
 132 587 132 587 136.5 601.5 c 128,-1,32
 141 616 141 616 159 631 c 128,-1,33
 177 646 177 646 214 646 c 128,-1,34
 251 646 251 646 274.5 621 c 128,-1,35
 298 596 298 596 298 555.5 c 128,-1,36
 298 515 298 515 269.5 488 c 128,-1,37
 241 461 241 461 197 461 c 128,-1,38
 153 461 153 461 122 493 c 128,-1,39
 91 525 91 525 91 571 c 0,40,41
 91 647 91 647 158.5 683 c 128,-1,42
 226 719 226 719 337 719 c 0,0,1
452.5 72.5 m 128,-1,44
 484 120 484 120 484 211.5 c 128,-1,45
 484 303 484 303 442 340 c 128,-1,46
 400 377 400 377 331 377 c 2,47,-1
 307 377 l 1,48,-1
 307 25 l 1,49,-1
 337 25 l 2,50,43
 421 25 421 25 452.5 72.5 c 128,-1,44
EndSplineSet
EndChar

StartChar: C
Encoding: 67 67 38
Width: 629
GlyphClass: 2
Flags: W
LayerCount: 2
Fore
SplineSet
608 552 m 0,0,1
 608 513 608 513 582.5 477.5 c 128,-1,2
 557 442 557 442 503.5 442 c 128,-1,3
 450 442 450 442 422.5 471.5 c 128,-1,4
 395 501 395 501 395 541 c 128,-1,5
 395 581 395 581 418 608 c 128,-1,6
 441 635 441 635 482 635 c 0,7,8
 555 635 555 635 568 554 c 0,9,10
 569 545 569 545 577 545 c 0,11,12
 588 545 588 545 588 555 c 0,13,14
 588 603 588 603 540 648.5 c 128,-1,15
 492 694 492 694 408.5 694 c 128,-1,16
 325 694 325 694 292.5 619.5 c 128,-1,17
 260 545 260 545 260 366 c 128,-1,18
 260 187 260 187 294 100 c 128,-1,19
 328 13 328 13 404 13 c 0,20,21
 466 13 466 13 514.5 53.5 c 128,-1,22
 563 94 563 94 585.5 146.5 c 128,-1,23
 608 199 608 199 608 246 c 1,24,-1
 629 246 l 1,25,26
 622 127 622 127 552 58.5 c 128,-1,27
 482 -10 482 -10 386 -10 c 0,28,29
 213 -10 213 -10 125.5 89.5 c 128,-1,30
 38 189 38 189 38 357 c 0,31,32
 38 491 38 491 119 600 c 0,33,34
 159 653 159 653 227 686 c 128,-1,35
 295 719 295 719 392 719 c 128,-1,36
 489 719 489 719 548.5 666.5 c 128,-1,37
 608 614 608 614 608 552 c 0,0,1
EndSplineSet
EndChar

StartChar: D
Encoding: 68 68 39
Width: 762
GlyphClass: 2
Flags: W
LayerCount: 2
Fore
SplineSet
382.5 680.5 m 128,-1,1
 347 695 347 695 285.5 695 c 128,-1,2
 224 695 224 695 173.5 671 c 128,-1,3
 123 647 123 647 111 607 c 0,4,5
 109 599 109 599 109 596 c 0,6,7
 109 587 109 587 117.5 587 c 128,-1,8
 126 587 126 587 130.5 601.5 c 128,-1,9
 135 616 135 616 153 631 c 128,-1,10
 171 646 171 646 208 646 c 128,-1,11
 245 646 245 646 268.5 621 c 128,-1,12
 292 596 292 596 292 555.5 c 128,-1,13
 292 515 292 515 263.5 488 c 128,-1,14
 235 461 235 461 191 461 c 128,-1,15
 147 461 147 461 116 493 c 128,-1,16
 85 525 85 525 85 571 c 0,17,18
 85 646 85 646 153 682.5 c 128,-1,19
 221 719 221 719 321 719 c 128,-1,20
 421 719 421 719 502 691 c 128,-1,21
 583 663 583 663 633 614 c 0,22,23
 734 514 734 514 734 363 c 0,24,25
 734 210 734 210 648 114 c 0,26,27
 604 64 604 64 529 36.5 c 128,-1,28
 454 9 454 9 354 9 c 2,29,-1
 33 9 l 1,30,-1
 33 25 l 1,31,-1
 97 25 l 1,32,-1
 97 464 l 1,33,34
 136 422 136 422 196 422 c 0,35,36
 231 422 231 422 261 437.5 c 128,-1,37
 291 453 291 453 301 469 c 1,38,-1
 301 25 l 1,39,-1
 334 25 l 2,40,41
 424 25 424 25 468 101.5 c 128,-1,42
 512 178 512 178 512 363 c 0,43,44
 512 558 512 558 448 631 c 0,45,0
 418 666 418 666 382.5 680.5 c 128,-1,1
EndSplineSet
EndChar

StartChar: E
Encoding: 69 69 40
Width: 535
GlyphClass: 2
Flags: W
LayerCount: 2
Fore
SplineSet
309 719 m 0,0,1
 387 719 387 719 448.5 685.5 c 128,-1,2
 510 652 510 652 510 581 c 0,3,4
 510 537 510 537 482.5 511.5 c 128,-1,5
 455 486 455 486 417.5 486 c 128,-1,6
 380 486 380 486 355 508 c 128,-1,7
 330 530 330 530 330 565 c 128,-1,8
 330 600 330 600 351 622 c 128,-1,9
 372 644 372 644 403 644 c 128,-1,10
 434 644 434 644 453 626.5 c 128,-1,11
 472 609 472 609 472 591 c 0,12,13
 472 572 472 572 466 562 c 128,-1,14
 460 552 460 552 460 547 c 0,15,16
 460 538 460 538 469 538 c 128,-1,17
 478 538 478 538 484.5 551 c 128,-1,18
 491 564 491 564 491 582 c 0,19,20
 491 624 491 624 458.5 655 c 128,-1,21
 426 686 426 686 372.5 686 c 128,-1,22
 319 686 319 686 279.5 645 c 128,-1,23
 240 604 240 604 240 545 c 128,-1,24
 240 486 240 486 272 445 c 128,-1,25
 304 404 304 404 358 404 c 0,26,27
 373 404 373 404 422 426 c 1,28,-1
 430 409 l 1,29,30
 330 360 330 360 293.5 313.5 c 128,-1,31
 257 267 257 267 257 196.5 c 128,-1,32
 257 126 257 126 284.5 77.5 c 128,-1,33
 312 29 312 29 377.5 29 c 128,-1,34
 443 29 443 29 483 68 c 128,-1,35
 523 107 523 107 523 162 c 0,36,37
 523 190 523 190 510 190 c 0,38,39
 500 190 500 190 500 181 c 0,40,41
 500 179 500 179 502 174 c 128,-1,42
 504 169 504 169 504 158 c 0,43,44
 504 131 504 131 484 116.5 c 128,-1,45
 464 102 464 102 436 102 c 128,-1,46
 408 102 408 102 386.5 124 c 128,-1,47
 365 146 365 146 365 181 c 128,-1,48
 365 216 365 216 388.5 239.5 c 128,-1,49
 412 263 412 263 451 263 c 128,-1,50
 490 263 490 263 516 235.5 c 128,-1,51
 542 208 542 208 542 164 c 0,52,53
 542 88 542 88 476.5 39 c 128,-1,54
 411 -10 411 -10 287 -10 c 128,-1,55
 163 -10 163 -10 99.5 49 c 128,-1,56
 36 108 36 108 36 185 c 128,-1,57
 36 262 36 262 92 313 c 128,-1,58
 148 364 148 364 253 379 c 1,59,-1
 250 388 l 1,60,61
 156 391 156 391 107 436.5 c 128,-1,62
 58 482 58 482 58 542 c 0,63,64
 58 620 58 620 129.5 669.5 c 128,-1,65
 201 719 201 719 309 719 c 0,0,1
EndSplineSet
EndChar

StartChar: F
Encoding: 70 70 41
Width: 574
GlyphClass: 2
Flags: W
LayerCount: 2
Fore
SplineSet
362 25 m 1,0,-1
 362 9 l 1,1,-1
 30 9 l 1,2,-1
 30 25 l 1,3,-1
 94 25 l 1,4,-1
 94 671 l 1,5,-1
 29 683 l 1,6,-1
 33 699 l 1,7,8
 115 682 115 682 198.5 682 c 128,-1,9
 282 682 282 682 371.5 700.5 c 128,-1,10
 461 719 461 719 508 719 c 128,-1,11
 555 719 555 719 590 689 c 128,-1,12
 625 659 625 659 625 608.5 c 128,-1,13
 625 558 625 558 594 525.5 c 128,-1,14
 563 493 563 493 521.5 493 c 128,-1,15
 480 493 480 493 451.5 519.5 c 128,-1,16
 423 546 423 546 423 584 c 128,-1,17
 423 622 423 622 446.5 649 c 128,-1,18
 470 676 470 676 507 676 c 0,19,20
 563 676 563 676 581 633 c 0,21,22
 581 631 581 631 584 626 c 0,23,24
 587 619 587 619 592 619 c 0,25,26
 601 619 601 619 601 629 c 0,27,28
 601 651 601 651 575 675.5 c 128,-1,29
 549 700 549 700 511.5 700 c 128,-1,30
 474 700 474 700 448.5 696 c 128,-1,31
 423 692 423 692 380.5 683 c 128,-1,32
 338 674 338 674 298 668 c 1,33,-1
 298 356 l 1,34,-1
 338 356 l 2,35,36
 397 356 397 356 423.5 385 c 128,-1,37
 450 414 450 414 450 479 c 1,38,-1
 466 479 l 1,39,-1
 466 217 l 1,40,-1
 450 217 l 1,41,42
 450 282 450 282 423.5 311 c 128,-1,43
 397 340 397 340 338 340 c 2,44,-1
 298 340 l 1,45,-1
 298 25 l 1,46,-1
 362 25 l 1,0,-1
EndSplineSet
EndChar

StartChar: G
Encoding: 71 71 42
Width: 715
GlyphClass: 2
Flags: W
LayerCount: 2
Fore
SplineSet
441 -274 m 0,0,1
 392 -274 392 -274 351 -242 c 128,-1,2
 310 -210 310 -210 310 -159.5 c 128,-1,3
 310 -109 310 -109 341 -77 c 128,-1,4
 372 -45 372 -45 413 -45 c 128,-1,5
 454 -45 454 -45 482 -71 c 128,-1,6
 510 -97 510 -97 510 -135.5 c 128,-1,7
 510 -174 510 -174 486.5 -200.5 c 128,-1,8
 463 -227 463 -227 421.5 -227 c 128,-1,9
 380 -227 380 -227 359 -190 c 0,10,11
 353 -178 353 -178 347 -178 c 0,12,13
 337 -178 337 -178 337 -189 c 0,14,15
 337 -193 337 -193 344 -206.5 c 128,-1,16
 351 -220 351 -220 377.5 -237 c 128,-1,17
 404 -254 404 -254 437 -254 c 0,18,19
 494 -254 494 -254 523.5 -219 c 128,-1,20
 553 -184 553 -184 553 -143 c 128,-1,21
 553 -102 553 -102 543 -76 c 128,-1,22
 533 -50 533 -50 519 -36 c 0,23,24
 491 -6 491 -6 467 1 c 2,25,-1
 457 4 l 1,26,27
 417 -10 417 -10 376 -10 c 0,28,29
 203 -10 203 -10 115.5 89.5 c 128,-1,30
 28 189 28 189 28 357 c 0,31,32
 28 467 28 467 82 556 c 0,33,34
 143 657 143 657 259 697 c 0,35,36
 323 719 323 719 401 719 c 0,37,38
 509 719 509 719 568.5 666.5 c 128,-1,39
 628 614 628 614 628 552 c 0,40,41
 628 513 628 513 602.5 477.5 c 128,-1,42
 577 442 577 442 523.5 442 c 128,-1,43
 470 442 470 442 442.5 471.5 c 128,-1,44
 415 501 415 501 415 541 c 128,-1,45
 415 581 415 581 438 608 c 128,-1,46
 461 635 461 635 502 635 c 0,47,48
 575 635 575 635 588 554 c 0,49,50
 589 545 589 545 597 545 c 0,51,52
 608 545 608 545 608 555 c 0,53,54
 608 603 608 603 560 648.5 c 128,-1,55
 512 694 512 694 423 694 c 0,56,57
 381 694 381 694 352 681 c 128,-1,58
 323 668 323 668 298 633 c 0,59,60
 250 564 250 564 250 360 c 0,61,62
 250 13 250 13 394 13 c 0,63,64
 428 13 428 13 457 25 c 1,65,-1
 457 271 l 1,66,-1
 409 271 l 1,67,-1
 409 287 l 1,68,-1
 698 287 l 1,69,-1
 698 271 l 1,70,-1
 646 271 l 1,71,-1
 646 -29 l 2,72,73
 646 -147 646 -147 590.5 -210.5 c 128,-1,74
 535 -274 535 -274 441 -274 c 0,0,1
EndSplineSet
EndChar

StartChar: H
Encoding: 72 72 43
Width: 789
GlyphClass: 2
Flags: W
LayerCount: 2
Fore
SplineSet
321 361 m 1,0,1
 391 364 391 364 470 370 c 1,2,-1
 470 495 l 2,3,4
 470 597 470 597 498 654 c 0,5,6
 530 719 530 719 630 719 c 0,7,8
 695 719 695 719 729.5 681.5 c 128,-1,9
 764 644 764 644 764 585 c 0,10,11
 764 461 764 461 674 404 c 1,12,-1
 674 25 l 1,13,-1
 738 25 l 1,14,-1
 738 9 l 1,15,-1
 406 9 l 1,16,-1
 406 25 l 1,17,-1
 470 25 l 1,18,-1
 470 350 l 1,19,20
 419 346 419 346 396 345 c 2,21,-1
 321 342 l 1,22,-1
 321 204 l 2,23,24
 321 101 321 101 278.5 45.5 c 128,-1,25
 236 -10 236 -10 131 -10 c 0,26,27
 52 -10 52 -10 9 37 c 128,-1,28
 -34 84 -34 84 -34 159 c 128,-1,29
 -34 234 -34 234 5 276.5 c 128,-1,30
 44 319 44 319 117 338 c 1,31,-1
 117 684 l 1,32,-1
 43 684 l 1,33,-1
 43 700 l 1,34,-1
 385 700 l 1,35,-1
 385 684 l 1,36,-1
 321 684 l 1,37,-1
 321 361 l 1,0,1
80 23 m 0,38,39
 117 23 117 23 117 80 c 2,40,-1
 117 318 l 1,41,42
 -14 282 -14 282 -14 161 c 0,43,44
 -14 103 -14 103 12.5 63 c 128,-1,45
 39 23 39 23 80 23 c 0,38,39
674 622 m 2,46,-1
 674 430 l 1,47,48
 744 482 744 482 744 587 c 0,49,50
 744 625 744 625 729.5 650 c 128,-1,51
 715 675 715 675 699 675 c 128,-1,52
 683 675 683 675 678.5 665 c 128,-1,53
 674 655 674 655 674 622 c 2,46,-1
EndSplineSet
EndChar

StartChar: I
Encoding: 73 73 44
Width: 416
GlyphClass: 2
Flags: W
LayerCount: 2
Fore
SplineSet
122 612 m 0,0,1
 215 612 215 612 268.5 645.5 c 128,-1,2
 322 679 322 679 322 750 c 0,3,4
 322 798 322 798 290 828.5 c 128,-1,5
 258 859 258 859 215.5 859 c 128,-1,6
 173 859 173 859 156 842 c 0,7,8
 153 839 153 839 153 834 c 0,9,10
 153 825 153 825 161 825 c 0,11,12
 164 825 164 825 177.5 832 c 128,-1,13
 191 839 191 839 208 839 c 0,14,15
 244 839 244 839 269.5 815 c 128,-1,16
 295 791 295 791 295 748.5 c 128,-1,17
 295 706 295 706 265 679.5 c 128,-1,18
 235 653 235 653 188.5 653 c 128,-1,19
 142 653 142 653 113.5 685 c 128,-1,20
 85 717 85 717 85 761 c 128,-1,21
 85 805 85 805 118.5 841.5 c 128,-1,22
 152 878 152 878 209.5 878 c 128,-1,23
 267 878 267 878 304 842.5 c 128,-1,24
 341 807 341 807 341 750 c 128,-1,25
 341 693 341 693 308 655 c 1,26,-1
 308 25 l 1,27,-1
 394 25 l 1,28,-1
 394 9 l 1,29,-1
 30 9 l 1,30,-1
 30 25 l 1,31,-1
 104 25 l 1,32,-1
 104 592 l 1,33,34
 73 592 73 592 40 598 c 1,35,-1
 40 617 l 1,36,37
 75 612 75 612 122 612 c 0,0,1
EndSplineSet
EndChar

StartChar: J
Encoding: 74 74 45
Width: 460
GlyphClass: 2
Flags: W
LayerCount: 2
Fore
SplineSet
147 -110 m 0,0,1
 37 -110 37 -110 -15 -59.5 c 128,-1,2
 -67 -9 -67 -9 -67 55 c 0,3,4
 -67 103 -67 103 -35 143.5 c 128,-1,5
 -3 184 -3 184 47.5 184 c 128,-1,6
 98 184 98 184 130 153 c 128,-1,7
 162 122 162 122 162 81 c 128,-1,8
 162 40 162 40 136 12 c 128,-1,9
 110 -16 110 -16 71.5 -16 c 128,-1,10
 33 -16 33 -16 6.5 7.5 c 128,-1,11
 -20 31 -20 31 -20 72 c 0,12,13
 -20 118 -20 118 17 136 c 0,14,15
 26 140 26 140 26 146 c 0,16,17
 26 156 26 156 15 156 c 0,18,19
 8 156 8 156 -5 146 c 0,20,21
 -48 112 -48 112 -48 55 c 128,-1,22
 -48 -2 -48 -2 -5.5 -39.5 c 128,-1,23
 37 -77 37 -77 93 -77 c 128,-1,24
 149 -77 149 -77 172 -38 c 128,-1,25
 195 1 195 1 195 76 c 2,26,-1
 195 684 l 1,27,-1
 122 684 l 1,28,-1
 122 700 l 1,29,-1
 484 700 l 1,30,-1
 484 684 l 1,31,-1
 400 684 l 1,32,-1
 400 138 l 2,33,34
 400 25 400 25 339 -42.5 c 128,-1,35
 278 -110 278 -110 147 -110 c 0,0,1
EndSplineSet
EndChar

StartChar: K
Encoding: 75 75 46
Width: 727
GlyphClass: 2
Flags: W
LayerCount: 2
Fore
SplineSet
440 189 m 0,0,1
 440 363 440 363 323 363 c 0,2,3
 319 363 319 363 315 363 c 1,4,-1
 315 22 l 1,5,-1
 378 22 l 1,6,-1
 378 9 l 1,7,-1
 47 9 l 1,8,-1
 47 22 l 1,9,-1
 111 22 l 1,10,-1
 111 687 l 1,11,-1
 47 687 l 1,12,-1
 47 700 l 1,13,-1
 362 700 l 1,14,-1
 362 687 l 1,15,-1
 315 687 l 1,16,-1
 315 382 l 1,17,18
 438 383 438 383 523.5 439 c 128,-1,19
 609 495 609 495 609 584 c 0,20,21
 609 633 609 633 580.5 663 c 128,-1,22
 552 693 552 693 504 693 c 0,23,24
 488 693 488 693 470 686.5 c 128,-1,25
 452 680 452 680 452 670.5 c 128,-1,26
 452 661 452 661 461 661 c 0,27,28
 463 661 463 661 476 666.5 c 128,-1,29
 489 672 489 672 502 672 c 0,30,31
 537 672 537 672 560 648 c 128,-1,32
 583 624 583 624 583 587.5 c 128,-1,33
 583 551 583 551 556.5 523.5 c 128,-1,34
 530 496 530 496 487 496 c 128,-1,35
 444 496 444 496 416.5 528 c 128,-1,36
 389 560 389 560 389 603.5 c 128,-1,37
 389 647 389 647 423 679.5 c 128,-1,38
 457 712 457 712 508 712 c 128,-1,39
 559 712 559 712 593.5 676.5 c 128,-1,40
 628 641 628 641 628 585.5 c 128,-1,41
 628 530 628 530 592.5 476.5 c 128,-1,42
 557 423 557 423 476 391 c 1,43,-1
 478 386 l 1,44,45
 652 348 652 348 652 143 c 0,46,47
 652 82 652 82 655.5 63 c 128,-1,48
 659 44 659 44 671 44 c 0,49,50
 695 44 695 44 695 126 c 1,51,-1
 712 126 l 1,52,53
 712 52 712 52 684.5 21 c 128,-1,54
 657 -10 657 -10 580.5 -10 c 128,-1,55
 504 -10 504 -10 472 40.5 c 128,-1,56
 440 91 440 91 440 189 c 0,0,1
EndSplineSet
EndChar

StartChar: L
Encoding: 76 76 47
Width: 623
GlyphClass: 2
Flags: W
LayerCount: 2
Fore
SplineSet
298 684 m 1,0,-1
 298 19 l 1,1,2
 308 18 308 18 374 7 c 128,-1,3
 440 -4 440 -4 493 -4 c 128,-1,4
 546 -4 546 -4 582.5 26 c 128,-1,5
 619 56 619 56 619 110 c 0,6,7
 619 140 619 140 603 165 c 0,8,9
 577 205 577 205 538 205 c 0,10,11
 529 205 529 205 529 195.5 c 128,-1,12
 529 186 529 186 543 185.5 c 128,-1,13
 557 185 557 185 577.5 167 c 128,-1,14
 598 149 598 149 598 111.5 c 128,-1,15
 598 74 598 74 570.5 50.5 c 128,-1,16
 543 27 543 27 505 27 c 128,-1,17
 467 27 467 27 440.5 55.5 c 128,-1,18
 414 84 414 84 414 125.5 c 128,-1,19
 414 167 414 167 446 196.5 c 128,-1,20
 478 226 478 226 527.5 226 c 128,-1,21
 577 226 577 226 607.5 192 c 128,-1,22
 638 158 638 158 638 106.5 c 128,-1,23
 638 55 638 55 600 16 c 128,-1,24
 562 -23 562 -23 484 -23 c 0,25,26
 435 -23 435 -23 343.5 -7 c 128,-1,27
 252 9 252 9 151 9 c 2,28,-1
 30 9 l 1,29,-1
 30 25 l 1,30,-1
 94 25 l 1,31,-1
 94 684 l 1,32,-1
 30 684 l 1,33,-1
 30 700 l 1,34,-1
 382 700 l 1,35,-1
 382 684 l 1,36,-1
 298 684 l 1,0,-1
EndSplineSet
EndChar

StartChar: M
Encoding: 77 77 48
Width: 889
GlyphClass: 2
Flags: W
LayerCount: 2
Fore
SplineSet
105 636 m 1,0,-1
 105 203 l 2,1,2
 105 117 105 117 112 86 c 128,-1,3
 119 55 119 55 132 46 c 1,4,5
 158 25 158 25 218 25 c 2,6,-1
 242 25 l 1,7,-1
 242 9 l 1,8,-1
 -39 9 l 1,9,-1
 -39 25 l 1,10,-1
 -28 25 l 1,11,12
 30 27 30 27 58 50 c 0,13,14
 79 68 79 68 84 134 c 0,15,16
 85 158 85 158 85 204 c 2,17,-1
 85 612 l 2,18,19
 85 654 85 654 63 669 c 128,-1,20
 41 684 41 684 -7 684 c 1,21,-1
 -7 700 l 1,22,-1
 292 700 l 1,23,-1
 426 381 l 1,24,-1
 613 700 l 1,25,-1
 869 700 l 1,26,-1
 869 684 l 1,27,-1
 805 684 l 1,28,-1
 805 25 l 1,29,-1
 869 25 l 1,30,-1
 869 9 l 1,31,-1
 543 9 l 1,32,-1
 543 25 l 1,33,-1
 607 25 l 1,34,-1
 607 636 l 1,35,-1
 600 636 l 1,36,-1
 435 361 l 1,37,-1
 492 226 l 2,38,39
 515 174 515 174 515 129.5 c 128,-1,40
 515 85 515 85 481 51.5 c 128,-1,41
 447 18 447 18 390 18 c 0,42,43
 272 18 272 18 272 104 c 0,44,45
 272 130 272 130 307 187 c 1,46,-1
 112 636 l 1,47,-1
 105 636 l 1,0,-1
316 165 m 1,48,49
 291 125 291 125 291 103 c 128,-1,50
 291 81 291 81 303 66 c 128,-1,51
 315 51 315 51 326 51 c 128,-1,52
 337 51 337 51 343.5 58 c 128,-1,53
 350 65 350 65 350 80 c 128,-1,54
 350 95 350 95 335 125 c 1,55,-1
 317 166 l 1,56,-1
 316 165 l 1,48,49
EndSplineSet
EndChar

StartChar: N
Encoding: 78 78 49
Width: 689
GlyphClass: 2
Flags: W
LayerCount: 2
Fore
SplineSet
116 505 m 2,0,-1
 116 119 l 2,1,2
 116 71 116 71 86.5 35.5 c 128,-1,3
 57 0 57 0 6.5 0 c 128,-1,4
 -44 0 -44 0 -76.5 31 c 128,-1,5
 -109 62 -109 62 -109 103 c 128,-1,6
 -109 144 -109 144 -83 172 c 128,-1,7
 -57 200 -57 200 -18.5 200 c 128,-1,8
 20 200 20 200 46.5 176.5 c 128,-1,9
 73 153 73 153 73 114 c 0,10,11
 73 92 73 92 65.5 76 c 128,-1,12
 58 60 58 60 50 55 c 0,13,14
 38 48 38 48 36 46 c 0,15,16
 28 42 28 42 28 37 c 0,17,18
 28 27 28 27 37 27 c 0,19,20
 41 27 41 27 49 31 c 0,21,22
 96 54 96 54 96 117 c 2,23,-1
 96 509 l 2,24,25
 96 565 96 565 75 612 c 1,26,27
 65 631 65 631 49 650 c 0,28,29
 22 684 22 684 -11 684 c 1,30,-1
 -11 700 l 1,31,-1
 194 700 l 2,32,33
 235 700 235 700 261.5 686.5 c 128,-1,34
 288 673 288 673 317 627 c 2,35,-1
 570 220 l 1,36,-1
 574 220 l 1,37,-1
 574 466 l 2,38,39
 574 618 574 618 548 650 c 0,40,41
 519 684 519 684 461 684 c 2,42,-1
 428 684 l 1,43,-1
 428 700 l 1,44,-1
 719 700 l 1,45,-1
 719 684 l 1,46,-1
 707 684 l 1,47,48
 650 682 650 682 629 654 c 0,49,50
 617 639 617 639 609.5 623.5 c 128,-1,51
 602 608 602 608 599 579 c 0,52,53
 594 531 594 531 594 465 c 2,54,-1
 594 9 l 1,55,-1
 535 9 l 2,56,57
 494 9 494 9 467.5 22.5 c 128,-1,58
 441 36 441 36 412 82 c 2,59,-1
 112 554 l 1,60,61
 116 535 116 535 116 505 c 2,0,-1
EndSplineSet
EndChar

StartChar: O
Encoding: 79 79 50
Width: 746
GlyphClass: 2
Flags: W
LayerCount: 2
Fore
SplineSet
536 427 m 0,0,1
 582 427 582 427 620 457 c 128,-1,2
 658 487 658 487 672 554 c 1,3,4
 719 466 719 466 719 357 c 0,5,6
 719 243 719 243 667 152 c 0,7,8
 610 51 610 51 503 12 c 0,9,10
 445 -10 445 -10 376 -10 c 128,-1,11
 307 -10 307 -10 249 11.5 c 128,-1,12
 191 33 191 33 151.5 68.5 c 128,-1,13
 112 104 112 104 85 152 c 0,14,15
 33 243 33 243 33 357 c 0,16,17
 33 519 33 519 133 619 c 128,-1,18
 233 719 233 719 424 719 c 0,19,20
 513 719 513 719 575.5 677.5 c 128,-1,21
 638 636 638 636 638 570 c 0,22,23
 638 528 638 528 608 496 c 128,-1,24
 578 464 578 464 535 464 c 128,-1,25
 492 464 492 464 463 491.5 c 128,-1,26
 434 519 434 519 434 557.5 c 128,-1,27
 434 596 434 596 457.5 623 c 128,-1,28
 481 650 481 650 520.5 650 c 128,-1,29
 560 650 560 650 583 615 c 0,30,31
 588 606 588 606 595 606 c 0,32,33
 605 606 605 606 605 614 c 128,-1,34
 605 622 605 622 597 632 c 0,35,36
 579 658 579 658 538 677.5 c 128,-1,37
 497 697 497 697 435 697 c 128,-1,38
 373 697 373 697 334 670 c 0,39,40
 255 616 255 616 255 357 c 0,41,42
 255 99 255 99 309 38 c 0,43,44
 334 9 334 9 376 9 c 128,-1,45
 418 9 418 9 443 38 c 0,46,47
 497 99 497 99 497 357 c 0,48,49
 497 412 497 412 496 433 c 1,50,51
 520 427 520 427 536 427 c 0,0,1
EndSplineSet
EndChar

StartChar: P
Encoding: 80 80 51
Width: 637
GlyphClass: 2
Flags: W
LayerCount: 2
Fore
SplineSet
94 25 m 1,0,-1
 94 464 l 1,1,2
 133 422 133 422 193 422 c 0,3,4
 228 422 228 422 258 437.5 c 128,-1,5
 288 453 288 453 298 469 c 1,6,-1
 298 324 l 1,7,-1
 309 324 l 2,8,9
 398 324 398 324 425 365 c 128,-1,10
 452 406 452 406 452 515 c 0,11,12
 452 600 452 600 406 647 c 128,-1,13
 360 694 360 694 291.5 694 c 128,-1,14
 223 694 223 694 174.5 670.5 c 128,-1,15
 126 647 126 647 114 607 c 0,16,17
 112 599 112 599 112 596 c 0,18,19
 112 587 112 587 120.5 587 c 128,-1,20
 129 587 129 587 133.5 601.5 c 128,-1,21
 138 616 138 616 156 631 c 128,-1,22
 174 646 174 646 211 646 c 128,-1,23
 248 646 248 646 271.5 621 c 128,-1,24
 295 596 295 596 295 555.5 c 128,-1,25
 295 515 295 515 266.5 488 c 128,-1,26
 238 461 238 461 194 461 c 128,-1,27
 150 461 150 461 119 493 c 128,-1,28
 88 525 88 525 88 571 c 0,29,30
 88 646 88 646 156 682.5 c 128,-1,31
 224 719 224 719 327 719 c 0,32,33
 501 719 501 719 584 672.5 c 128,-1,34
 667 626 667 626 667 515 c 0,35,36
 667 420 667 420 610 362.5 c 128,-1,37
 553 305 553 305 421 305 c 2,38,-1
 298 305 l 1,39,-1
 298 25 l 1,40,-1
 361 25 l 1,41,-1
 361 9 l 1,42,-1
 30 9 l 1,43,-1
 30 25 l 1,44,-1
 94 25 l 1,0,-1
EndSplineSet
EndChar

StartChar: Q
Encoding: 81 81 52
Width: 746
GlyphClass: 2
Flags: W
LayerCount: 2
Fore
SplineSet
478 4 m 1,0,1
 428 -10 428 -10 366 -10 c 128,-1,2
 304 -10 304 -10 246 11.5 c 128,-1,3
 188 33 188 33 148.5 68.5 c 128,-1,4
 109 104 109 104 82 152 c 0,5,6
 30 243 30 243 30 357 c 0,7,8
 30 491 30 491 111 600 c 0,9,10
 151 653 151 653 219 686 c 128,-1,11
 287 719 287 719 373 719 c 128,-1,12
 459 719 459 719 527 687.5 c 128,-1,13
 595 656 595 656 635 604 c 0,14,15
 716 497 716 497 716 357 c 0,16,17
 716 250 716 250 667.5 157.5 c 128,-1,18
 619 65 619 65 525 21 c 1,19,20
 538 -74 538 -74 552 -103 c 0,21,22
 577 -157 577 -157 639 -157 c 0,23,24
 658 -157 658 -157 671 -151 c 128,-1,25
 684 -145 684 -145 684 -137 c 128,-1,26
 684 -129 684 -129 675 -129 c 0,27,28
 674 -129 674 -129 662.5 -133.5 c 128,-1,29
 651 -138 651 -138 640 -138 c 0,30,31
 606 -138 606 -138 585 -112 c 128,-1,32
 564 -86 564 -86 564 -52 c 128,-1,33
 564 -18 564 -18 590 7.5 c 128,-1,34
 616 33 616 33 658.5 33 c 128,-1,35
 701 33 701 33 727.5 4 c 128,-1,36
 754 -25 754 -25 754 -68 c 128,-1,37
 754 -111 754 -111 719 -143 c 128,-1,38
 684 -175 684 -175 639 -175 c 0,39,40
 592 -175 592 -175 566 -153 c 0,41,42
 551 -141 551 -141 541 -130.5 c 128,-1,43
 531 -120 531 -120 521 -99.5 c 128,-1,44
 511 -79 511 -79 505.5 -67.5 c 128,-1,45
 500 -56 500 -56 491 -30.5 c 128,-1,46
 482 -5 482 -5 478 4 c 1,0,1
317 158 m 128,-1,48
 349 189 349 189 400 189 c 128,-1,49
 451 189 451 189 482 153 c 1,50,51
 494 228 494 228 494 360.5 c 128,-1,52
 494 493 494 493 479.5 569.5 c 128,-1,53
 465 646 465 646 440 673 c 128,-1,54
 415 700 415 700 373 700 c 128,-1,55
 331 700 331 700 306 673 c 0,56,57
 252 615 252 615 252 357 c 0,58,59
 252 144 252 144 287 68 c 1,60,61
 285 80 285 80 285 86 c 0,62,47
 285 127 285 127 317 158 c 128,-1,48
373 9 m 0,63,64
 426 9 426 9 453 56 c 1,65,66
 421 107 421 107 366 107 c 0,67,68
 346 107 346 107 329 94 c 128,-1,69
 312 81 312 81 312 55.5 c 128,-1,70
 312 30 312 30 332 17 c 1,71,72
 348 9 348 9 373 9 c 0,63,64
EndSplineSet
EndChar

StartChar: R
Encoding: 82 82 53
Width: 741
GlyphClass: 2
Flags: W
LayerCount: 2
Fore
SplineSet
452 521 m 0,0,1
 452 605 452 605 409.5 648.5 c 128,-1,2
 367 692 367 692 287 692 c 0,3,4
 229 692 229 692 179 668.5 c 128,-1,5
 129 645 129 645 115 607 c 0,6,7
 113 600 113 600 113 596 c 0,8,9
 113 587 113 587 121.5 587 c 128,-1,10
 130 587 130 587 134.5 601.5 c 128,-1,11
 139 616 139 616 156.5 631 c 128,-1,12
 174 646 174 646 210 646 c 128,-1,13
 246 646 246 646 270 618 c 128,-1,14
 294 590 294 590 294 552 c 128,-1,15
 294 514 294 514 264.5 487.5 c 128,-1,16
 235 461 235 461 193.5 461 c 128,-1,17
 152 461 152 461 121 493 c 128,-1,18
 90 525 90 525 90 570.5 c 128,-1,19
 90 616 90 616 116 647 c 128,-1,20
 142 678 142 678 186 692 c 0,21,22
 265 719 265 719 356 719 c 0,23,24
 510 719 510 719 587 674.5 c 128,-1,25
 664 630 664 630 664 526 c 0,26,27
 664 376 664 376 467 351 c 1,28,-1
 467 347 l 1,29,30
 566 347 566 347 620 301 c 0,31,32
 646 278 646 278 655 236.5 c 128,-1,33
 664 195 664 195 664 109 c 2,34,-1
 664 93 l 2,35,36
 664 39 664 39 686 39 c 0,37,38
 698 39 698 39 708 66.5 c 128,-1,39
 718 94 718 94 723 136 c 1,40,-1
 741 134 l 1,41,42
 737 98 737 98 731 76 c 128,-1,43
 725 54 725 54 711 32 c 0,44,45
 684 -10 684 -10 602 -10 c 128,-1,46
 520 -10 520 -10 479 45 c 0,47,48
 463 67 463 67 457 94.5 c 128,-1,49
 451 122 451 122 451 194.5 c 128,-1,50
 451 267 451 267 432 297 c 1,51,52
 411 333 411 333 346 333 c 2,53,-1
 298 333 l 1,54,-1
 298 25 l 1,55,-1
 361 25 l 1,56,-1
 361 9 l 1,57,-1
 30 9 l 1,58,-1
 30 25 l 1,59,-1
 94 25 l 1,60,-1
 94 464 l 1,61,62
 133 422 133 422 193 422 c 0,63,64
 228 422 228 422 258 437.5 c 128,-1,65
 288 453 288 453 298 469 c 1,66,-1
 298 350 l 1,67,-1
 344 350 l 2,68,69
 401 350 401 350 429 384 c 0,70,71
 452 413 452 413 452 521 c 0,0,1
EndSplineSet
EndChar

StartChar: S
Encoding: 83 83 54
Width: 643
GlyphClass: 2
Flags: W
LayerCount: 2
Fore
SplineSet
90 64 m 1,0,1
 47 106 47 106 47 158 c 128,-1,2
 47 210 47 210 76 240.5 c 128,-1,3
 105 271 105 271 148 271 c 128,-1,4
 191 271 191 271 219.5 243 c 128,-1,5
 248 215 248 215 248 177 c 128,-1,6
 248 139 248 139 224.5 110 c 128,-1,7
 201 81 201 81 162.5 81 c 128,-1,8
 124 81 124 81 105 108 c 0,9,10
 104 110 104 110 102 113 c 128,-1,11
 100 116 100 116 99 118 c 0,12,13
 96 123 96 123 91 123 c 0,14,15
 81 123 81 123 81 114 c 128,-1,16
 81 105 81 105 91 92 c 0,17,18
 119 56 119 56 172.5 34.5 c 128,-1,19
 226 13 226 13 289.5 13 c 128,-1,20
 353 13 353 13 396.5 39.5 c 128,-1,21
 440 66 440 66 440 119 c 0,22,23
 440 179 440 179 363 220 c 0,24,25
 329 238 329 238 288 255.5 c 128,-1,26
 247 273 247 273 206 294.5 c 128,-1,27
 165 316 165 316 131 342.5 c 128,-1,28
 97 369 97 369 75.5 411 c 128,-1,29
 54 453 54 453 54 506 c 0,30,31
 54 598 54 598 137 658.5 c 128,-1,32
 220 719 220 719 326 719 c 128,-1,33
 432 719 432 719 504 680 c 128,-1,34
 576 641 576 641 576 573 c 0,35,36
 576 526 576 526 547.5 492 c 128,-1,37
 519 458 519 458 474 458 c 128,-1,38
 429 458 429 458 401 485 c 128,-1,39
 373 512 373 512 373 552 c 128,-1,40
 373 592 373 592 396 618.5 c 128,-1,41
 419 645 419 645 460 645 c 128,-1,42
 501 645 501 645 527 603 c 0,43,44
 532 595 532 595 537 595 c 0,45,46
 547 595 547 595 547 606 c 0,47,48
 547 612 547 612 542 620 c 0,49,50
 525 649 525 649 473.5 674 c 128,-1,51
 422 699 422 699 355 699 c 128,-1,52
 288 699 288 699 254 672.5 c 128,-1,53
 220 646 220 646 220 602.5 c 128,-1,54
 220 559 220 559 249 526 c 128,-1,55
 278 493 278 493 321.5 473.5 c 128,-1,56
 365 454 365 454 415.5 430 c 128,-1,57
 466 406 466 406 509.5 382 c 128,-1,58
 553 358 553 358 582 315 c 128,-1,59
 611 272 611 272 611 215 c 0,60,61
 611 109 611 109 523.5 49.5 c 128,-1,62
 436 -10 436 -10 302.5 -10 c 128,-1,63
 169 -10 169 -10 90 64 c 1,0,1
EndSplineSet
EndChar

StartChar: T
Encoding: 84 84 55
Width: 586
GlyphClass: 2
Flags: W
LayerCount: 2
Fore
SplineSet
673 634.5 m 128,-1,1
 633 599 633 599 575.5 599 c 128,-1,2
 518 599 518 599 438 621 c 1,3,-1
 438 25 l 1,4,-1
 512 25 l 1,5,-1
 512 9 l 1,6,-1
 160 9 l 1,7,-1
 160 25 l 1,8,-1
 234 25 l 1,9,-1
 234 682 l 1,10,11
 164 700 164 700 109 700 c 128,-1,12
 54 700 54 700 17.5 671 c 128,-1,13
 -19 642 -19 642 -19 614 c 0,14,15
 -19 604 -19 604 -10 604 c 0,16,17
 -5 604 -5 604 -3 606.5 c 128,-1,18
 -1 609 -1 609 0 610 c 128,-1,19
 1 611 1 611 2 615 c 128,-1,20
 3 619 3 619 4 620 c 0,21,22
 23 663 23 663 76 663 c 0,23,24
 114 663 114 663 138 636.5 c 128,-1,25
 162 610 162 610 162 570 c 128,-1,26
 162 530 162 530 135 504.5 c 128,-1,27
 108 479 108 479 62.5 479 c 128,-1,28
 17 479 17 479 -13 512.5 c 128,-1,29
 -43 546 -43 546 -43 597 c 128,-1,30
 -43 648 -43 648 1 683.5 c 128,-1,31
 45 719 45 719 115.5 719 c 128,-1,32
 186 719 186 719 348.5 668.5 c 128,-1,33
 511 618 511 618 569.5 618 c 128,-1,34
 628 618 628 618 661 649 c 128,-1,35
 694 680 694 680 694 734 c 0,36,37
 694 770 694 770 671 795.5 c 128,-1,38
 648 821 648 821 634 821 c 128,-1,39
 620 821 620 821 620 813 c 128,-1,40
 620 805 620 805 630 801 c 0,41,42
 670 781 670 781 670 738.5 c 128,-1,43
 670 696 670 696 644 672 c 128,-1,44
 618 648 618 648 580 648 c 128,-1,45
 542 648 542 648 515 676.5 c 128,-1,46
 488 705 488 705 488 748 c 128,-1,47
 488 791 488 791 520 819.5 c 128,-1,48
 552 848 552 848 600.5 848 c 128,-1,49
 649 848 649 848 681 813.5 c 128,-1,50
 713 779 713 779 713 724.5 c 128,-1,0
 713 670 713 670 673 634.5 c 128,-1,1
EndSplineSet
EndChar

StartChar: U
Encoding: 85 85 56
Width: 685
GlyphClass: 2
Flags: W
LayerCount: 2
Fore
SplineSet
516 666 m 2,0,-1
 538 668 l 1,1,2
 568 668 568 668 588 644.5 c 128,-1,3
 608 621 608 621 608 585.5 c 128,-1,4
 608 550 608 550 582 524 c 128,-1,5
 556 498 556 498 513.5 498 c 128,-1,6
 471 498 471 498 442.5 528 c 128,-1,7
 414 558 414 558 414 601 c 128,-1,8
 414 644 414 644 446 675.5 c 128,-1,9
 478 707 478 707 530 707 c 0,10,11
 608 707 608 707 643 641.5 c 128,-1,12
 678 576 678 576 678 449 c 0,13,14
 678 294 678 294 647 193 c 0,15,16
 619 101 619 101 560 50 c 0,17,18
 491 -10 491 -10 383 -10 c 0,19,20
 242 -10 242 -10 174 52 c 0,21,22
 116 105 116 105 100 226 c 0,23,24
 94 277 94 277 94 349 c 2,25,-1
 94 684 l 1,26,-1
 30 684 l 1,27,-1
 30 700 l 1,28,-1
 362 700 l 1,29,-1
 362 684 l 1,30,-1
 298 684 l 1,31,-1
 298 356 l 2,32,33
 298 197 298 197 319 138 c 0,34,35
 345 66 345 66 386 45 c 0,36,37
 411 32 411 32 444 32 c 0,38,39
 505 32 505 32 549 69 c 128,-1,40
 593 106 593 106 616 170 c 0,41,42
 658 291 658 291 658 449 c 0,43,44
 658 688 658 688 537 688 c 0,45,46
 507 688 507 688 507 677 c 128,-1,47
 507 666 507 666 516 666 c 2,0,-1
EndSplineSet
EndChar

StartChar: V
Encoding: 86 86 57
Width: 641
GlyphClass: 2
Flags: W
LayerCount: 2
Fore
SplineSet
368 0 m 2,0,1
 304 0 304 0 277 73 c 2,2,-1
 50 684 l 1,3,-1
 -8 684 l 1,4,-1
 -8 700 l 1,5,-1
 347 700 l 1,6,-1
 347 684 l 1,7,-1
 266 684 l 1,8,-1
 448 189 l 1,9,-1
 463 189 l 1,10,-1
 585 481 l 2,11,12
 622 568 622 568 622 600 c 128,-1,13
 622 632 622 632 604.5 655 c 128,-1,14
 587 678 587 678 563 685 c 0,15,16
 555 687 555 687 552 687 c 0,17,18
 543 687 543 687 543 679 c 128,-1,19
 543 671 543 671 551 668 c 0,20,21
 602 650 602 650 602 597 c 0,22,23
 602 562 602 562 580 537.5 c 128,-1,24
 558 513 558 513 516 513 c 128,-1,25
 474 513 474 513 445 541.5 c 128,-1,26
 416 570 416 570 416 613.5 c 128,-1,27
 416 657 416 657 448 683 c 128,-1,28
 480 709 480 709 532 709 c 128,-1,29
 584 709 584 709 612.5 675 c 128,-1,30
 641 641 641 641 641 605.5 c 128,-1,31
 641 570 641 570 619 516 c 2,32,-1
 409 0 l 1,33,-1
 368 0 l 2,0,1
EndSplineSet
EndChar

StartChar: W
Encoding: 87 87 58
Width: 1050
GlyphClass: 2
Flags: W
LayerCount: 2
Fore
SplineSet
0 684 m 1,0,-1
 0 700 l 1,1,-1
 371 700 l 1,2,-1
 371 684 l 1,3,-1
 290 684 l 1,4,-1
 457 228 l 1,5,-1
 472 228 l 1,6,-1
 564 446 l 1,7,-1
 474 684 l 1,8,-1
 416 684 l 1,9,-1
 416 700 l 1,10,-1
 787 700 l 1,11,-1
 787 684 l 1,12,-1
 706 684 l 1,13,-1
 873 228 l 1,14,-1
 888 228 l 1,15,-1
 994 481 l 2,16,17
 1031 568 1031 568 1031 600 c 128,-1,18
 1031 632 1031 632 1013.5 655 c 128,-1,19
 996 678 996 678 972 685 c 0,20,21
 964 687 964 687 961 687 c 0,22,23
 952 687 952 687 952 679 c 128,-1,24
 952 671 952 671 960 668 c 0,25,26
 1011 650 1011 650 1011 597 c 0,27,28
 1011 562 1011 562 989 537.5 c 128,-1,29
 967 513 967 513 925 513 c 128,-1,30
 883 513 883 513 854 541.5 c 128,-1,31
 825 570 825 570 825 613.5 c 128,-1,32
 825 657 825 657 857 683 c 128,-1,33
 889 709 889 709 941 709 c 128,-1,34
 993 709 993 709 1021.5 675 c 128,-1,35
 1050 641 1050 641 1050 605.5 c 128,-1,36
 1050 570 1050 570 1028 516 c 2,37,-1
 822 9 l 1,38,-1
 738 9 l 1,39,-1
 573 421 l 1,40,-1
 403 9 l 1,41,-1
 322 9 l 1,42,-1
 58 684 l 1,43,-1
 0 684 l 1,0,-1
EndSplineSet
EndChar

StartChar: X
Encoding: 88 88 59
Width: 641
GlyphClass: 2
Flags: W
LayerCount: 2
Fore
SplineSet
678 25 m 1,0,-1
 678 9 l 1,1,-1
 317 9 l 1,2,-1
 317 25 l 1,3,-1
 383 25 l 1,4,-1
 276 238 l 1,5,-1
 217 107 l 2,6,7
 192 51 192 51 162.5 20.5 c 128,-1,8
 133 -10 133 -10 87.5 -10 c 128,-1,9
 42 -10 42 -10 7.5 16.5 c 128,-1,10
 -27 43 -27 43 -27 100 c 0,11,12
 -27 135 -27 135 -0.5 166 c 128,-1,13
 26 197 26 197 68 197 c 128,-1,14
 110 197 110 197 136.5 172 c 128,-1,15
 163 147 163 147 163 112 c 128,-1,16
 163 77 163 77 140 53 c 128,-1,17
 117 29 117 29 84 29 c 0,18,19
 67 29 67 29 54 34 c 2,20,-1
 40 39 l 1,21,22
 31 39 31 39 31 30.5 c 128,-1,23
 31 22 31 22 41 18 c 0,24,25
 59 9 59 9 83.5 9 c 128,-1,26
 108 9 108 9 127.5 18.5 c 128,-1,27
 147 28 147 28 163 50 c 0,28,29
 183 77 183 77 214 144 c 1,30,-1
 265 259 l 1,31,-1
 51 684 l 1,32,-1
 -12 684 l 1,33,-1
 -12 700 l 1,34,-1
 349 700 l 1,35,-1
 349 684 l 1,36,-1
 281 684 l 1,37,-1
 393 461 l 1,38,-1
 452 592 l 2,39,40
 477 648 477 648 506.5 678.5 c 128,-1,41
 536 709 536 709 581.5 709 c 128,-1,42
 627 709 627 709 661.5 682.5 c 128,-1,43
 696 656 696 656 696 599 c 0,44,45
 696 564 696 564 669.5 533 c 128,-1,46
 643 502 643 502 601 502 c 128,-1,47
 559 502 559 502 532.5 527 c 128,-1,48
 506 552 506 552 506 587 c 128,-1,49
 506 622 506 622 528.5 646.5 c 128,-1,50
 551 671 551 671 584 671 c 0,51,52
 599 671 599 671 612.5 666.5 c 128,-1,53
 626 662 626 662 627 662 c 0,54,55
 637 662 637 662 637 670 c 128,-1,56
 637 678 637 678 623.5 684.5 c 128,-1,57
 610 691 610 691 585 691 c 128,-1,58
 560 691 560 691 541 681.5 c 128,-1,59
 522 672 522 672 505.5 649.5 c 128,-1,60
 489 627 489 627 480 609 c 128,-1,61
 471 591 471 591 455 555 c 2,62,-1
 404 439 l 1,63,-1
 613 25 l 1,64,-1
 678 25 l 1,0,-1
EndSplineSet
EndChar

StartChar: Y
Encoding: 89 89 60
Width: 567
GlyphClass: 2
Flags: W
LayerCount: 2
Fore
SplineSet
578 605 m 0,0,1
 578 652 578 652 549 679 c 0,2,3
 532 694 532 694 520 694 c 128,-1,4
 508 694 508 694 508 685 c 0,5,6
 508 678 508 678 515 675 c 128,-1,7
 522 672 522 672 525 670 c 0,8,9
 556 649 556 649 556 610.5 c 128,-1,10
 556 572 556 572 531.5 549.5 c 128,-1,11
 507 527 507 527 469 527 c 128,-1,12
 431 527 431 527 405 555 c 128,-1,13
 379 583 379 583 379 624 c 128,-1,14
 379 665 379 665 408 692 c 128,-1,15
 437 719 437 719 491.5 719 c 128,-1,16
 546 719 546 719 571.5 683 c 128,-1,17
 597 647 597 647 597 603 c 128,-1,18
 597 559 597 559 567 518 c 2,19,-1
 410 298 l 1,20,-1
 410 25 l 1,21,-1
 474 25 l 1,22,-1
 474 9 l 1,23,-1
 142 9 l 1,24,-1
 142 25 l 1,25,-1
 206 25 l 1,26,-1
 206 282 l 1,27,-1
 18 684 l 1,28,-1
 -40 684 l 1,29,-1
 -40 700 l 1,30,-1
 321 700 l 1,31,-1
 321 684 l 1,32,-1
 234 684 l 1,33,-1
 401 318 l 1,34,-1
 547 521 l 2,35,36
 548 522 548 522 552 528.5 c 128,-1,37
 556 535 556 535 558 538 c 128,-1,38
 560 541 560 541 564 548 c 128,-1,39
 568 555 568 555 569.5 560 c 128,-1,40
 571 565 571 565 574 572 c 0,41,42
 578 586 578 586 578 605 c 0,0,1
EndSplineSet
EndChar

StartChar: Z
Encoding: 90 90 61
Width: 653
GlyphClass: 2
Flags: W
LayerCount: 2
Fore
SplineSet
280.5 698.5 m 128,-1,1
 202 710 202 710 152 710 c 128,-1,2
 102 710 102 710 65.5 682 c 128,-1,3
 29 654 29 654 29 625 c 0,4,5
 29 614 29 614 38 614 c 0,6,7
 43 614 43 614 45 616.5 c 128,-1,8
 47 619 47 619 48 620 c 128,-1,9
 49 621 49 621 50 625 c 128,-1,10
 51 629 51 629 52 630 c 0,11,12
 71 673 71 673 124 673 c 0,13,14
 162 673 162 673 186 646 c 128,-1,15
 210 619 210 619 210 579 c 128,-1,16
 210 539 210 539 182 512 c 128,-1,17
 154 485 154 485 109 485 c 128,-1,18
 64 485 64 485 34.5 520.5 c 128,-1,19
 5 556 5 556 5 607 c 128,-1,20
 5 658 5 658 49 693.5 c 128,-1,21
 93 729 93 729 160 729 c 0,22,23
 202 729 202 729 285.5 717.5 c 128,-1,24
 369 706 369 706 457 706 c 128,-1,25
 545 706 545 706 650 719 c 1,26,-1
 657 705 l 1,27,-1
 237 28 l 1,28,29
 300 25 300 25 388 8 c 128,-1,30
 476 -9 476 -9 510 -9 c 0,31,32
 578 -9 578 -9 614 21 c 128,-1,33
 650 51 650 51 650 100 c 128,-1,34
 650 149 650 149 625.5 174.5 c 128,-1,35
 601 200 601 200 578 200 c 0,36,37
 569 200 569 200 569 190 c 0,38,39
 569 184 569 184 572 183 c 2,40,-1
 584 178 l 1,41,42
 610 170 610 170 621 138 c 0,43,44
 626 124 626 124 626 107 c 0,45,46
 626 70 626 70 599 46.5 c 128,-1,47
 572 23 572 23 534 23 c 128,-1,48
 496 23 496 23 469.5 51.5 c 128,-1,49
 443 80 443 80 443 121.5 c 128,-1,50
 443 163 443 163 475.5 194 c 128,-1,51
 508 225 508 225 557 225 c 128,-1,52
 606 225 606 225 637.5 189.5 c 128,-1,53
 669 154 669 154 669 109 c 0,54,55
 669 44 669 44 625.5 8 c 128,-1,56
 582 -28 582 -28 511 -28 c 0,57,58
 481 -28 481 -28 380.5 -9.5 c 128,-1,59
 280 9 280 9 180.5 9 c 128,-1,60
 81 9 81 9 -9 -10 c 1,61,-1
 -18 6 l 1,62,-1
 400 687 l 1,63,0
 359 687 359 687 280.5 698.5 c 128,-1,1
EndSplineSet
EndChar

StartChar: bracketleft
Encoding: 91 91 62
Width: 306
GlyphClass: 2
Flags: W
LayerCount: 2
Fore
SplineSet
306 700 m 1,0,-1
 306 684 l 1,1,-1
 190 684 l 1,2,-1
 190 -198 l 1,3,-1
 306 -198 l 1,4,-1
 306 -214 l 1,5,-1
 60 -214 l 1,6,-1
 60 700 l 1,7,-1
 306 700 l 1,0,-1
EndSplineSet
EndChar

StartChar: backslash
Encoding: 92 92 63
Width: 348
GlyphClass: 2
Flags: W
LayerCount: 2
Fore
SplineSet
29 700 m 1,0,-1
 315 -114 l 1,1,-1
 295 -121 l 1,2,-1
 10 694 l 1,3,-1
 29 700 l 1,0,-1
EndSplineSet
EndChar

StartChar: bracketright
Encoding: 93 93 64
Width: 306
GlyphClass: 2
Flags: W
LayerCount: 2
Fore
SplineSet
116 -198 m 1,0,-1
 116 684 l 1,1,-1
 0 684 l 1,2,-1
 0 700 l 1,3,-1
 246 700 l 1,4,-1
 246 -214 l 1,5,-1
 0 -214 l 1,6,-1
 0 -198 l 1,7,-1
 116 -198 l 1,0,-1
EndSplineSet
EndChar

StartChar: asciicircum
Encoding: 94 94 65
Width: 477
GlyphClass: 2
Flags: W
LayerCount: 2
Fore
SplineSet
431 148 m 1,0,-1
 415 139 l 1,1,-1
 258 436 l 1,2,-1
 101 139 l 1,3,-1
 86 149 l 1,4,-1
 252 469 l 1,5,-1
 263 469 l 1,6,-1
 431 148 l 1,0,-1
EndSplineSet
EndChar

StartChar: underscore
Encoding: 95 95 66
Width: 438
GlyphClass: 2
Flags: W
LayerCount: 2
Fore
SplineSet
468 -193 m 1,0,-1
 468 -214 l 1,1,-1
 -26 -214 l 1,2,-1
 -26 -193 l 1,3,-1
 468 -193 l 1,0,-1
EndSplineSet
EndChar

StartChar: grave
Encoding: 96 96 67
Width: 352
GlyphClass: 2
Flags: W
LayerCount: 2
Fore
SplineSet
30 611 m 1,0,-1
 35 629 l 1,1,-1
 333 547 l 1,2,-1
 328 530 l 1,3,-1
 30 611 l 1,0,-1
EndSplineSet
EndChar

StartChar: a
Encoding: 97 97 68
Width: 604
GlyphClass: 2
Flags: W
LayerCount: 2
Fore
SplineSet
337 160 m 2,0,-1
 337 253 l 1,1,2
 333 253 333 253 330 253 c 0,3,4
 283 253 283 253 251 227.5 c 128,-1,5
 219 202 219 202 219 146.5 c 128,-1,6
 219 91 219 91 235 65.5 c 128,-1,7
 251 40 251 40 278 40 c 128,-1,8
 305 40 305 40 321 78 c 128,-1,9
 337 116 337 116 337 160 c 2,0,-1
544 47 m 0,10,11
 582 47 582 47 593 147 c 1,12,-1
 611 145 l 1,13,14
 592 -10 592 -10 472 -10 c 0,15,16
 422 -10 422 -10 391 23.5 c 128,-1,17
 360 57 360 57 356 104 c 1,18,-1
 350 104 l 1,19,20
 336 50 336 50 303 20 c 128,-1,21
 270 -10 270 -10 198.5 -10 c 128,-1,22
 127 -10 127 -10 78.5 21.5 c 128,-1,23
 30 53 30 53 30 122 c 0,24,25
 30 271 30 271 337 271 c 1,26,-1
 337 304 l 2,27,28
 337 401 337 401 313 432 c 0,29,30
 302 446 302 446 280.5 457 c 128,-1,31
 259 468 259 468 229 468 c 0,32,33
 172 468 172 468 128.5 442 c 128,-1,34
 85 416 85 416 85 385 c 0,35,36
 85 376 85 376 94 376 c 0,37,38
 100 376 100 376 102 379.5 c 128,-1,39
 104 383 104 383 105 386.5 c 128,-1,40
 106 390 106 390 107 392.5 c 128,-1,41
 108 395 108 395 111.5 401 c 128,-1,42
 115 407 115 407 129 417 c 128,-1,43
 143 427 143 427 167 427 c 128,-1,44
 191 427 191 427 208.5 405.5 c 128,-1,45
 226 384 226 384 226 353 c 128,-1,46
 226 322 226 322 203 300.5 c 128,-1,47
 180 279 180 279 145 279 c 128,-1,48
 110 279 110 279 85.5 303.5 c 128,-1,49
 61 328 61 328 61 363 c 0,50,51
 61 421 61 421 114 454.5 c 128,-1,52
 167 488 167 488 266.5 488 c 128,-1,53
 366 488 366 488 425 462 c 128,-1,54
 484 436 484 436 505 388.5 c 128,-1,55
 526 341 526 341 526 258 c 2,56,-1
 526 88 l 2,57,58
 526 47 526 47 544 47 c 0,10,11
EndSplineSet
EndChar

StartChar: b
Encoding: 98 98 69
Width: 620
GlyphClass: 2
Flags: W
LayerCount: 2
Fore
SplineSet
264 61 m 1,0,-1
 264 9 l 1,1,-1
 13 9 l 1,2,-1
 13 25 l 1,3,-1
 75 25 l 1,4,-1
 75 684 l 1,5,-1
 4 684 l 1,6,-1
 4 700 l 1,7,-1
 64 700 l 2,8,9
 173 700 173 700 264 719 c 1,10,-1
 264 400 l 1,11,-1
 269 400 l 1,12,13
 288 448 288 448 321.5 468 c 128,-1,14
 355 488 355 488 409 488 c 0,15,16
 503 488 503 488 546.5 418.5 c 128,-1,17
 590 349 590 349 590 240 c 128,-1,18
 590 131 590 131 540.5 60.5 c 128,-1,19
 491 -10 491 -10 397.5 -10 c 128,-1,20
 304 -10 304 -10 269 61 c 1,21,-1
 264 61 l 1,0,-1
260 239 m 2,22,-1
 260 212 l 2,23,24
 260 124 260 124 283 75.5 c 128,-1,25
 306 27 306 27 336 27 c 0,26,27
 388 27 388 27 388 239 c 0,28,29
 388 345 388 345 377.5 394 c 128,-1,30
 367 443 367 443 336 443 c 0,31,32
 300 443 300 443 280 379.5 c 128,-1,33
 260 316 260 316 260 239 c 2,22,-1
EndSplineSet
EndChar

StartChar: c
Encoding: 99 99 70
Width: 492
GlyphClass: 2
Flags: W
LayerCount: 2
Fore
SplineSet
411 57 m 128,-1,1
 447 96 447 96 458 154 c 2,2,-1
 460 164 l 1,3,-1
 478 164 l 1,4,5
 469 87 469 87 418 38.5 c 128,-1,6
 367 -10 367 -10 292 -10 c 0,7,8
 170 -10 170 -10 100 55 c 128,-1,9
 30 120 30 120 30 238.5 c 128,-1,10
 30 357 30 357 101.5 422.5 c 128,-1,11
 173 488 173 488 294 488 c 0,12,13
 379 488 379 488 424.5 446 c 128,-1,14
 470 404 470 404 470 358 c 128,-1,15
 470 312 470 312 446.5 287 c 128,-1,16
 423 262 423 262 387 262 c 128,-1,17
 351 262 351 262 328.5 284 c 128,-1,18
 306 306 306 306 306 337.5 c 128,-1,19
 306 369 306 369 324.5 389.5 c 128,-1,20
 343 410 343 410 373 410 c 0,21,22
 415 410 415 410 428 370 c 0,23,24
 432 357 432 357 439 357 c 0,25,26
 448 357 448 357 448 367 c 0,27,28
 448 370 448 370 446 378 c 0,29,30
 418 460 418 460 327 460 c 0,31,32
 300 460 300 460 281 445.5 c 128,-1,33
 262 431 262 431 252.5 412 c 128,-1,34
 243 393 243 393 238 360 c 0,35,36
 232 319 232 319 232 258 c 128,-1,37
 232 197 232 197 233.5 166 c 128,-1,38
 235 135 235 135 240 104 c 128,-1,39
 245 73 245 73 255 56 c 0,40,41
 277 18 277 18 326 18 c 128,-1,0
 375 18 375 18 411 57 c 128,-1,1
EndSplineSet
EndChar

StartChar: d
Encoding: 100 100 71
Width: 621
GlyphClass: 2
Flags: W
LayerCount: 2
Fore
SplineSet
555 25 m 1,0,-1
 617 25 l 1,1,-1
 617 9 l 1,2,-1
 366 9 l 1,3,-1
 366 78 l 1,4,-1
 361 78 l 1,5,6
 342 30 342 30 308.5 10 c 128,-1,7
 275 -10 275 -10 221 -10 c 0,8,9
 133 -10 133 -10 86.5 61 c 128,-1,10
 40 132 40 132 40 239 c 0,11,12
 40 488 40 488 235 488 c 0,13,14
 326 488 326 488 361 417 c 1,15,-1
 366 417 l 1,16,-1
 366 684 l 1,17,-1
 295 684 l 1,18,-1
 295 700 l 1,19,-1
 355 700 l 2,20,21
 464 700 464 700 555 719 c 1,22,-1
 555 25 l 1,0,-1
370 239 m 2,23,-1
 370 266 l 2,24,25
 370 354 370 354 347 402.5 c 128,-1,26
 324 451 324 451 294 451 c 0,27,28
 266 451 266 451 254 400 c 128,-1,29
 242 349 242 349 242 244.5 c 128,-1,30
 242 140 242 140 252.5 87.5 c 128,-1,31
 263 35 263 35 294 35 c 0,32,33
 330 35 330 35 350 98.5 c 128,-1,34
 370 162 370 162 370 239 c 2,23,-1
EndSplineSet
EndChar

StartChar: e
Encoding: 101 101 72
Width: 536
GlyphClass: 2
Flags: W
LayerCount: 2
Fore
SplineSet
255.5 61 m 128,-1,1
 278 14 278 14 338.5 14 c 128,-1,2
 399 14 399 14 443.5 53 c 128,-1,3
 488 92 488 92 501 158 c 1,4,-1
 503 167 l 1,5,-1
 521 164 l 1,6,7
 507 82 507 82 452 36 c 128,-1,8
 397 -10 397 -10 309 -10 c 0,9,10
 176 -10 176 -10 103 53.5 c 128,-1,11
 30 117 30 117 30 236 c 128,-1,12
 30 355 30 355 100 421.5 c 128,-1,13
 170 488 170 488 290 488 c 0,14,15
 388 488 388 488 453.5 451.5 c 128,-1,16
 519 415 519 415 519 339 c 128,-1,17
 519 263 519 263 458 231 c 128,-1,18
 397 199 397 199 299 199 c 2,19,-1
 233 199 l 1,20,0
 233 108 233 108 255.5 61 c 128,-1,1
232 289 m 2,21,-1
 232 217 l 1,22,-1
 257 217 l 2,23,24
 302 217 302 217 319.5 247.5 c 128,-1,25
 337 278 337 278 337 337 c 0,26,27
 337 470 337 470 290 470 c 0,28,29
 259 470 259 470 245.5 434 c 128,-1,30
 232 398 232 398 232 289 c 2,21,-1
EndSplineSet
EndChar

StartChar: f
Encoding: 102 102 73
Width: 353
GlyphClass: 2
Flags: W
LayerCount: 2
Fore
SplineSet
293 608 m 2,0,1
 293 598 293 598 302 598 c 0,2,3
 313 598 313 598 313 618 c 0,4,5
 313 655 313 655 286.5 678 c 128,-1,6
 260 701 260 701 223 701 c 128,-1,7
 186 701 186 701 154.5 670.5 c 128,-1,8
 123 640 123 640 123 593 c 0,9,10
 123 469 123 469 287 469 c 2,11,-1
 336 469 l 1,12,-1
 336 453 l 1,13,-1
 261 453 l 1,14,-1
 261 25 l 1,15,-1
 336 25 l 1,16,-1
 336 9 l 1,17,-1
 10 9 l 1,18,-1
 10 25 l 1,19,-1
 72 25 l 1,20,-1
 72 453 l 1,21,-1
 10 453 l 1,22,-1
 10 469 l 1,23,-1
 72 469 l 1,24,-1
 72 523 l 2,25,26
 72 577 72 577 87.5 614.5 c 128,-1,27
 103 652 103 652 120 672 c 0,28,29
 159 719 159 719 226 719 c 0,30,31
 272 719 272 719 302 688 c 128,-1,32
 332 657 332 657 332 616.5 c 128,-1,33
 332 576 332 576 306.5 546.5 c 128,-1,34
 281 517 281 517 241.5 517 c 128,-1,35
 202 517 202 517 177.5 542 c 128,-1,36
 153 567 153 567 153 598.5 c 128,-1,37
 153 630 153 630 173.5 653 c 128,-1,38
 194 676 194 676 225 676 c 128,-1,39
 256 676 256 676 272.5 659.5 c 128,-1,40
 289 643 289 643 292 621 c 1,41,-1
 293 608 l 2,0,1
EndSplineSet
EndChar

StartChar: g
Encoding: 103 103 74
Width: 543
GlyphClass: 2
Flags: W
LayerCount: 2
Fore
SplineSet
44 292 m 0,0,1
 44 386 44 386 111 437 c 128,-1,2
 178 488 178 488 274 488 c 0,3,4
 305 488 305 488 335 482 c 1,5,6
 310 510 310 510 310 550 c 128,-1,7
 310 590 310 590 337.5 619 c 128,-1,8
 365 648 365 648 404.5 648 c 128,-1,9
 444 648 444 648 470 625 c 128,-1,10
 496 602 496 602 496 566 c 128,-1,11
 496 530 496 530 475 507.5 c 128,-1,12
 454 485 454 485 422.5 485 c 128,-1,13
 391 485 391 485 370.5 503.5 c 128,-1,14
 350 522 350 522 350 551 c 128,-1,15
 350 580 350 580 370 597 c 1,16,17
 385 604 385 604 385 613 c 128,-1,18
 385 622 385 622 376 622 c 0,19,20
 370 622 370 622 361 616 c 0,21,22
 328 591 328 591 328 549 c 0,23,24
 328 496 328 496 389 465 c 1,25,26
 504 415 504 415 504 292 c 0,27,28
 504 198 504 198 437 147 c 128,-1,29
 370 96 370 96 274 96 c 0,30,31
 208 96 208 96 156 119 c 1,32,33
 92 92 92 92 92 63 c 0,34,35
 92 43 92 43 108 36.5 c 128,-1,36
 124 30 124 30 163 30 c 128,-1,37
 202 30 202 30 287.5 50 c 128,-1,38
 373 70 373 70 400 70 c 0,39,40
 458 70 458 70 492 40 c 128,-1,41
 526 10 526 10 526 -39 c 0,42,43
 526 -116 526 -116 461 -170 c 128,-1,44
 396 -224 396 -224 305 -224 c 0,45,46
 197 -224 197 -224 129 -139 c 1,47,48
 80 -135 80 -135 50 -102 c 128,-1,49
 20 -69 20 -69 20 -22.5 c 128,-1,50
 20 24 20 24 50.5 65 c 128,-1,51
 81 106 81 106 136 130 c 1,52,53
 44 182 44 182 44 292 c 0,0,1
274 114 m 128,-1,55
 287 114 287 114 296.5 120.5 c 128,-1,56
 306 127 306 127 311.5 141.5 c 128,-1,57
 317 156 317 156 320.5 169.5 c 128,-1,58
 324 183 324 183 325 208 c 128,-1,59
 326 233 326 233 326.5 248 c 128,-1,60
 327 263 327 263 327 292 c 128,-1,61
 327 321 327 321 326.5 336 c 128,-1,62
 326 351 326 351 325 376 c 128,-1,63
 324 401 324 401 320.5 414.5 c 128,-1,64
 317 428 317 428 311.5 442.5 c 128,-1,65
 306 457 306 457 296.5 463.5 c 128,-1,66
 287 470 287 470 274 470 c 128,-1,67
 261 470 261 470 251.5 463.5 c 128,-1,68
 242 457 242 457 236.5 442.5 c 128,-1,69
 231 428 231 428 227.5 414.5 c 128,-1,70
 224 401 224 401 223 376 c 128,-1,71
 222 351 222 351 221.5 336 c 128,-1,72
 221 321 221 321 221 292 c 128,-1,73
 221 263 221 263 221.5 248 c 128,-1,74
 222 233 222 233 223 208 c 128,-1,75
 224 183 224 183 227.5 169.5 c 128,-1,76
 231 156 231 156 236.5 141.5 c 128,-1,77
 242 127 242 127 251.5 120.5 c 128,-1,54
 261 114 261 114 274 114 c 128,-1,55
394 -101 m 0,78,79
 366 -101 366 -101 276 -119 c 128,-1,80
 186 -137 186 -137 154 -139 c 1,81,82
 210 -206 210 -206 305 -206 c 0,83,84
 357 -206 357 -206 402.5 -185.5 c 128,-1,85
 448 -165 448 -165 448 -138 c 0,86,87
 448 -101 448 -101 394 -101 c 0,78,79
EndSplineSet
EndChar

StartChar: h
Encoding: 104 104 75
Width: 637
GlyphClass: 2
Flags: W
LayerCount: 2
Fore
SplineSet
81 684 m 1,0,-1
 10 684 l 1,1,-1
 10 700 l 1,2,-1
 70 700 l 2,3,4
 179 700 179 700 270 719 c 1,5,-1
 270 400 l 1,6,-1
 275 400 l 1,7,8
 294 448 294 448 327.5 468 c 128,-1,9
 361 488 361 488 415 488 c 0,10,11
 501 488 501 488 536 434.5 c 128,-1,12
 571 381 571 381 571 282 c 2,13,-1
 571 25 l 1,14,-1
 633 25 l 1,15,-1
 633 9 l 1,16,-1
 324 9 l 1,17,-1
 324 25 l 1,18,-1
 386 25 l 1,19,-1
 386 240 l 2,20,21
 386 343 386 343 377 390.5 c 128,-1,22
 368 438 368 438 337 438 c 0,23,24
 302 438 302 438 284 374.5 c 128,-1,25
 266 311 266 311 266 225 c 2,26,-1
 266 9 l 1,27,-1
 19 9 l 1,28,-1
 19 25 l 1,29,-1
 81 25 l 1,30,-1
 81 684 l 1,0,-1
EndSplineSet
EndChar

StartChar: i
Encoding: 105 105 76
Width: 332
GlyphClass: 2
Flags: W
LayerCount: 2
Fore
SplineSet
71 453 m 1,0,-1
 0 453 l 1,1,-1
 0 469 l 1,2,-1
 60 469 l 2,3,4
 169 469 169 469 260 488 c 1,5,-1
 260 25 l 1,6,-1
 322 25 l 1,7,-1
 322 9 l 1,8,-1
 9 9 l 1,9,-1
 9 25 l 1,10,-1
 71 25 l 1,11,-1
 71 453 l 1,0,-1
98.5 557.5 m 128,-1,13
 71 585 71 585 71 624.5 c 128,-1,14
 71 664 71 664 98.5 691.5 c 128,-1,15
 126 719 126 719 166 719 c 128,-1,16
 206 719 206 719 233 691.5 c 128,-1,17
 260 664 260 664 260 624.5 c 128,-1,18
 260 585 260 585 232.5 557.5 c 128,-1,19
 205 530 205 530 165.5 530 c 128,-1,12
 126 530 126 530 98.5 557.5 c 128,-1,13
EndSplineSet
EndChar

StartChar: j
Encoding: 106 106 77
Width: 346
GlyphClass: 2
Flags: W
LayerCount: 2
Fore
SplineSet
274 -10 m 2,0,1
 274 -91 274 -91 245 -152 c 0,2,3
 229 -185 229 -185 197 -204.5 c 128,-1,4
 165 -224 165 -224 120 -224 c 128,-1,5
 75 -224 75 -224 45 -195 c 128,-1,6
 15 -166 15 -166 15 -125.5 c 128,-1,7
 15 -85 15 -85 38.5 -58 c 128,-1,8
 62 -31 62 -31 99.5 -31 c 128,-1,9
 137 -31 137 -31 159.5 -53 c 128,-1,10
 182 -75 182 -75 182 -107.5 c 128,-1,11
 182 -140 182 -140 163 -161 c 128,-1,12
 144 -182 144 -182 114.5 -182 c 128,-1,13
 85 -182 85 -182 68 -162 c 1,14,15
 60 -147 60 -147 51.5 -147 c 128,-1,16
 43 -147 43 -147 43 -156 c 0,17,18
 43 -162 43 -162 49 -171 c 0,19,20
 75 -206 75 -206 120.5 -206 c 128,-1,21
 166 -206 166 -206 192.5 -174.5 c 128,-1,22
 219 -143 219 -143 219 -97 c 128,-1,23
 219 -51 219 -51 186.5 -19.5 c 128,-1,24
 154 12 154 12 101 12 c 0,25,26
 93 12 93 12 85 11 c 1,27,-1
 85 453 l 1,28,-1
 14 453 l 1,29,-1
 14 469 l 1,30,-1
 74 469 l 2,31,32
 183 469 183 469 274 488 c 1,33,-1
 274 -10 l 2,0,1
108.5 557.5 m 128,-1,35
 81 585 81 585 81 624.5 c 128,-1,36
 81 664 81 664 108.5 691.5 c 128,-1,37
 136 719 136 719 176 719 c 128,-1,38
 216 719 216 719 243 691.5 c 128,-1,39
 270 664 270 664 270 624.5 c 128,-1,40
 270 585 270 585 242.5 557.5 c 128,-1,41
 215 530 215 530 175.5 530 c 128,-1,34
 136 530 136 530 108.5 557.5 c 128,-1,35
EndSplineSet
EndChar

StartChar: k
Encoding: 107 107 78
Width: 614
GlyphClass: 2
Flags: W
LayerCount: 2
Fore
SplineSet
613 15 m 2,0,-1
 633 16 l 1,1,-1
 635 1 l 1,2,3
 527 -11 527 -11 498.5 -11 c 128,-1,4
 470 -11 470 -11 441.5 0.5 c 128,-1,5
 413 12 413 12 397.5 29.5 c 128,-1,6
 382 47 382 47 374 76 c 1,7,8
 361 117 361 117 361 195.5 c 128,-1,9
 361 274 361 274 316 276 c 1,10,11
 296 274 296 274 270 272 c 1,12,-1
 270 25 l 1,13,-1
 338 25 l 1,14,-1
 338 9 l 1,15,-1
 15 9 l 1,16,-1
 15 25 l 1,17,-1
 81 25 l 1,18,-1
 81 684 l 1,19,-1
 10 684 l 1,20,-1
 10 700 l 1,21,-1
 70 700 l 2,22,23
 179 700 179 700 270 719 c 1,24,-1
 270 291 l 1,25,26
 376 299 376 299 440.5 332.5 c 128,-1,27
 505 366 505 366 505 427 c 0,28,29
 505 471 505 471 473 495 c 0,30,31
 464 501 464 501 458 501 c 0,32,33
 449 501 449 501 449 492 c 0,34,35
 449 487 449 487 455.5 482 c 128,-1,36
 462 477 462 477 464 476 c 0,37,38
 484 459 484 459 484 431 c 128,-1,39
 484 403 484 403 464 385 c 128,-1,40
 444 367 444 367 412.5 367 c 128,-1,41
 381 367 381 367 359.5 389.5 c 128,-1,42
 338 412 338 412 338 448 c 128,-1,43
 338 484 338 484 364 506.5 c 128,-1,44
 390 529 390 529 429 529 c 128,-1,45
 468 529 468 529 495.5 499.5 c 128,-1,46
 523 470 523 470 523 426 c 0,47,48
 523 345 523 345 419 303 c 1,49,-1
 420 299 l 1,50,51
 478 299 478 299 516 269 c 0,52,53
 533 256 533 256 546 228 c 128,-1,54
 559 200 559 200 559 151 c 128,-1,55
 559 102 559 102 567 68 c 128,-1,56
 575 34 575 34 585.5 24.5 c 128,-1,57
 596 15 596 15 613 15 c 2,0,-1
EndSplineSet
EndChar

StartChar: l
Encoding: 108 108 79
Width: 348
GlyphClass: 2
Flags: W
LayerCount: 2
Fore
SplineSet
85 25 m 1,0,-1
 85 684 l 1,1,-1
 14 684 l 1,2,-1
 14 700 l 1,3,-1
 74 700 l 2,4,5
 183 700 183 700 274 719 c 1,6,-1
 274 25 l 1,7,-1
 338 25 l 1,8,-1
 338 9 l 1,9,-1
 23 9 l 1,10,-1
 23 25 l 1,11,-1
 85 25 l 1,0,-1
EndSplineSet
EndChar

StartChar: m
Encoding: 109 109 80
Width: 921
GlyphClass: 2
Flags: W
LayerCount: 2
Fore
SplineSet
699 488 m 0,0,1
 785 488 785 488 820 434.5 c 128,-1,2
 855 381 855 381 855 282 c 2,3,-1
 855 25 l 1,4,-1
 917 25 l 1,5,-1
 917 9 l 1,6,-1
 608 9 l 1,7,-1
 608 25 l 1,8,-1
 670 25 l 1,9,-1
 670 240 l 2,10,11
 670 342 670 342 661 388 c 128,-1,12
 652 434 652 434 621 434 c 0,13,14
 586 434 586 434 568 359.5 c 128,-1,15
 550 285 550 285 550 195 c 2,16,-1
 550 9 l 1,17,-1
 324 9 l 1,18,-1
 324 25 l 1,19,-1
 386 25 l 1,20,-1
 386 240 l 2,21,22
 386 342 386 342 377 388 c 128,-1,23
 368 434 368 434 337 434 c 0,24,25
 302 434 302 434 284 359.5 c 128,-1,26
 266 285 266 285 266 195 c 2,27,-1
 266 9 l 1,28,-1
 19 9 l 1,29,-1
 19 25 l 1,30,-1
 81 25 l 1,31,-1
 81 453 l 1,32,-1
 10 453 l 1,33,-1
 10 469 l 1,34,-1
 70 469 l 2,35,36
 179 469 179 469 270 488 c 1,37,-1
 270 390 l 1,38,-1
 275 390 l 1,39,40
 314 488 314 488 415.5 488 c 128,-1,41
 517 488 517 488 553 389 c 1,42,-1
 554 390 l 1,43,-1
 559 390 l 1,44,45
 598 488 598 488 699 488 c 0,0,1
EndSplineSet
EndChar

StartChar: n
Encoding: 110 110 81
Width: 637
GlyphClass: 2
Flags: W
LayerCount: 2
Fore
SplineSet
81 453 m 1,0,-1
 10 453 l 1,1,-1
 10 469 l 1,2,-1
 70 469 l 2,3,4
 179 469 179 469 270 488 c 1,5,-1
 270 390 l 1,6,-1
 275 390 l 1,7,8
 314 488 314 488 415 488 c 0,9,10
 501 488 501 488 536 434.5 c 128,-1,11
 571 381 571 381 571 282 c 2,12,-1
 571 25 l 1,13,-1
 633 25 l 1,14,-1
 633 9 l 1,15,-1
 324 9 l 1,16,-1
 324 25 l 1,17,-1
 386 25 l 1,18,-1
 386 240 l 2,19,20
 386 342 386 342 377 388 c 128,-1,21
 368 434 368 434 337 434 c 0,22,23
 302 434 302 434 284 359.5 c 128,-1,24
 266 285 266 285 266 195 c 2,25,-1
 266 9 l 1,26,-1
 19 9 l 1,27,-1
 19 25 l 1,28,-1
 81 25 l 1,29,-1
 81 453 l 1,0,-1
EndSplineSet
EndChar

StartChar: o
Encoding: 111 111 82
Width: 588
GlyphClass: 2
Flags: W
LayerCount: 2
Fore
SplineSet
294 -10 m 128,-1,1
 176 -10 176 -10 103 58.5 c 128,-1,2
 30 127 30 127 30 239 c 128,-1,3
 30 351 30 351 103 419.5 c 128,-1,4
 176 488 176 488 294 488 c 128,-1,5
 412 488 412 488 485 419.5 c 128,-1,6
 558 351 558 351 558 239 c 128,-1,7
 558 127 558 127 485 58.5 c 128,-1,0
 412 -10 412 -10 294 -10 c 128,-1,1
356 239 m 128,-1,9
 356 369 356 369 342.5 419.5 c 128,-1,10
 329 470 329 470 294 470 c 128,-1,11
 259 470 259 470 245.5 419.5 c 128,-1,12
 232 369 232 369 232 239 c 128,-1,13
 232 109 232 109 245.5 58.5 c 128,-1,14
 259 8 259 8 294 8 c 128,-1,15
 329 8 329 8 342.5 58.5 c 128,-1,8
 356 109 356 109 356 239 c 128,-1,9
EndSplineSet
EndChar

StartChar: p
Encoding: 112 112 83
Width: 632
GlyphClass: 2
Flags: W
LayerCount: 2
Fore
SplineSet
266 62 m 1,0,-1
 266 -189 l 1,1,-1
 341 -189 l 1,2,-1
 341 -205 l 1,3,-1
 15 -205 l 1,4,-1
 15 -189 l 1,5,-1
 77 -189 l 1,6,-1
 77 453 l 1,7,-1
 6 453 l 1,8,-1
 6 469 l 1,9,-1
 66 469 l 2,10,11
 175 469 175 469 266 488 c 1,12,-1
 266 400 l 1,13,-1
 271 400 l 1,14,15
 290 448 290 448 323.5 468 c 128,-1,16
 357 488 357 488 411 488 c 0,17,18
 505 488 505 488 548.5 419 c 128,-1,19
 592 350 592 350 592 241 c 128,-1,20
 592 132 592 132 542.5 61.5 c 128,-1,21
 493 -9 493 -9 399.5 -9 c 128,-1,22
 306 -9 306 -9 271 62 c 1,23,-1
 266 62 l 1,0,-1
262 240 m 2,24,-1
 262 213 l 2,25,26
 262 125 262 125 285 76.5 c 128,-1,27
 308 28 308 28 338 28 c 0,28,29
 390 28 390 28 390 240 c 0,30,31
 390 346 390 346 379.5 394.5 c 128,-1,32
 369 443 369 443 338 443 c 0,33,34
 302 443 302 443 282 380 c 128,-1,35
 262 317 262 317 262 240 c 2,24,-1
EndSplineSet
EndChar

StartChar: q
Encoding: 113 113 84
Width: 630
GlyphClass: 2
Flags: W
LayerCount: 2
Fore
SplineSet
366 417 m 1,0,-1
 366 488 l 1,1,2
 457 469 457 469 566 469 c 2,3,-1
 626 469 l 1,4,-1
 626 453 l 1,5,-1
 555 453 l 1,6,-1
 555 -189 l 1,7,-1
 617 -189 l 1,8,-1
 617 -205 l 1,9,-1
 291 -205 l 1,10,-1
 291 -189 l 1,11,-1
 366 -189 l 1,12,-1
 366 79 l 1,13,-1
 361 79 l 1,14,15
 342 31 342 31 308.5 11 c 128,-1,16
 275 -9 275 -9 221 -9 c 0,17,18
 132 -9 132 -9 86 61.5 c 128,-1,19
 40 132 40 132 40 239 c 0,20,21
 40 488 40 488 235 488 c 0,22,23
 326 488 326 488 361 417 c 1,24,-1
 366 417 l 1,0,-1
370 239 m 2,25,-1
 370 266 l 2,26,27
 370 354 370 354 347 402.5 c 128,-1,28
 324 451 324 451 294 451 c 0,29,30
 266 451 266 451 254 400 c 128,-1,31
 242 349 242 349 242 244.5 c 128,-1,32
 242 140 242 140 252.5 88 c 128,-1,33
 263 36 263 36 294 36 c 0,34,35
 330 36 330 36 350 99 c 128,-1,36
 370 162 370 162 370 239 c 2,25,-1
EndSplineSet
EndChar

StartChar: r
Encoding: 114 114 85
Width: 477
GlyphClass: 2
Flags: W
LayerCount: 2
Fore
SplineSet
270 407 m 1,0,-1
 275 407 l 1,1,2
 291 443 291 443 320 465.5 c 128,-1,3
 349 488 349 488 390.5 488 c 128,-1,4
 432 488 432 488 461.5 460.5 c 128,-1,5
 491 433 491 433 491 394 c 128,-1,6
 491 355 491 355 468 329 c 128,-1,7
 445 303 445 303 409 303 c 128,-1,8
 373 303 373 303 350.5 324 c 128,-1,9
 328 345 328 345 328 376.5 c 128,-1,10
 328 408 328 408 346.5 428.5 c 128,-1,11
 365 449 365 449 393 449 c 128,-1,12
 421 449 421 449 438 429 c 1,13,14
 446 414 446 414 454.5 414 c 128,-1,15
 463 414 463 414 463 423 c 0,16,17
 463 429 463 429 457 438 c 0,18,19
 433 470 433 470 389 470 c 0,20,21
 266 470 266 470 266 224 c 2,22,-1
 266 25 l 1,23,-1
 341 25 l 1,24,-1
 341 9 l 1,25,-1
 19 9 l 1,26,-1
 19 25 l 1,27,-1
 81 25 l 1,28,-1
 81 453 l 1,29,-1
 10 453 l 1,30,-1
 10 469 l 1,31,-1
 70 469 l 2,32,33
 179 469 179 469 270 488 c 1,34,-1
 270 407 l 1,0,-1
EndSplineSet
EndChar

StartChar: s
Encoding: 115 115 86
Width: 520
GlyphClass: 2
Flags: W
LayerCount: 2
Fore
SplineSet
385.5 456.5 m 128,-1,1
 355 467 355 467 311 467 c 128,-1,2
 267 467 267 467 238 447.5 c 128,-1,3
 209 428 209 428 209 396.5 c 128,-1,4
 209 365 209 365 238 341.5 c 128,-1,5
 267 318 267 318 308 299.5 c 128,-1,6
 349 281 349 281 390.5 259.5 c 128,-1,7
 432 238 432 238 461 205 c 128,-1,8
 490 172 490 172 490 130 c 0,9,10
 490 66 490 66 424.5 28 c 128,-1,11
 359 -10 359 -10 228 -10 c 0,12,13
 169 -10 169 -10 108 11 c 0,14,15
 77 22 77 22 57.5 45.5 c 128,-1,16
 38 69 38 69 38 104 c 128,-1,17
 38 139 38 139 61 164.5 c 128,-1,18
 84 190 84 190 120 190 c 128,-1,19
 156 190 156 190 178 169.5 c 128,-1,20
 200 149 200 149 200 117 c 128,-1,21
 200 85 200 85 181.5 65.5 c 128,-1,22
 163 46 163 46 136.5 46 c 128,-1,23
 110 46 110 46 91 65 c 0,24,25
 89 67 89 67 88 68.5 c 128,-1,26
 87 70 87 70 86 71 c 128,-1,27
 85 72 85 72 84 73 c 0,28,29
 80 75 80 75 77 75 c 0,30,31
 69 75 69 75 69 66 c 128,-1,32
 69 57 69 57 84.5 44 c 128,-1,33
 100 31 100 31 136 20 c 128,-1,34
 172 9 172 9 217.5 9 c 128,-1,35
 263 9 263 9 295.5 24.5 c 128,-1,36
 328 40 328 40 328 69.5 c 128,-1,37
 328 99 328 99 299 124.5 c 128,-1,38
 270 150 270 150 228.5 171.5 c 128,-1,39
 187 193 187 193 145 216 c 128,-1,40
 103 239 103 239 74 271.5 c 128,-1,41
 45 304 45 304 45 342 c 0,42,43
 45 405 45 405 103.5 446 c 128,-1,44
 162 487 162 487 286 487 c 0,45,46
 378 487 378 487 424 456.5 c 128,-1,47
 470 426 470 426 470 376 c 0,48,49
 470 339 470 339 447 313.5 c 128,-1,50
 424 288 424 288 388.5 288 c 128,-1,51
 353 288 353 288 331 309 c 128,-1,52
 309 330 309 330 309 361.5 c 128,-1,53
 309 393 309 393 327 413 c 128,-1,54
 345 433 345 433 372.5 433 c 128,-1,55
 400 433 400 433 412.5 418.5 c 128,-1,56
 425 404 425 404 431 404 c 0,57,58
 440 404 440 404 440 413 c 128,-1,59
 440 422 440 422 428 434 c 128,-1,0
 416 446 416 446 385.5 456.5 c 128,-1,1
EndSplineSet
EndChar

StartChar: t
Encoding: 116 116 87
Width: 368
GlyphClass: 2
Flags: W
LayerCount: 2
Fore
SplineSet
279 47 m 0,0,1
 317 47 317 47 328 147 c 1,2,-1
 346 145 l 1,3,4
 337 71 337 71 304 30.5 c 128,-1,5
 271 -10 271 -10 206 -10 c 0,6,7
 72 -10 72 -10 72 136 c 2,8,-1
 72 453 l 1,9,-1
 20 453 l 1,10,-1
 20 469 l 1,11,-1
 27 469 l 2,12,13
 74 469 74 469 144 505 c 0,14,15
 179 523 179 523 208 559 c 128,-1,16
 237 595 237 595 248 641 c 1,17,-1
 261 641 l 1,18,-1
 261 469 l 1,19,-1
 354 469 l 1,20,-1
 354 453 l 1,21,-1
 261 453 l 1,22,-1
 261 88 l 2,23,24
 261 47 261 47 279 47 c 0,0,1
EndSplineSet
EndChar

StartChar: u
Encoding: 117 117 88
Width: 637
GlyphClass: 2
Flags: W
LayerCount: 2
Fore
SplineSet
565 25 m 1,0,-1
 627 25 l 1,1,-1
 627 9 l 1,2,-1
 376 9 l 1,3,-1
 376 87 l 1,4,-1
 371 87 l 1,5,6
 332 -11 332 -11 231 -11 c 0,7,8
 145 -11 145 -11 110 42.5 c 128,-1,9
 75 96 75 96 75 195 c 2,10,-1
 75 453 l 1,11,-1
 4 453 l 1,12,-1
 4 469 l 1,13,-1
 64 469 l 2,14,15
 169 469 169 469 260 488 c 1,16,-1
 260 237 l 2,17,18
 260 136 260 136 269 91.5 c 128,-1,19
 278 47 278 47 309 47 c 0,20,21
 344 47 344 47 362 115.5 c 128,-1,22
 380 184 380 184 380 272 c 2,23,-1
 380 452 l 1,24,-1
 309 452 l 1,25,-1
 309 469 l 1,26,-1
 369 469 l 2,27,28
 474 469 474 469 565 488 c 1,29,-1
 565 25 l 1,0,-1
EndSplineSet
EndChar

StartChar: v
Encoding: 118 118 89
Width: 509
GlyphClass: 2
Flags: W
LayerCount: 2
Fore
SplineSet
272 -10 m 0,0,1
 210 -10 210 -10 163.5 23 c 128,-1,2
 117 56 117 56 91 114 c 0,3,4
 40 228 40 228 40 398 c 2,5,-1
 40 453 l 1,6,-1
 -31 453 l 1,7,-1
 -31 469 l 1,8,-1
 29 469 l 2,9,10
 143 469 143 469 234 488 c 1,11,-1
 234 444 l 2,12,13
 234 264 234 264 266 168 c 128,-1,14
 298 72 298 72 353 72 c 0,15,16
 402 72 402 72 437 151 c 128,-1,17
 472 230 472 230 472 302 c 128,-1,18
 472 374 472 374 451 415 c 128,-1,19
 430 456 430 456 396 466 c 0,20,21
 388 468 388 468 385 468 c 0,22,23
 375 468 375 468 375 459 c 0,24,25
 375 452 375 452 388 448 c 0,26,27
 428 435 428 435 428 391 c 0,28,29
 428 361 428 361 407.5 342.5 c 128,-1,30
 387 324 387 324 355.5 324 c 128,-1,31
 324 324 324 324 302 346.5 c 128,-1,32
 280 369 280 369 280 405 c 128,-1,33
 280 441 280 441 305 464.5 c 128,-1,34
 330 488 330 488 376 488 c 128,-1,35
 422 488 422 488 456.5 442.5 c 128,-1,36
 491 397 491 397 491 310 c 0,37,38
 491 190 491 190 429.5 90 c 128,-1,39
 368 -10 368 -10 272 -10 c 0,0,1
EndSplineSet
EndChar

StartChar: w
Encoding: 119 119 90
Width: 842
GlyphClass: 2
Flags: W
LayerCount: 2
Fore
SplineSet
606 -10 m 0,0,1
 494 -10 494 -10 434 97 c 1,2,3
 369 -10 369 -10 272 -10 c 0,4,5
 210 -10 210 -10 163.5 23 c 128,-1,6
 117 56 117 56 91 114 c 0,7,8
 40 228 40 228 40 398 c 2,9,-1
 40 453 l 1,10,-1
 -31 453 l 1,11,-1
 -31 469 l 1,12,-1
 29 469 l 2,13,14
 143 469 143 469 234 488 c 1,15,-1
 234 444 l 2,16,17
 234 264 234 264 266 168 c 128,-1,18
 298 72 298 72 353 72 c 0,19,20
 390 72 390 72 421 122 c 1,21,22
 374 227 374 227 374 398 c 2,23,-1
 374 453 l 1,24,-1
 303 453 l 1,25,-1
 303 469 l 1,26,-1
 363 469 l 2,27,28
 477 469 477 469 568 488 c 1,29,-1
 568 444 l 2,30,31
 568 264 568 264 600 168 c 128,-1,32
 632 72 632 72 687 72 c 0,33,34
 736 72 736 72 771 151 c 128,-1,35
 806 230 806 230 806 302 c 128,-1,36
 806 374 806 374 785 415 c 128,-1,37
 764 456 764 456 730 466 c 0,38,39
 722 468 722 468 719 468 c 0,40,41
 709 468 709 468 709 459 c 0,42,43
 709 452 709 452 722 448 c 0,44,45
 762 435 762 435 762 391 c 0,46,47
 762 361 762 361 741.5 342.5 c 128,-1,48
 721 324 721 324 689.5 324 c 128,-1,49
 658 324 658 324 636 346.5 c 128,-1,50
 614 369 614 369 614 405 c 128,-1,51
 614 441 614 441 639 464.5 c 128,-1,52
 664 488 664 488 710 488 c 128,-1,53
 756 488 756 488 790.5 442.5 c 128,-1,54
 825 397 825 397 825 310 c 0,55,56
 825 190 825 190 763.5 90 c 128,-1,57
 702 -10 702 -10 606 -10 c 0,0,1
EndSplineSet
EndChar

StartChar: x
Encoding: 120 120 91
Width: 589
GlyphClass: 2
Flags: W
LayerCount: 2
Fore
SplineSet
350 370 m 1,0,-1
 429 202 l 1,1,2
 484 82 484 82 500 70 c 0,3,4
 508 63 508 63 518 63 c 128,-1,5
 528 63 528 63 538 73.5 c 128,-1,6
 548 84 548 84 553 94 c 2,7,-1
 558 104 l 1,8,-1
 575 100 l 1,9,10
 559 58 559 58 516 24 c 128,-1,11
 473 -10 473 -10 415 -10 c 128,-1,12
 357 -10 357 -10 326.5 17.5 c 128,-1,13
 296 45 296 45 263 115 c 1,14,-1
 254 132 l 1,15,16
 198 -10 198 -10 107 -10 c 0,17,18
 63 -10 63 -10 36.5 15.5 c 128,-1,19
 10 41 10 41 10 78 c 128,-1,20
 10 115 10 115 31.5 140.5 c 128,-1,21
 53 166 53 166 89.5 166 c 128,-1,22
 126 166 126 166 146.5 144 c 128,-1,23
 167 122 167 122 167 95 c 128,-1,24
 167 68 167 68 149.5 48.5 c 128,-1,25
 132 29 132 29 101 27 c 0,26,27
 89 27 89 27 89 17.5 c 128,-1,28
 89 8 89 8 107 8 c 0,29,30
 167 8 167 8 211 84 c 0,31,32
 225 107 225 107 244 155 c 1,33,-1
 181 290 l 2,34,35
 141 375 141 375 127.5 396.5 c 128,-1,36
 114 418 114 418 99 418 c 128,-1,37
 84 418 84 418 72 407 c 128,-1,38
 60 396 60 396 54 385 c 2,39,-1
 49 374 l 1,40,-1
 31 377 l 1,41,42
 49 421 49 421 89 454.5 c 128,-1,43
 129 488 129 488 185.5 488 c 128,-1,44
 242 488 242 488 277 465 c 128,-1,45
 312 442 312 442 340 390 c 1,46,47
 361 433 361 433 394 460.5 c 128,-1,48
 427 488 427 488 468 488 c 128,-1,49
 509 488 509 488 535.5 462.5 c 128,-1,50
 562 437 562 437 562 400 c 128,-1,51
 562 363 562 363 540.5 337.5 c 128,-1,52
 519 312 519 312 482.5 312 c 128,-1,53
 446 312 446 312 425.5 334 c 128,-1,54
 405 356 405 356 405 383 c 128,-1,55
 405 410 405 410 422.5 429.5 c 128,-1,56
 440 449 440 449 471 451 c 0,57,58
 483 451 483 451 483 460.5 c 128,-1,59
 483 470 483 470 458 470 c 128,-1,60
 433 470 433 470 401 441.5 c 128,-1,61
 369 413 369 413 350 370 c 1,0,-1
EndSplineSet
EndChar

StartChar: y
Encoding: 121 121 92
Width: 518
GlyphClass: 2
Flags: W
LayerCount: 2
Fore
SplineSet
386 488 m 0,0,1
 444 488 444 488 473.5 445.5 c 128,-1,2
 503 403 503 403 503 339 c 0,3,4
 503 188 503 188 401 101 c 0,5,6
 382 85 382 85 340.5 56.5 c 128,-1,7
 299 28 299 28 271.5 8 c 128,-1,8
 244 -12 244 -12 221 -45 c 128,-1,9
 198 -78 198 -78 198 -113 c 0,10,11
 198 -172 198 -172 246 -199 c 0,12,13
 252 -203 252 -203 257 -203 c 0,14,15
 266 -203 266 -203 266 -194 c 0,16,17
 266 -189 266 -189 258 -184 c 0,18,19
 227 -164 227 -164 227 -133 c 128,-1,20
 227 -102 227 -102 246 -81.5 c 128,-1,21
 265 -61 265 -61 296.5 -61 c 128,-1,22
 328 -61 328 -61 351 -83 c 128,-1,23
 374 -105 374 -105 374 -142 c 128,-1,24
 374 -179 374 -179 349 -202.5 c 128,-1,25
 324 -226 324 -226 283 -226 c 128,-1,26
 242 -226 242 -226 211 -195.5 c 128,-1,27
 180 -165 180 -165 180 -117.5 c 128,-1,28
 180 -70 180 -70 202.5 -38 c 128,-1,29
 225 -6 225 -6 265 26 c 1,30,31
 142 66 142 66 99.5 162.5 c 128,-1,32
 57 259 57 259 57 437 c 2,33,-1
 57 453 l 1,34,-1
 -15 453 l 1,35,-1
 -15 469 l 1,36,-1
 45 469 l 2,37,38
 162 469 162 469 253 488 c 1,39,40
 251 442 251 442 251 385.5 c 128,-1,41
 251 329 251 329 262.5 270.5 c 128,-1,42
 274 212 274 212 292 180 c 0,43,44
 327 117 327 117 362 117 c 0,45,46
 418 117 418 117 462 215 c 0,47,48
 485 267 485 267 485 341 c 128,-1,49
 485 415 485 415 445 449 c 1,50,51
 428 466 428 466 415.5 466 c 128,-1,52
 403 466 403 466 403 457 c 0,53,54
 403 451 403 451 412 447 c 0,55,56
 446 431 446 431 446 398 c 128,-1,57
 446 365 446 365 425.5 345.5 c 128,-1,58
 405 326 405 326 374 326 c 128,-1,59
 343 326 343 326 321.5 348.5 c 128,-1,60
 300 371 300 371 300 406 c 128,-1,61
 300 441 300 441 324.5 464.5 c 128,-1,62
 349 488 349 488 386 488 c 0,0,1
EndSplineSet
EndChar

StartChar: z
Encoding: 122 122 93
Width: 538
GlyphClass: 2
Flags: W
LayerCount: 2
Fore
SplineSet
380 8 m 0,0,1
 468 8 468 8 498 62 c 0,2,3
 501 66 501 66 501 74 c 128,-1,4
 501 82 501 82 492 82 c 0,5,6
 487 82 487 82 484.5 77.5 c 128,-1,7
 482 73 482 73 479 68.5 c 128,-1,8
 476 64 476 64 474.5 62 c 128,-1,9
 473 60 473 60 469.5 56 c 128,-1,10
 466 52 466 52 462.5 50 c 128,-1,11
 459 48 459 48 454 46 c 0,12,13
 445 41 445 41 422 41 c 128,-1,14
 399 41 399 41 381 62.5 c 128,-1,15
 363 84 363 84 363 115 c 128,-1,16
 363 146 363 146 386 167.5 c 128,-1,17
 409 189 409 189 444 189 c 128,-1,18
 479 189 479 189 503.5 164.5 c 128,-1,19
 528 140 528 140 528 105 c 0,20,21
 528 53 528 53 488 21.5 c 128,-1,22
 448 -10 448 -10 380 -10 c 0,23,24
 359 -10 359 -10 278.5 0.5 c 128,-1,25
 198 11 198 11 144.5 11 c 128,-1,26
 91 11 91 11 29 0 c 1,27,-1
 29 14 l 1,28,-1
 306 456 l 1,29,30
 189 470 189 470 180 470 c 0,31,32
 92 470 92 470 62 416 c 0,33,34
 59 412 59 412 59 404 c 128,-1,35
 59 396 59 396 68 396 c 0,36,37
 73 396 73 396 75.5 400.5 c 128,-1,38
 78 405 78 405 81 409.5 c 128,-1,39
 84 414 84 414 85.5 416 c 128,-1,40
 87 418 87 418 90.5 422 c 128,-1,41
 94 426 94 426 97.5 428 c 128,-1,42
 101 430 101 430 106 432 c 0,43,44
 115 437 115 437 138 437 c 128,-1,45
 161 437 161 437 179 415.5 c 128,-1,46
 197 394 197 394 197 362.5 c 128,-1,47
 197 331 197 331 174.5 310 c 128,-1,48
 152 289 152 289 116.5 289 c 128,-1,49
 81 289 81 289 56.5 313.5 c 128,-1,50
 32 338 32 338 32 373 c 0,51,52
 32 425 32 425 72 456.5 c 128,-1,53
 112 488 112 488 180 488 c 0,54,55
 201 488 201 488 281 477.5 c 128,-1,56
 361 467 361 467 417.5 467 c 128,-1,57
 474 467 474 467 510 473 c 1,58,-1
 510 459 l 1,59,-1
 237 24 l 1,60,61
 370 8 370 8 380 8 c 0,0,1
EndSplineSet
EndChar

StartChar: braceleft
Encoding: 123 123 94
Width: 252
GlyphClass: 2
Flags: W
LayerCount: 2
Fore
SplineSet
158.5 214 m 128,-1,1
 171 192 171 192 171 158.5 c 128,-1,2
 171 125 171 125 148 62 c 128,-1,3
 125 -1 125 -1 125 -45 c 0,4,5
 125 -166 125 -166 202 -184 c 0,6,7
 222 -189 222 -189 252 -189 c 1,8,-1
 252 -205 l 1,9,10
 138 -205 138 -205 67.5 -156 c 128,-1,11
 -3 -107 -3 -107 -3 -12 c 0,12,13
 -3 32 -3 32 19.5 65 c 128,-1,14
 42 98 42 98 68 114 c 0,15,16
 140 157 140 157 140 191 c 0,17,18
 140 239 140 239 65 239 c 1,19,-1
 65 254 l 1,20,21
 140 254 140 254 140 304 c 0,22,23
 140 338 140 338 68 381 c 0,24,25
 42 397 42 397 19.5 430 c 128,-1,26
 -3 463 -3 463 -3 507 c 0,27,28
 -3 602 -3 602 67.5 651 c 128,-1,29
 138 700 138 700 252 700 c 1,30,-1
 252 684 l 1,31,32
 222 684 222 684 202 679 c 0,33,34
 125 661 125 661 125 540 c 0,35,36
 125 496 125 496 148 433 c 128,-1,37
 171 370 171 370 171 336.5 c 128,-1,38
 171 303 171 303 158 280 c 128,-1,39
 145 257 145 257 110 247 c 1,40,0
 146 236 146 236 158.5 214 c 128,-1,1
EndSplineSet
EndChar

StartChar: bar
Encoding: 124 124 95
Width: 362
GlyphClass: 2
Flags: W
LayerCount: 2
Fore
SplineSet
192 719 m 1,0,-1
 192 -205 l 1,1,-1
 170 -205 l 1,2,-1
 170 719 l 1,3,-1
 192 719 l 1,0,-1
EndSplineSet
EndChar

StartChar: braceright
Encoding: 125 125 96
Width: 255
GlyphClass: 2
Flags: W
LayerCount: 2
Fore
SplineSet
93.5 281 m 128,-1,1
 81 303 81 303 81 336.5 c 128,-1,2
 81 370 81 370 104 433 c 128,-1,3
 127 496 127 496 127 540 c 0,4,5
 127 661 127 661 50 679 c 0,6,7
 30 684 30 684 0 684 c 1,8,-1
 0 700 l 1,9,10
 114 700 114 700 184.5 651 c 128,-1,11
 255 602 255 602 255 507 c 0,12,13
 255 463 255 463 232.5 430 c 128,-1,14
 210 397 210 397 184 381 c 0,15,16
 112 338 112 338 112 304 c 0,17,18
 112 255 112 255 187 255 c 1,19,-1
 187 242 l 1,20,21
 112 242 112 242 112 191 c 0,22,23
 112 157 112 157 184 114 c 0,24,25
 210 98 210 98 232.5 65 c 128,-1,26
 255 32 255 32 255 -12 c 0,27,28
 255 -107 255 -107 184.5 -156 c 128,-1,29
 114 -205 114 -205 0 -205 c 1,30,-1
 0 -189 l 1,31,32
 30 -189 30 -189 50 -184 c 0,33,34
 127 -166 127 -166 127 -45 c 0,35,36
 127 -1 127 -1 104 62 c 128,-1,37
 81 125 81 125 81 158.5 c 128,-1,38
 81 192 81 192 94 215 c 128,-1,39
 107 238 107 238 142 248 c 1,40,0
 106 259 106 259 93.5 281 c 128,-1,1
EndSplineSet
EndChar

StartChar: asciitilde
Encoding: 126 126 97
Width: 586
GlyphClass: 2
Flags: W
LayerCount: 2
Fore
SplineSet
468 239.5 m 128,-1,1
 442 230 442 230 404.5 230 c 128,-1,2
 367 230 367 230 293.5 252 c 128,-1,3
 220 274 220 274 189 274 c 0,4,5
 127 274 127 274 60 227 c 1,6,-1
 52 243 l 1,7,8
 127 292 127 292 191 292 c 0,9,10
 229 292 229 292 298.5 270 c 128,-1,11
 368 248 368 248 406 248 c 0,12,13
 468 248 468 248 520 290 c 1,14,-1
 532 276 l 1,15,0
 494 249 494 249 468 239.5 c 128,-1,1
EndSplineSet
EndChar

StartChar: exclamdown
Encoding: 161 161 100
Width: 282
GlyphClass: 2
Flags: W
LayerCount: 2
Fore
SplineSet
133 254 m 1,0,-1
 151 254 l 1,1,2
 151 174 151 174 167 112.5 c 128,-1,3
 183 51 183 51 202 20 c 0,4,5
 253 -63 253 -63 253 -118.5 c 128,-1,6
 253 -174 253 -174 224.5 -207.5 c 128,-1,7
 196 -241 196 -241 142 -241 c 128,-1,8
 88 -241 88 -241 59.5 -207.5 c 128,-1,9
 31 -174 31 -174 31 -130.5 c 128,-1,10
 31 -87 31 -87 47 -49 c 128,-1,11
 63 -11 63 -11 82 20 c 128,-1,12
 101 51 101 51 117 112.5 c 128,-1,13
 133 174 133 174 133 254 c 1,0,-1
46 393 m 128,-1,15
 46 433 46 433 73.5 460.5 c 128,-1,16
 101 488 101 488 141 488 c 128,-1,17
 181 488 181 488 208.5 460.5 c 128,-1,18
 236 433 236 433 236 393 c 128,-1,19
 236 353 236 353 208.5 325.5 c 128,-1,20
 181 298 181 298 141 298 c 128,-1,21
 101 298 101 298 73.5 325.5 c 128,-1,14
 46 353 46 353 46 393 c 128,-1,15
EndSplineSet
EndChar

StartChar: cent
Encoding: 162 162 101
Width: 530
GlyphClass: 2
Flags: W
LayerCount: 2
Fore
SplineSet
301 -62 m 1,0,-1
 281 -62 l 1,1,-1
 281 19 l 1,2,3
 164 24 164 24 100.5 88.5 c 128,-1,4
 37 153 37 153 37 248.5 c 128,-1,5
 37 344 37 344 100 408.5 c 128,-1,6
 163 473 163 473 281 478 c 1,7,-1
 281 570 l 1,8,-1
 301 570 l 1,9,-1
 301 479 l 1,10,11
 386 479 386 479 431.5 437 c 128,-1,12
 477 395 477 395 477 349 c 128,-1,13
 477 303 477 303 453.5 278 c 128,-1,14
 430 253 430 253 394 253 c 128,-1,15
 358 253 358 253 335.5 275 c 128,-1,16
 313 297 313 297 313 328.5 c 128,-1,17
 313 360 313 360 331.5 380.5 c 128,-1,18
 350 401 350 401 380 401 c 0,19,20
 422 401 422 401 435 361 c 0,21,22
 439 348 439 348 446 348 c 0,23,24
 455 348 455 348 455 358 c 0,25,26
 455 361 455 361 453 369 c 0,27,28
 425 451 425 451 334 451 c 0,29,30
 282 451 282 451 258.5 404.5 c 128,-1,31
 235 358 235 358 235 252 c 0,32,33
 235 47 235 47 329 47 c 0,34,35
 382 47 382 47 418 86 c 128,-1,36
 454 125 454 125 465 183 c 2,37,-1
 467 193 l 1,38,-1
 485 193 l 1,39,40
 476 116 476 116 425.5 68 c 128,-1,41
 375 20 375 20 301 19 c 1,42,-1
 301 -62 l 1,0,-1
EndSplineSet
EndChar

StartChar: sterling
Encoding: 163 163 102
Width: 509
GlyphClass: 2
Flags: W
LayerCount: 2
Fore
SplineSet
397 253 m 1,0,-1
 397 232 l 1,1,-1
 292 232 l 1,2,3
 302 197 302 197 302 170.5 c 128,-1,4
 302 144 302 144 295 118 c 1,5,6
 343 102 343 102 378 102 c 128,-1,7
 413 102 413 102 435 114 c 128,-1,8
 457 126 457 126 460 162 c 1,9,-1
 478 162 l 1,10,11
 478 153 478 153 478 133.5 c 128,-1,12
 478 114 478 114 472 82 c 128,-1,13
 466 50 466 50 440 20 c 128,-1,14
 414 -10 414 -10 372 -10 c 0,15,16
 314 -10 314 -10 245 42 c 1,17,18
 197 1 197 1 125 1 c 0,19,20
 88 1 88 1 54 22.5 c 128,-1,21
 20 44 20 44 20 80 c 128,-1,22
 20 116 20 116 52.5 140 c 128,-1,23
 85 164 85 164 124 164 c 128,-1,24
 163 164 163 164 202 151 c 1,25,26
 188 176 188 176 134 232 c 1,27,-1
 42 232 l 1,28,-1
 42 253 l 1,29,-1
 114 253 l 1,30,31
 60 309 60 309 60 356 c 0,32,33
 60 431 60 431 128 469.5 c 128,-1,34
 196 508 196 508 290.5 508 c 128,-1,35
 385 508 385 508 429.5 475 c 128,-1,36
 474 442 474 442 474 397.5 c 128,-1,37
 474 353 474 353 450.5 328 c 128,-1,38
 427 303 427 303 391 303 c 128,-1,39
 355 303 355 303 332.5 325 c 128,-1,40
 310 347 310 347 310 378.5 c 128,-1,41
 310 410 310 410 328.5 430.5 c 128,-1,42
 347 451 347 451 377 451 c 0,43,44
 419 451 419 451 432 411 c 0,45,46
 436 398 436 398 443 398 c 0,47,48
 452 398 452 398 452 408 c 0,49,50
 452 411 452 411 450 419 c 0,51,52
 439 450 439 450 408 465.5 c 128,-1,53
 377 481 377 481 338 481 c 0,54,55
 255 481 255 481 255 386 c 0,56,57
 255 343 255 343 279 274 c 0,58,59
 284 259 284 259 286 253 c 1,60,-1
 397 253 l 1,0,-1
124 19 m 0,61,62
 200 19 200 19 215 64 c 1,63,64
 153 113 153 113 104 113 c 0,65,66
 76 113 76 113 61 100.5 c 128,-1,67
 46 88 46 88 46 69.5 c 128,-1,68
 46 51 46 51 69 35 c 128,-1,69
 92 19 92 19 124 19 c 0,61,62
EndSplineSet
EndChar

StartChar: currency
Encoding: 164 164 103
Width: 614
GlyphClass: 2
Flags: W
LayerCount: 2
Fore
SplineSet
307 454 m 128,-1,1
 381 454 381 454 433 411 c 1,2,-1
 514 489 l 1,3,-1
 564 443 l 1,4,-1
 475 368 l 1,5,6
 512 310 512 310 512 236 c 128,-1,7
 512 162 512 162 472 113 c 1,8,-1
 561 34 l 1,9,-1
 510 -11 l 1,10,-1
 431 70 l 1,11,12
 381 23 381 23 307 23 c 128,-1,13
 233 23 233 23 183 70 c 1,14,-1
 104 -11 l 1,15,-1
 53 34 l 1,16,-1
 142 113 l 1,17,18
 102 162 102 162 102 236 c 128,-1,19
 102 310 102 310 139 368 c 1,20,-1
 50 443 l 1,21,-1
 100 489 l 1,22,-1
 181 411 l 1,23,0
 233 454 233 454 307 454 c 128,-1,1
307 86 m 128,-1,25
 360 86 360 86 360 238.5 c 128,-1,26
 360 391 360 391 307 391 c 128,-1,27
 254 391 254 391 254 238.5 c 128,-1,24
 254 86 254 86 307 86 c 128,-1,25
EndSplineSet
EndChar

StartChar: yen
Encoding: 165 165 104
Width: 548
GlyphClass: 2
Flags: W
LayerCount: 2
Fore
SplineSet
81 194 m 1,0,-1
 81 210 l 1,1,-1
 174 210 l 1,2,-1
 51 472 l 1,3,-1
 10 472 l 1,4,-1
 10 488 l 1,5,-1
 303 488 l 1,6,-1
 303 472 l 1,7,-1
 249 472 l 1,8,-1
 355 243 l 1,9,-1
 418 388 l 2,10,11
 430 415 430 415 430 434 c 0,12,13
 430 472 430 472 363 472 c 2,14,-1
 345 472 l 1,15,-1
 345 488 l 1,16,-1
 538 488 l 1,17,-1
 538 472 l 1,18,19
 473 472 473 472 455 431 c 2,20,-1
 363 221 l 1,21,-1
 363 210 l 1,22,-1
 464 210 l 1,23,-1
 464 194 l 1,24,-1
 363 194 l 1,25,-1
 363 150 l 1,26,-1
 464 150 l 1,27,-1
 464 134 l 1,28,-1
 363 134 l 1,29,-1
 363 25 l 1,30,-1
 415 25 l 1,31,-1
 415 9 l 1,32,-1
 122 9 l 1,33,-1
 122 25 l 1,34,-1
 174 25 l 1,35,-1
 174 134 l 1,36,-1
 81 134 l 1,37,-1
 81 150 l 1,38,-1
 174 150 l 1,39,-1
 174 194 l 1,40,-1
 81 194 l 1,0,-1
EndSplineSet
EndChar

StartChar: brokenbar
Encoding: 166 166 105
Width: 221
GlyphClass: 2
Flags: W
LayerCount: 2
Fore
SplineSet
122 -120 m 1,0,-1
 100 -120 l 1,1,-1
 100 232 l 1,2,-1
 122 232 l 1,3,-1
 122 -120 l 1,0,-1
122 367 m 1,4,-1
 100 367 l 1,5,-1
 100 719 l 1,6,-1
 122 719 l 1,7,-1
 122 367 l 1,4,-1
EndSplineSet
EndChar

StartChar: section
Encoding: 167 167 106
Width: 631
GlyphClass: 2
Flags: W
LayerCount: 2
Fore
SplineSet
348 719 m 0,0,1
 447 719 447 719 495 677.5 c 128,-1,2
 543 636 543 636 543 582 c 0,3,4
 543 545 543 545 518.5 519.5 c 128,-1,5
 494 494 494 494 455.5 494 c 128,-1,6
 417 494 417 494 393.5 516.5 c 128,-1,7
 370 539 370 539 370 571.5 c 128,-1,8
 370 604 370 604 390.5 626 c 128,-1,9
 411 648 411 648 441.5 648 c 128,-1,10
 472 648 472 648 488 631 c 256,11,12
 504 614 504 614 507 585 c 1,13,14
 509 577 509 577 517 577 c 128,-1,15
 525 577 525 577 525 585.5 c 128,-1,16
 525 594 525 594 522.5 604.5 c 128,-1,17
 520 615 520 615 510 632.5 c 128,-1,18
 500 650 500 650 483.5 664.5 c 128,-1,19
 467 679 467 679 435 689.5 c 128,-1,20
 403 700 403 700 354 700 c 128,-1,21
 305 700 305 700 265.5 676.5 c 128,-1,22
 226 653 226 653 226 604 c 0,23,24
 226 571 226 571 252.5 541 c 128,-1,25
 279 511 279 511 319 489 c 128,-1,26
 359 467 359 467 406 440 c 128,-1,27
 453 413 453 413 493 388 c 128,-1,28
 533 363 533 363 559.5 325.5 c 128,-1,29
 586 288 586 288 586 241 c 128,-1,30
 586 194 586 194 558 149 c 128,-1,31
 530 104 530 104 478 76 c 1,32,33
 534 20 534 20 534 -46 c 0,34,35
 534 -129 534 -129 469.5 -176.5 c 128,-1,36
 405 -224 405 -224 271 -224 c 0,37,38
 174 -224 174 -224 122 -184.5 c 128,-1,39
 70 -145 70 -145 70 -92 c 0,40,41
 70 -54 70 -54 94.5 -26.5 c 128,-1,42
 119 1 119 1 157.5 1 c 128,-1,43
 196 1 196 1 219.5 -21.5 c 128,-1,44
 243 -44 243 -44 243 -76.5 c 128,-1,45
 243 -109 243 -109 222.5 -131 c 128,-1,46
 202 -153 202 -153 171.5 -153 c 128,-1,47
 141 -153 141 -153 125 -136 c 256,48,49
 109 -119 109 -119 106 -90 c 1,50,51
 104 -82 104 -82 96 -82 c 128,-1,52
 88 -82 88 -82 88 -91 c 128,-1,53
 88 -100 88 -100 90.5 -110.5 c 128,-1,54
 93 -121 93 -121 104 -138.5 c 128,-1,55
 115 -156 115 -156 132.5 -170.5 c 128,-1,56
 150 -185 150 -185 185 -195.5 c 128,-1,57
 220 -206 220 -206 270.5 -206 c 128,-1,58
 321 -206 321 -206 364 -180.5 c 128,-1,59
 407 -155 407 -155 407 -109 c 0,60,61
 407 -76 407 -76 380.5 -46 c 128,-1,62
 354 -16 354 -16 314 6 c 128,-1,63
 274 28 274 28 227 55 c 128,-1,64
 180 82 180 82 140 107 c 128,-1,65
 100 132 100 132 73.5 169.5 c 128,-1,66
 47 207 47 207 47 253.5 c 128,-1,67
 47 300 47 300 74.5 344.5 c 128,-1,68
 102 389 102 389 154 417 c 1,69,70
 99 468 99 468 99 545 c 128,-1,71
 99 622 99 622 160 670.5 c 128,-1,72
 221 719 221 719 348 719 c 0,0,1
168 405 m 1,73,74
 135 382 135 382 135 347 c 128,-1,75
 135 312 135 312 171.5 279 c 128,-1,76
 208 246 208 246 256 221 c 0,77,78
 407 141 407 141 464 89 c 1,79,80
 498 113 498 113 498 146.5 c 128,-1,81
 498 180 498 180 463.5 212 c 128,-1,82
 429 244 429 244 384 268 c 0,83,84
 240 345 240 345 179 396 c 2,85,-1
 168 405 l 1,73,74
EndSplineSet
EndChar

StartChar: dieresis
Encoding: 168 168 107
Width: 747
GlyphClass: 2
Flags: W
LayerCount: 2
Fore
SplineSet
404 581 m 128,-1,1
 404 606 404 606 422 623.5 c 128,-1,2
 440 641 440 641 465 641 c 128,-1,3
 490 641 490 641 507.5 623.5 c 128,-1,4
 525 606 525 606 525 581 c 128,-1,5
 525 556 525 556 507.5 538 c 128,-1,6
 490 520 490 520 465 520 c 128,-1,7
 440 520 440 520 422 538 c 128,-1,0
 404 556 404 556 404 581 c 128,-1,1
224 581 m 128,-1,9
 224 606 224 606 241.5 623.5 c 128,-1,10
 259 641 259 641 284 641 c 128,-1,11
 309 641 309 641 327 623.5 c 128,-1,12
 345 606 345 606 345 581 c 128,-1,13
 345 556 345 556 327 538 c 128,-1,14
 309 520 309 520 284 520 c 128,-1,15
 259 520 259 520 241.5 538 c 128,-1,8
 224 556 224 556 224 581 c 128,-1,9
EndSplineSet
EndChar

StartChar: copyright
Encoding: 169 169 108
Width: 811
GlyphClass: 2
Flags: W
LayerCount: 2
Fore
SplineSet
546 453 m 0,0,1
 564 453 564 453 572 480 c 1,2,-1
 585 480 l 1,3,-1
 585 290 l 1,4,-1
 572 290 l 1,5,6
 570 297 570 297 564 319.5 c 128,-1,7
 558 342 558 342 554.5 353 c 128,-1,8
 551 364 551 364 544 384 c 128,-1,9
 537 404 537 404 529.5 415 c 128,-1,10
 522 426 522 426 512 438 c 0,11,12
 493 461 493 461 460 461 c 0,13,14
 374 461 374 461 374 237 c 0,15,16
 374 122 374 122 403.5 76.5 c 128,-1,17
 433 31 433 31 505 31 c 0,18,19
 603 31 603 31 668 96 c 128,-1,20
 733 161 733 161 733 269 c 0,21,22
 733 409 733 409 644 496 c 128,-1,23
 555 583 555 583 416 583 c 128,-1,24
 277 583 277 583 177.5 483 c 128,-1,25
 78 383 78 383 78 243 c 128,-1,26
 78 103 78 103 177.5 3 c 128,-1,27
 277 -97 277 -97 417 -97 c 0,28,29
 509 -97 509 -97 586 -56 c 1,30,-1
 592 -80 l 1,31,32
 510 -124 510 -124 417 -124 c 0,33,34
 265 -124 265 -124 157.5 -16.5 c 128,-1,35
 50 91 50 91 50 243 c 128,-1,36
 50 395 50 395 157.5 502.5 c 128,-1,37
 265 610 265 610 415.5 610 c 128,-1,38
 566 610 566 610 663.5 516 c 128,-1,39
 761 422 761 422 761 271 c 0,40,41
 761 155 761 155 686 77.5 c 128,-1,42
 611 0 611 0 473 0 c 0,43,44
 358 0 358 0 285 61.5 c 128,-1,45
 212 123 212 123 212 253 c 0,46,47
 212 344 212 344 275.5 412 c 128,-1,48
 339 480 339 480 447 480 c 0,49,50
 477 480 477 480 508 466.5 c 128,-1,51
 539 453 539 453 546 453 c 0,0,1
EndSplineSet
EndChar

StartChar: ordfeminine
Encoding: 170 170 109
Width: 384
GlyphClass: 2
Flags: W
LayerCount: 2
Fore
SplineSet
207 425 m 2,0,-1
 207 451 l 1,1,2
 186 451 186 451 173.5 449 c 128,-1,3
 161 447 161 447 148.5 435 c 128,-1,4
 136 423 136 423 136 398 c 128,-1,5
 136 373 136 373 144.5 359 c 128,-1,6
 153 345 153 345 167 345 c 128,-1,7
 181 345 181 345 194 370 c 128,-1,8
 207 395 207 395 207 425 c 2,0,-1
184 330.5 m 128,-1,10
 159 308 159 308 120.5 308 c 128,-1,11
 82 308 82 308 53 327 c 128,-1,12
 24 346 24 346 24 381 c 128,-1,13
 24 416 24 416 43 434.5 c 128,-1,14
 62 453 62 453 97 460 c 0,15,16
 148 469 148 469 207 469 c 1,17,-1
 207 490 l 2,18,19
 207 561 207 561 179 577 c 0,20,21
 165 585 165 585 139 585 c 128,-1,22
 113 585 113 585 90 574 c 1,23,24
 60 558 60 558 60 537 c 0,25,26
 60 528 60 528 68 528 c 128,-1,27
 76 528 76 528 79 538 c 0,28,29
 87 561 87 561 108.5 561 c 128,-1,30
 130 561 130 561 140.5 547.5 c 128,-1,31
 151 534 151 534 151 515.5 c 128,-1,32
 151 497 151 497 135 484 c 128,-1,33
 119 471 119 471 94 471 c 128,-1,34
 69 471 69 471 54.5 488.5 c 128,-1,35
 40 506 40 506 40 528 c 0,36,37
 40 562 40 562 71.5 583.5 c 128,-1,38
 103 605 103 605 161 605 c 0,39,40
 254 605 254 605 286.5 573.5 c 128,-1,41
 319 542 319 542 319 468 c 2,42,-1
 319 366 l 2,43,44
 319 347 319 347 330 347 c 0,45,46
 338 347 338 347 346.5 361.5 c 128,-1,47
 355 376 355 376 359 401 c 1,48,-1
 377 399 l 1,49,50
 365 308 365 308 287 308 c 0,51,52
 257 308 257 308 239.5 328.5 c 128,-1,53
 222 349 222 349 220 378 c 1,54,-1
 216 378 l 1,55,9
 209 353 209 353 184 330.5 c 128,-1,10
74 227 m 1,56,-1
 74 248 l 1,57,-1
 307 248 l 1,58,-1
 307 227 l 1,59,-1
 74 227 l 1,56,-1
EndSplineSet
EndChar

StartChar: guillemotleft
Encoding: 171 171 110
Width: 313
GlyphClass: 2
Flags: W
LayerCount: 2
Fore
SplineSet
5 237 m 1,0,-1
 134 409 l 1,1,-1
 151 396 l 1,2,-1
 32 237 l 1,3,-1
 151 78 l 1,4,-1
 134 65 l 1,5,-1
 5 237 l 1,0,-1
144 237 m 1,6,-1
 117 237 l 1,7,-1
 246 409 l 1,8,-1
 263 396 l 1,9,-1
 144 237 l 1,6,-1
117 237 m 1,10,-1
 144 237 l 1,11,-1
 263 78 l 1,12,-1
 246 65 l 1,13,-1
 117 237 l 1,10,-1
EndSplineSet
EndChar

StartChar: logicalnot
Encoding: 172 172 111
Width: 513
GlyphClass: 2
Flags: W
LayerCount: 2
Fore
SplineSet
34 242 m 1,0,-1
 34 263 l 1,1,-1
 478 263 l 1,2,-1
 478 96 l 1,3,-1
 456 96 l 1,4,-1
 456 242 l 1,5,-1
 34 242 l 1,0,-1
EndSplineSet
EndChar

StartChar: registered
Encoding: 174 174 112
Width: 834
GlyphClass: 2
Flags: W
LayerCount: 2
Fore
SplineSet
599 3 m 0,0,1
 488 3 488 3 488 127 c 0,2,3
 488 176 488 176 481.5 192.5 c 128,-1,4
 475 209 475 209 463 213.5 c 128,-1,5
 451 218 451 218 429 218 c 2,6,-1
 397 218 l 1,7,-1
 397 26 l 1,8,-1
 439 26 l 1,9,-1
 439 9 l 1,10,-1
 211 9 l 1,11,-1
 211 26 l 1,12,-1
 254 26 l 1,13,-1
 254 452 l 1,14,-1
 211 452 l 1,15,-1
 211 469 l 1,16,-1
 446 469 l 2,17,18
 540 469 540 469 589.5 444 c 128,-1,19
 639 419 639 419 639 361.5 c 128,-1,20
 639 304 639 304 606.5 275.5 c 128,-1,21
 574 247 574 247 503 240 c 1,22,-1
 503 231 l 1,23,24
 518 232 518 232 531 232 c 0,25,26
 587 232 587 232 618 209 c 128,-1,27
 649 186 649 186 649 111 c 2,28,-1
 649 102 l 2,29,30
 649 63 649 63 671 63 c 0,31,32
 703 63 703 63 729.5 114.5 c 128,-1,33
 756 166 756 166 756 253 c 0,34,35
 756 398 756 398 658 490.5 c 128,-1,36
 560 583 560 583 418.5 583 c 128,-1,37
 277 583 277 583 177.5 483 c 128,-1,38
 78 383 78 383 78 243 c 128,-1,39
 78 103 78 103 177.5 3 c 128,-1,40
 277 -97 277 -97 417 -97 c 0,41,42
 504 -97 504 -97 577 -58 c 1,43,-1
 592 -80 l 1,44,45
 510 -124 510 -124 417 -124 c 0,46,47
 265 -124 265 -124 157.5 -16.5 c 128,-1,48
 50 91 50 91 50 243 c 128,-1,49
 50 395 50 395 157.5 502.5 c 128,-1,50
 265 610 265 610 418.5 610 c 128,-1,51
 572 610 572 610 678 510 c 128,-1,52
 784 410 784 410 784 253 c 0,53,54
 784 139 784 139 734 71 c 128,-1,55
 684 3 684 3 599 3 c 0,0,1
397 452 m 1,56,-1
 397 237 l 1,57,-1
 428 237 l 2,58,59
 489 237 489 237 489 339 c 0,60,61
 489 408 489 408 473.5 430 c 128,-1,62
 458 452 458 452 418 452 c 2,63,-1
 397 452 l 1,56,-1
EndSplineSet
EndChar

StartChar: macron
Encoding: 175 175 113
Width: 283
GlyphClass: 2
Flags: W
LayerCount: 2
Fore
SplineSet
2 570 m 1,0,-1
 2 589 l 1,1,-1
 281 589 l 1,2,-1
 281 570 l 1,3,-1
 2 570 l 1,0,-1
EndSplineSet
EndChar

StartChar: degree
Encoding: 176 176 114
Width: 280
GlyphClass: 2
Flags: W
LayerCount: 2
Fore
SplineSet
24 552 m 128,-1,1
 24 600 24 600 58 634 c 128,-1,2
 92 668 92 668 140 668 c 128,-1,3
 188 668 188 668 222 634 c 128,-1,4
 256 600 256 600 256 552 c 128,-1,5
 256 504 256 504 222 470 c 128,-1,6
 188 436 188 436 140 436 c 128,-1,7
 92 436 92 436 58 470 c 128,-1,0
 24 504 24 504 24 552 c 128,-1,1
55 552 m 128,-1,9
 55 517 55 517 80 492 c 128,-1,10
 105 467 105 467 140 467 c 128,-1,11
 175 467 175 467 200 492 c 128,-1,12
 225 517 225 517 225 552 c 128,-1,13
 225 587 225 587 200 612 c 128,-1,14
 175 637 175 637 140 637 c 128,-1,15
 105 637 105 637 80 612 c 128,-1,8
 55 587 55 587 55 552 c 128,-1,9
EndSplineSet
EndChar

StartChar: plusminus
Encoding: 177 177 115
Width: 615
GlyphClass: 2
Flags: W
LayerCount: 2
Fore
SplineSet
83 276 m 1,0,-1
 83 297 l 1,1,-1
 310 297 l 1,2,-1
 310 474 l 1,3,-1
 330 474 l 1,4,-1
 330 297 l 1,5,-1
 557 297 l 1,6,-1
 557 276 l 1,7,-1
 330 276 l 1,8,-1
 330 100 l 1,9,-1
 310 100 l 1,10,-1
 310 276 l 1,11,-1
 83 276 l 1,0,-1
557 51 m 1,12,-1
 557 30 l 1,13,-1
 83 30 l 1,14,-1
 83 51 l 1,15,-1
 557 51 l 1,12,-1
EndSplineSet
EndChar

StartChar: twosuperior
Encoding: 178 178 116
Width: 428
GlyphClass: 2
Flags: W
LayerCount: 2
Fore
SplineSet
50 293 m 1,0,1
 50 334 50 334 69.5 367.5 c 128,-1,2
 89 401 89 401 116.5 422.5 c 128,-1,3
 144 444 144 444 172 464 c 0,4,5
 238 512 238 512 238 562 c 0,6,7
 238 590 238 590 220.5 611 c 128,-1,8
 203 632 203 632 167.5 632 c 128,-1,9
 132 632 132 632 105.5 610.5 c 128,-1,10
 79 589 79 589 79 558 c 0,11,12
 79 548 79 548 87 548 c 0,13,14
 97 548 97 548 97 557 c 0,15,16
 99 577 99 577 111.5 589.5 c 128,-1,17
 124 602 124 602 146 602 c 128,-1,18
 168 602 168 602 182 586.5 c 128,-1,19
 196 571 196 571 196 546.5 c 128,-1,20
 196 522 196 522 177 504.5 c 128,-1,21
 158 487 158 487 128.5 487 c 128,-1,22
 99 487 99 487 80 507 c 128,-1,23
 61 527 61 527 61 556 c 0,24,25
 61 600 61 600 99.5 628 c 128,-1,26
 138 656 138 656 196 656 c 0,27,28
 284 656 284 656 326 624 c 128,-1,29
 368 592 368 592 368 542.5 c 128,-1,30
 368 493 368 493 340 466.5 c 128,-1,31
 312 440 312 440 245 434 c 1,32,33
 153 423 153 423 122 402 c 1,34,35
 105 389 105 389 95 371 c 1,36,-1
 100 367 l 1,37,38
 124 391 124 391 139 394 c 0,39,40
 170 400 170 400 198 400 c 2,41,-1
 326 400 l 2,42,43
 365 400 365 400 366 435 c 1,44,-1
 378 435 l 1,45,-1
 378 293 l 1,46,-1
 50 293 l 1,0,1
108 227 m 1,47,-1
 108 248 l 1,48,-1
 341 248 l 1,49,-1
 341 227 l 1,50,-1
 108 227 l 1,47,-1
EndSplineSet
EndChar

StartChar: threesuperior
Encoding: 179 179 117
Width: 412
GlyphClass: 2
Flags: W
LayerCount: 2
Fore
SplineSet
181 283 m 0,0,1
 117 283 117 283 83.5 306 c 128,-1,2
 50 329 50 329 50 365 c 128,-1,3
 50 401 50 401 70.5 419 c 128,-1,4
 91 437 91 437 118.5 437 c 128,-1,5
 146 437 146 437 163 420.5 c 128,-1,6
 180 404 180 404 180 382.5 c 128,-1,7
 180 361 180 361 165.5 344.5 c 128,-1,8
 151 328 151 328 128.5 328 c 128,-1,9
 106 328 106 328 89 350 c 0,10,11
 86 355 86 355 82 355 c 0,12,13
 73 355 73 355 73 346 c 0,14,15
 73 344 73 344 75 340 c 0,16,17
 94 307 94 307 135.5 307 c 128,-1,18
 177 307 177 307 199.5 328 c 128,-1,19
 222 349 222 349 222 382.5 c 128,-1,20
 222 416 222 416 207 439.5 c 128,-1,21
 192 463 192 463 164 463 c 0,22,23
 154 463 154 463 121 452 c 1,24,-1
 116 469 l 1,25,26
 124 469 124 469 147 479.5 c 128,-1,27
 170 490 170 490 178 494.5 c 128,-1,28
 186 499 186 499 195.5 507 c 128,-1,29
 205 515 205 515 211 523 c 0,30,31
 225 542 225 542 225 572 c 128,-1,32
 225 602 225 602 207 619 c 128,-1,33
 189 636 189 636 160.5 636 c 128,-1,34
 132 636 132 636 110 620.5 c 128,-1,35
 88 605 88 605 88 583 c 0,36,37
 88 574 88 574 97 574 c 0,38,39
 103 574 103 574 107 586 c 0,40,41
 118 616 118 616 151 616 c 0,42,43
 173 616 173 616 187 599.5 c 128,-1,44
 201 583 201 583 201 560 c 128,-1,45
 201 537 201 537 183.5 519 c 128,-1,46
 166 501 166 501 136.5 501 c 128,-1,47
 107 501 107 501 88 521.5 c 128,-1,48
 69 542 69 542 69 576.5 c 128,-1,49
 69 611 69 611 104 633.5 c 128,-1,50
 139 656 139 656 199.5 656 c 128,-1,51
 260 656 260 656 297 634 c 128,-1,52
 334 612 334 612 334 577 c 128,-1,53
 334 542 334 542 305.5 520 c 128,-1,54
 277 498 277 498 221 494 c 1,55,-1
 225 485 l 1,56,57
 232 486 232 486 245 486 c 0,58,59
 293 486 293 486 327.5 462.5 c 128,-1,60
 362 439 362 439 362 393 c 128,-1,61
 362 347 362 347 320.5 315 c 128,-1,62
 279 283 279 283 181 283 c 0,0,1
98 227 m 1,63,-1
 98 248 l 1,64,-1
 331 248 l 1,65,-1
 331 227 l 1,66,-1
 98 227 l 1,63,-1
EndSplineSet
EndChar

StartChar: acute
Encoding: 180 180 118
Width: 328
GlyphClass: 2
Flags: W
LayerCount: 2
Fore
SplineSet
315 629 m 1,0,-1
 320 611 l 1,1,-1
 22 530 l 1,2,-1
 17 547 l 1,3,-1
 315 629 l 1,0,-1
EndSplineSet
EndChar

StartChar: mu
Encoding: 181 181 119
Width: 665
GlyphClass: 2
Flags: W
LayerCount: 2
Fore
SplineSet
388 455 m 1,0,-1
 317 455 l 1,1,-1
 317 469 l 1,2,-1
 377 469 l 2,3,4
 486 469 486 469 577 488 c 1,5,-1
 577 14 l 1,6,-1
 645 14 l 1,7,-1
 645 0 l 1,8,-1
 388 0 l 1,9,-1
 388 91 l 1,10,-1
 384 91 l 1,11,12
 353 15 353 15 281 -4 c 0,13,14
 266 -8 266 -8 255.5 -21.5 c 128,-1,15
 245 -35 245 -35 245 -56.5 c 128,-1,16
 245 -78 245 -78 270 -92 c 1,17,-1
 269 -92 l 1,18,19
 308 -112 308 -112 308 -157 c 0,20,21
 308 -188 308 -188 286.5 -209.5 c 128,-1,22
 265 -231 265 -231 234 -231 c 128,-1,23
 203 -231 203 -231 181.5 -209.5 c 128,-1,24
 160 -188 160 -188 160 -157 c 0,25,26
 160 -112 160 -112 198 -92 c 0,27,28
 223 -79 223 -79 223 -51 c 0,29,30
 223 -35 223 -35 212 -21.5 c 128,-1,31
 201 -8 201 -8 185 -4 c 0,32,33
 81 23 81 23 81 197 c 2,34,-1
 81 455 l 1,35,-1
 10 455 l 1,36,-1
 10 469 l 1,37,-1
 70 469 l 2,38,39
 179 469 179 469 270 488 c 1,40,-1
 270 174 l 2,41,42
 270 107 270 107 282 77.5 c 128,-1,43
 294 48 294 48 320 48 c 0,44,45
 350 48 350 48 369 103 c 128,-1,46
 388 158 388 158 388 240 c 2,47,-1
 388 455 l 1,0,-1
EndSplineSet
EndChar

StartChar: paragraph
Encoding: 182 182 120
Width: 497
GlyphClass: 2
Flags: W
LayerCount: 2
Fore
SplineSet
262 -186 m 1,0,-1
 245 -185 l 2,1,2
 235 -185 235 -185 235 -194 c 0,3,4
 235 -206 235 -206 262 -206 c 0,5,6
 323 -206 323 -206 360 -160.5 c 128,-1,7
 397 -115 397 -115 397 -40 c 2,8,-1
 397 684 l 1,9,10
 360 686 360 686 331 689 c 1,11,-1
 331 -43 l 1,12,13
 299 -2 299 -2 235 -2 c 0,14,15
 231 -2 231 -2 226 -2 c 1,16,-1
 226 322 l 1,17,18
 215 320 215 320 194 320 c 0,19,20
 109 320 109 320 54 376.5 c 128,-1,21
 -1 433 -1 433 -1 517.5 c 128,-1,22
 -1 602 -1 602 59 660.5 c 128,-1,23
 119 719 119 719 216 719 c 0,24,25
 237 719 237 719 313 709.5 c 128,-1,26
 389 700 389 700 486 700 c 1,27,-1
 486 684 l 1,28,-1
 415 684 l 1,29,-1
 415 -35 l 2,30,31
 415 -127 415 -127 370.5 -175.5 c 128,-1,32
 326 -224 326 -224 257 -224 c 0,33,34
 210 -224 210 -224 178 -196 c 128,-1,35
 146 -168 146 -168 146 -124 c 128,-1,36
 146 -80 146 -80 174.5 -54 c 128,-1,37
 203 -28 203 -28 240 -28 c 128,-1,38
 277 -28 277 -28 304.5 -50.5 c 128,-1,39
 332 -73 332 -73 332 -108 c 128,-1,40
 332 -143 332 -143 311 -164.5 c 128,-1,41
 290 -186 290 -186 262 -186 c 1,0,-1
EndSplineSet
EndChar

StartChar: periodcentered
Encoding: 183 183 121
Width: 294
GlyphClass: 2
Flags: W
LayerCount: 2
Fore
SplineSet
78 171.5 m 128,-1,1
 50 200 50 200 50 240.5 c 128,-1,2
 50 281 50 281 78 309.5 c 128,-1,3
 106 338 106 338 147 338 c 128,-1,4
 188 338 188 338 216.5 309.5 c 128,-1,5
 245 281 245 281 245 240 c 128,-1,6
 245 199 245 199 216.5 171 c 128,-1,7
 188 143 188 143 147 143 c 128,-1,0
 106 143 106 143 78 171.5 c 128,-1,1
EndSplineSet
EndChar

StartChar: cedilla
Encoding: 184 184 122
Width: 375
GlyphClass: 2
Flags: W
LayerCount: 2
Fore
SplineSet
134 -70 m 1,0,1
 160 -53 160 -53 199.5 -53 c 128,-1,2
 239 -53 239 -53 269 -82.5 c 128,-1,3
 299 -112 299 -112 299 -153.5 c 128,-1,4
 299 -195 299 -195 270 -222 c 128,-1,5
 241 -249 241 -249 205 -249 c 128,-1,6
 169 -249 169 -249 147 -223.5 c 128,-1,7
 125 -198 125 -198 125 -166 c 128,-1,8
 125 -134 125 -134 147.5 -114 c 128,-1,9
 170 -94 170 -94 195 -94 c 128,-1,10
 220 -94 220 -94 240 -112 c 128,-1,11
 260 -130 260 -130 261 -151 c 128,-1,12
 262 -172 262 -172 271 -172 c 128,-1,13
 280 -172 280 -172 280 -160 c 0,14,15
 280 -130 280 -130 259 -101 c 128,-1,16
 238 -72 238 -72 198 -72 c 0,17,18
 175 -72 175 -72 152.5 -83.5 c 128,-1,19
 130 -95 130 -95 119 -112 c 1,20,-1
 102 -94 l 1,21,-1
 139 4 l 1,22,-1
 159 -4 l 1,23,-1
 134 -70 l 1,0,1
EndSplineSet
EndChar

StartChar: onesuperior
Encoding: 185 185 123
Width: 359
GlyphClass: 2
Flags: W
LayerCount: 2
Fore
SplineSet
136 550 m 1,0,-1
 131 550 l 1,1,2
 122 532 122 532 103.5 517.5 c 128,-1,3
 85 503 85 503 72 498 c 2,4,-1
 58 492 l 1,5,-1
 50 510 l 1,6,7
 108 537 108 537 124 587 c 0,8,9
 132 612 132 612 132 645 c 1,10,-1
 164 645 l 2,11,12
 227 645 227 645 262 656 c 1,13,-1
 262 310 l 1,14,-1
 319 310 l 1,15,-1
 319 290 l 1,16,-1
 79 290 l 1,17,-1
 79 310 l 1,18,-1
 136 310 l 1,19,-1
 136 550 l 1,0,-1
84 227 m 1,20,-1
 84 248 l 1,21,-1
 317 248 l 1,22,-1
 317 227 l 1,23,-1
 84 227 l 1,20,-1
EndSplineSet
EndChar

StartChar: ordmasculine
Encoding: 186 186 124
Width: 365
GlyphClass: 2
Flags: W
LayerCount: 2
Fore
SplineSet
63 227 m 1,0,-1
 63 248 l 1,1,-1
 296 248 l 1,2,-1
 296 227 l 1,3,-1
 63 227 l 1,0,-1
296 349 m 128,-1,5
 252 308 252 308 181.5 308 c 128,-1,6
 111 308 111 308 68 348.5 c 128,-1,7
 25 389 25 389 25 456 c 128,-1,8
 25 523 25 523 68 564 c 128,-1,9
 111 605 111 605 181.5 605 c 128,-1,10
 252 605 252 605 296 564 c 128,-1,11
 340 523 340 523 340 456.5 c 128,-1,4
 340 390 340 390 296 349 c 128,-1,5
211 353.5 m 128,-1,13
 219 381 219 381 219 456.5 c 128,-1,14
 219 532 219 532 211 559.5 c 128,-1,15
 203 587 203 587 182 587 c 128,-1,16
 161 587 161 587 153.5 559.5 c 128,-1,17
 146 532 146 532 146 456.5 c 128,-1,18
 146 381 146 381 153.5 353.5 c 128,-1,19
 161 326 161 326 182 326 c 128,-1,12
 203 326 203 326 211 353.5 c 128,-1,13
EndSplineSet
EndChar

StartChar: guillemotright
Encoding: 187 187 125
Width: 313
GlyphClass: 2
Flags: W
LayerCount: 2
Fore
SplineSet
169 237 m 1,0,-1
 50 396 l 1,1,-1
 67 409 l 1,2,-1
 196 237 l 1,3,-1
 67 65 l 1,4,-1
 50 78 l 1,5,-1
 169 237 l 1,0,-1
281 237 m 1,6,-1
 162 396 l 1,7,-1
 179 409 l 1,8,-1
 308 237 l 1,9,-1
 179 65 l 1,10,-1
 162 78 l 1,11,-1
 281 237 l 1,6,-1
EndSplineSet
EndChar

StartChar: onequarter
Encoding: 188 188 126
Width: 829
GlyphClass: 2
Flags: W
LayerCount: 2
Fore
SplineSet
116 550 m 1,0,-1
 111 550 l 1,1,2
 102 532 102 532 83.5 517.5 c 128,-1,3
 65 503 65 503 52 498 c 2,4,-1
 38 492 l 1,5,-1
 30 510 l 1,6,7
 88 537 88 537 104 587 c 0,8,9
 112 612 112 612 112 645 c 1,10,-1
 144 645 l 2,11,12
 207 645 207 645 242 656 c 1,13,-1
 242 310 l 1,14,-1
 299 310 l 1,15,-1
 299 290 l 1,16,-1
 59 290 l 1,17,-1
 59 310 l 1,18,-1
 116 310 l 1,19,-1
 116 550 l 1,0,-1
207 10 m 1,20,-1
 567 656 l 1,21,-1
 588 650 l 1,22,-1
 227 2 l 1,23,-1
 207 10 l 1,20,-1
376 133 m 1,24,-1
 376 142 l 1,25,26
 436 171 436 171 505.5 262.5 c 128,-1,27
 575 354 575 354 583 443 c 1,28,29
 628 443 628 443 678 454 c 1,30,-1
 678 164 l 1,31,-1
 769 164 l 1,32,-1
 769 133 l 1,33,-1
 678 133 l 1,34,-1
 678 20 l 1,35,-1
 552 20 l 1,36,-1
 552 133 l 1,37,-1
 376 133 l 1,24,-1
443 164 m 1,38,-1
 552 164 l 1,39,-1
 552 293 l 1,40,-1
 550 293 l 1,41,42
 525 252 525 252 498.5 220.5 c 128,-1,43
 472 189 472 189 458 178 c 2,44,-1
 443 167 l 1,45,-1
 443 164 l 1,38,-1
EndSplineSet
EndChar

StartChar: onehalf
Encoding: 189 189 127
Width: 857
GlyphClass: 2
Flags: W
LayerCount: 2
Fore
SplineSet
488 65 m 1,0,1
 488 106 488 106 507.5 139.5 c 128,-1,2
 527 173 527 173 554.5 194.5 c 128,-1,3
 582 216 582 216 610 236 c 0,4,5
 676 284 676 284 676 334 c 0,6,7
 676 362 676 362 658.5 383 c 128,-1,8
 641 404 641 404 605.5 404 c 128,-1,9
 570 404 570 404 543.5 382.5 c 128,-1,10
 517 361 517 361 517 330 c 0,11,12
 517 320 517 320 525 320 c 0,13,14
 535 320 535 320 535 329 c 0,15,16
 537 349 537 349 549.5 361.5 c 128,-1,17
 562 374 562 374 584 374 c 128,-1,18
 606 374 606 374 620 358.5 c 128,-1,19
 634 343 634 343 634 318.5 c 128,-1,20
 634 294 634 294 615 276.5 c 128,-1,21
 596 259 596 259 566.5 259 c 128,-1,22
 537 259 537 259 518 279 c 128,-1,23
 499 299 499 299 499 328 c 0,24,25
 499 372 499 372 537.5 400 c 128,-1,26
 576 428 576 428 634 428 c 0,27,28
 722 428 722 428 764 396 c 128,-1,29
 806 364 806 364 806 314.5 c 128,-1,30
 806 265 806 265 778 238.5 c 128,-1,31
 750 212 750 212 683 206 c 1,32,33
 591 195 591 195 560 174 c 1,34,35
 543 161 543 161 533 143 c 1,36,-1
 538 139 l 1,37,38
 562 163 562 163 577 166 c 0,39,40
 608 172 608 172 636 172 c 2,41,-1
 764 172 l 2,42,43
 803 172 803 172 804 207 c 1,44,-1
 816 207 l 1,45,-1
 816 65 l 1,46,-1
 488 65 l 1,0,1
207 10 m 1,47,-1
 567 656 l 1,48,-1
 588 650 l 1,49,-1
 227 2 l 1,50,-1
 207 10 l 1,47,-1
117 550 m 1,51,-1
 112 550 l 1,52,53
 103 532 103 532 84.5 517.5 c 128,-1,54
 66 503 66 503 52 498 c 1,55,-1
 39 492 l 1,56,-1
 31 510 l 1,57,58
 89 537 89 537 105 587 c 0,59,60
 113 612 113 612 113 645 c 1,61,-1
 145 645 l 2,62,63
 207 645 207 645 242 656 c 1,64,-1
 242 310 l 1,65,-1
 299 310 l 1,66,-1
 299 290 l 1,67,-1
 60 290 l 1,68,-1
 60 310 l 1,69,-1
 117 310 l 1,70,-1
 117 550 l 1,51,-1
EndSplineSet
EndChar

StartChar: threequarters
Encoding: 190 190 128
Width: 819
GlyphClass: 2
Flags: W
LayerCount: 2
Fore
SplineSet
133 283 m 0,0,1
 69 283 69 283 35.5 306 c 128,-1,2
 2 329 2 329 2 365 c 128,-1,3
 2 401 2 401 22.5 419 c 128,-1,4
 43 437 43 437 70.5 437 c 128,-1,5
 98 437 98 437 115 420.5 c 128,-1,6
 132 404 132 404 132 382.5 c 128,-1,7
 132 361 132 361 117.5 344.5 c 128,-1,8
 103 328 103 328 80.5 328 c 128,-1,9
 58 328 58 328 41 350 c 0,10,11
 38 355 38 355 34 355 c 0,12,13
 25 355 25 355 25 346 c 0,14,15
 25 344 25 344 27 340 c 0,16,17
 46 307 46 307 87.5 307 c 128,-1,18
 129 307 129 307 151.5 328 c 128,-1,19
 174 349 174 349 174 382.5 c 128,-1,20
 174 416 174 416 159 439.5 c 128,-1,21
 144 463 144 463 116 463 c 0,22,23
 106 463 106 463 73 452 c 1,24,-1
 68 469 l 1,25,26
 76 469 76 469 99 479.5 c 128,-1,27
 122 490 122 490 130 494.5 c 128,-1,28
 138 499 138 499 147.5 507 c 128,-1,29
 157 515 157 515 163 523 c 0,30,31
 177 542 177 542 177 572 c 128,-1,32
 177 602 177 602 159 619 c 128,-1,33
 141 636 141 636 112.5 636 c 128,-1,34
 84 636 84 636 62 620.5 c 128,-1,35
 40 605 40 605 40 583 c 0,36,37
 40 574 40 574 49 574 c 0,38,39
 55 574 55 574 59 586 c 0,40,41
 70 616 70 616 103 616 c 0,42,43
 125 616 125 616 139 599.5 c 128,-1,44
 153 583 153 583 153 560 c 128,-1,45
 153 537 153 537 135.5 519 c 128,-1,46
 118 501 118 501 88.5 501 c 128,-1,47
 59 501 59 501 40 521.5 c 128,-1,48
 21 542 21 542 21 576.5 c 128,-1,49
 21 611 21 611 56 633.5 c 128,-1,50
 91 656 91 656 151.5 656 c 128,-1,51
 212 656 212 656 249 634 c 128,-1,52
 286 612 286 612 286 577 c 128,-1,53
 286 542 286 542 257.5 520 c 128,-1,54
 229 498 229 498 173 494 c 1,55,-1
 177 485 l 1,56,57
 189 486 189 486 197 486 c 0,58,59
 245 486 245 486 279.5 462.5 c 128,-1,60
 314 439 314 439 314 393 c 128,-1,61
 314 347 314 347 272.5 315 c 128,-1,62
 231 283 231 283 133 283 c 0,0,1
207 10 m 1,63,-1
 567 656 l 1,64,-1
 588 650 l 1,65,-1
 227 2 l 1,66,-1
 207 10 l 1,63,-1
376 133 m 1,67,-1
 376 142 l 1,68,69
 436 171 436 171 505.5 262.5 c 128,-1,70
 575 354 575 354 583 443 c 1,71,72
 628 443 628 443 678 454 c 1,73,-1
 678 164 l 1,74,-1
 769 164 l 1,75,-1
 769 133 l 1,76,-1
 678 133 l 1,77,-1
 678 20 l 1,78,-1
 552 20 l 1,79,-1
 552 133 l 1,80,-1
 376 133 l 1,67,-1
443 164 m 1,81,-1
 552 164 l 1,82,-1
 552 293 l 1,83,-1
 550 293 l 1,84,85
 525 252 525 252 498.5 220.5 c 128,-1,86
 472 189 472 189 458 178 c 2,87,-1
 443 167 l 1,88,-1
 443 164 l 1,81,-1
EndSplineSet
EndChar

StartChar: questiondown
Encoding: 191 191 129
Width: 522
GlyphClass: 2
Flags: W
LayerCount: 2
Fore
SplineSet
317 465 m 128,-1,1
 340 442 340 442 340 409.5 c 128,-1,2
 340 377 340 377 317 354 c 128,-1,3
 294 331 294 331 261.5 331 c 128,-1,4
 229 331 229 331 206 354 c 128,-1,5
 183 377 183 377 183 409.5 c 128,-1,6
 183 442 183 442 206 465 c 128,-1,7
 229 488 229 488 261.5 488 c 128,-1,0
 294 488 294 488 317 465 c 128,-1,1
323.5 274 m 128,-1,9
 352 251 352 251 352 213.5 c 128,-1,10
 352 176 352 176 337.5 148.5 c 128,-1,11
 323 121 323 121 305.5 102.5 c 128,-1,12
 288 84 288 84 273.5 42.5 c 128,-1,13
 259 1 259 1 259 -56 c 0,14,15
 259 -205 259 -205 364 -205 c 0,16,17
 413 -205 413 -205 451.5 -172 c 128,-1,18
 490 -139 490 -139 490 -93 c 0,19,20
 490 -70 490 -70 482 -57.5 c 128,-1,21
 474 -45 474 -45 468 -45 c 0,22,23
 459 -45 459 -45 459 -54 c 0,24,25
 459 -57 459 -57 465 -67 c 128,-1,26
 471 -77 471 -77 471 -99 c 128,-1,27
 471 -121 471 -121 451 -139 c 128,-1,28
 431 -157 431 -157 400.5 -157 c 128,-1,29
 370 -157 370 -157 348 -134.5 c 128,-1,30
 326 -112 326 -112 326 -77.5 c 128,-1,31
 326 -43 326 -43 350.5 -19 c 128,-1,32
 375 5 375 5 414.5 5 c 128,-1,33
 454 5 454 5 481 -22.5 c 128,-1,34
 508 -50 508 -50 508 -92 c 0,35,36
 508 -157 508 -157 447.5 -199.5 c 128,-1,37
 387 -242 387 -242 295 -242 c 0,38,39
 172 -242 172 -242 114 -193.5 c 128,-1,40
 56 -145 56 -145 56 -71 c 0,41,42
 56 -19 56 -19 84 20 c 128,-1,43
 112 59 112 59 152.5 81 c 128,-1,44
 193 103 193 103 233.5 121 c 128,-1,45
 274 139 274 139 302 162 c 128,-1,46
 330 185 330 185 330 215 c 128,-1,47
 330 245 330 245 309 262 c 128,-1,48
 288 279 288 279 259 279 c 0,49,50
 206 279 206 279 166 228 c 1,51,-1
 153 240 l 1,52,53
 196 297 196 297 258 297 c 0,54,8
 295 297 295 297 323.5 274 c 128,-1,9
EndSplineSet
EndChar

StartChar: Agrave
Encoding: 192 192 130
Width: 612
GlyphClass: 2
Flags: W
LayerCount: 2
Fore
SplineSet
632 25 m 1,0,-1
 632 9 l 1,1,-1
 310 9 l 1,2,-1
 310 25 l 1,3,-1
 378 25 l 1,4,-1
 298 251 l 1,5,-1
 135 251 l 1,6,-1
 96 138 l 2,7,8
 86 111 86 111 86 87 c 0,9,10
 86 25 86 25 176 25 c 2,11,-1
 209 25 l 1,12,-1
 209 9 l 1,13,-1
 -47 9 l 1,14,-1
 -47 25 l 1,15,16
 -17 25 -17 25 3 31.5 c 128,-1,17
 23 38 23 38 37 57 c 128,-1,18
 51 76 51 76 58 92.5 c 128,-1,19
 65 109 65 109 78 145 c 2,20,-1
 247 629 l 2,21,22
 261 671 261 671 278 687 c 0,23,24
 305 711 305 711 351 711 c 1,25,-1
 594 25 l 1,26,-1
 632 25 l 1,0,-1
217 482 m 1,27,-1
 140 265 l 1,28,-1
 293 265 l 1,29,-1
 217 482 l 1,27,-1
158 838 m 1,30,-1
 163 856 l 1,31,-1
 461 774 l 1,32,-1
 456 757 l 1,33,-1
 158 838 l 1,30,-1
EndSplineSet
EndChar

StartChar: Aacute
Encoding: 193 193 131
Width: 612
GlyphClass: 2
Flags: W
LayerCount: 2
Fore
SplineSet
632 25 m 1,0,-1
 632 9 l 1,1,-1
 310 9 l 1,2,-1
 310 25 l 1,3,-1
 378 25 l 1,4,-1
 298 251 l 1,5,-1
 135 251 l 1,6,-1
 96 138 l 2,7,8
 86 111 86 111 86 87 c 0,9,10
 86 25 86 25 176 25 c 2,11,-1
 209 25 l 1,12,-1
 209 9 l 1,13,-1
 -47 9 l 1,14,-1
 -47 25 l 1,15,16
 -17 25 -17 25 3 31.5 c 128,-1,17
 23 38 23 38 37 57 c 128,-1,18
 51 76 51 76 58 92.5 c 128,-1,19
 65 109 65 109 78 145 c 2,20,-1
 247 629 l 2,21,22
 261 671 261 671 278 687 c 0,23,24
 305 711 305 711 351 711 c 1,25,-1
 594 25 l 1,26,-1
 632 25 l 1,0,-1
217 482 m 1,27,-1
 140 265 l 1,28,-1
 293 265 l 1,29,-1
 217 482 l 1,27,-1
502 856 m 1,30,-1
 507 838 l 1,31,-1
 209 757 l 1,32,-1
 204 774 l 1,33,-1
 502 856 l 1,30,-1
EndSplineSet
EndChar

StartChar: Acircumflex
Encoding: 194 194 132
Width: 612
GlyphClass: 2
Flags: W
LayerCount: 2
Fore
SplineSet
632 25 m 1,0,-1
 632 9 l 1,1,-1
 310 9 l 1,2,-1
 310 25 l 1,3,-1
 375 25 l 1,4,-1
 298 247 l 1,5,-1
 133 247 l 1,6,-1
 98 144 l 2,7,8
 85 105 85 105 85 86 c 0,9,10
 85 51 85 51 108.5 38 c 128,-1,11
 132 25 132 25 175 25 c 2,12,-1
 210 25 l 1,13,-1
 210 9 l 1,14,-1
 -47 9 l 1,15,-1
 -47 25 l 1,16,17
 -17 25 -17 25 2.5 31.5 c 128,-1,18
 22 38 22 38 36 57.5 c 128,-1,19
 50 77 50 77 56.5 92 c 128,-1,20
 63 107 63 107 76 145 c 2,21,-1
 249 635 l 2,22,23
 257 658 257 658 264 671 c 128,-1,24
 271 684 271 684 293.5 697.5 c 128,-1,25
 316 711 316 711 351 711 c 1,26,-1
 590 25 l 1,27,-1
 632 25 l 1,0,-1
216 485 m 1,28,-1
 139 263 l 1,29,-1
 293 263 l 1,30,-1
 216 485 l 1,28,-1
304 836 m 1,31,-1
 304 856 l 1,32,-1
 489 779 l 1,33,-1
 483 762 l 1,34,-1
 304 836 l 1,31,-1
304 856 m 1,35,-1
 304 836 l 1,36,-1
 125 762 l 1,37,-1
 119 779 l 1,38,-1
 304 856 l 1,35,-1
EndSplineSet
EndChar

StartChar: Atilde
Encoding: 195 195 133
Width: 612
GlyphClass: 2
Flags: W
LayerCount: 2
Fore
SplineSet
632 25 m 1,0,-1
 632 9 l 1,1,-1
 310 9 l 1,2,-1
 310 25 l 1,3,-1
 378 25 l 1,4,-1
 298 251 l 1,5,-1
 135 251 l 1,6,-1
 96 138 l 2,7,8
 86 111 86 111 86 87 c 0,9,10
 86 25 86 25 176 25 c 2,11,-1
 209 25 l 1,12,-1
 209 9 l 1,13,-1
 -47 9 l 1,14,-1
 -47 25 l 1,15,16
 -17 25 -17 25 3 31.5 c 128,-1,17
 23 38 23 38 37 57 c 128,-1,18
 51 76 51 76 58 92.5 c 128,-1,19
 65 109 65 109 78 145 c 2,20,-1
 247 629 l 2,21,22
 261 671 261 671 278 687 c 0,23,24
 305 711 305 711 351 711 c 1,25,-1
 594 25 l 1,26,-1
 632 25 l 1,0,-1
217 482 m 1,27,-1
 140 265 l 1,28,-1
 293 265 l 1,29,-1
 217 482 l 1,27,-1
373 775 m 0,30,31
 346 775 346 775 299 791 c 128,-1,32
 252 807 252 807 226 807 c 128,-1,33
 200 807 200 807 179.5 798.5 c 128,-1,34
 159 790 159 790 150 782 c 2,35,-1
 140 774 l 1,36,-1
 126 789 l 1,37,38
 166 827 166 827 223 827 c 0,39,40
 258 827 258 827 303.5 811 c 128,-1,41
 349 795 349 795 373.5 795 c 128,-1,42
 398 795 398 795 418.5 803.5 c 128,-1,43
 439 812 439 812 448 820 c 2,44,-1
 458 828 l 1,45,-1
 472 813 l 1,46,47
 434 775 434 775 373 775 c 0,30,31
EndSplineSet
EndChar

StartChar: Adieresis
Encoding: 196 196 134
Width: 612
GlyphClass: 2
Flags: W
LayerCount: 2
Fore
SplineSet
632 25 m 1,0,-1
 632 9 l 1,1,-1
 310 9 l 1,2,-1
 310 25 l 1,3,-1
 378 25 l 1,4,-1
 298 251 l 1,5,-1
 135 251 l 1,6,-1
 96 138 l 2,7,8
 86 111 86 111 86 87 c 0,9,10
 86 25 86 25 176 25 c 2,11,-1
 209 25 l 1,12,-1
 209 9 l 1,13,-1
 -47 9 l 1,14,-1
 -47 25 l 1,15,16
 -17 25 -17 25 3 31.5 c 128,-1,17
 23 38 23 38 37 57 c 128,-1,18
 51 76 51 76 58 92.5 c 128,-1,19
 65 109 65 109 78 145 c 2,20,-1
 247 629 l 2,21,22
 261 671 261 671 278 687 c 0,23,24
 305 711 305 711 351 711 c 1,25,-1
 594 25 l 1,26,-1
 632 25 l 1,0,-1
217 482 m 1,27,-1
 140 265 l 1,28,-1
 293 265 l 1,29,-1
 217 482 l 1,27,-1
333 816 m 128,-1,31
 333 841 333 841 351 858.5 c 128,-1,32
 369 876 369 876 394 876 c 128,-1,33
 419 876 419 876 436.5 858.5 c 128,-1,34
 454 841 454 841 454 816 c 128,-1,35
 454 791 454 791 436.5 773 c 128,-1,36
 419 755 419 755 394 755 c 128,-1,37
 369 755 369 755 351 773 c 128,-1,30
 333 791 333 791 333 816 c 128,-1,31
153 816 m 128,-1,39
 153 841 153 841 170.5 858.5 c 128,-1,40
 188 876 188 876 213 876 c 128,-1,41
 238 876 238 876 256 858.5 c 128,-1,42
 274 841 274 841 274 816 c 128,-1,43
 274 791 274 791 256 773 c 128,-1,44
 238 755 238 755 213 755 c 128,-1,45
 188 755 188 755 170.5 773 c 128,-1,38
 153 791 153 791 153 816 c 128,-1,39
EndSplineSet
EndChar

StartChar: Aring
Encoding: 197 197 135
Width: 612
GlyphClass: 2
Flags: W
LayerCount: 2
Fore
SplineSet
632 25 m 1,0,-1
 632 9 l 1,1,-1
 310 9 l 1,2,-1
 310 25 l 1,3,-1
 378 25 l 1,4,-1
 298 251 l 1,5,-1
 135 251 l 1,6,-1
 96 138 l 2,7,8
 86 111 86 111 86 87 c 0,9,10
 86 25 86 25 176 25 c 2,11,-1
 209 25 l 1,12,-1
 209 9 l 1,13,-1
 -47 9 l 1,14,-1
 -47 25 l 1,15,16
 -17 25 -17 25 3 31.5 c 128,-1,17
 23 38 23 38 37 57 c 128,-1,18
 51 76 51 76 58 92.5 c 128,-1,19
 65 109 65 109 78 145 c 2,20,-1
 247 629 l 2,21,22
 261 671 261 671 278 687 c 0,23,24
 305 711 305 711 351 711 c 1,25,-1
 594 25 l 1,26,-1
 632 25 l 1,0,-1
217 482 m 1,27,-1
 140 265 l 1,28,-1
 293 265 l 1,29,-1
 217 482 l 1,27,-1
264 816 m 128,-1,31
 264 799 264 799 276.5 786 c 128,-1,32
 289 773 289 773 305.5 773 c 128,-1,33
 322 773 322 773 334.5 786 c 128,-1,34
 347 799 347 799 347 816 c 128,-1,35
 347 833 347 833 334.5 845.5 c 128,-1,36
 322 858 322 858 305.5 858 c 128,-1,37
 289 858 289 858 276.5 845.5 c 128,-1,30
 264 833 264 833 264 816 c 128,-1,31
263 772.5 m 128,-1,39
 246 790 246 790 246 815.5 c 128,-1,40
 246 841 246 841 263 858.5 c 128,-1,41
 280 876 280 876 305 876 c 128,-1,42
 330 876 330 876 347.5 858.5 c 128,-1,43
 365 841 365 841 365 815.5 c 128,-1,44
 365 790 365 790 347.5 772.5 c 128,-1,45
 330 755 330 755 305 755 c 128,-1,38
 280 755 280 755 263 772.5 c 128,-1,39
EndSplineSet
EndChar

StartChar: AE
Encoding: 198 198 136
Width: 912
GlyphClass: 2
Flags: W
LayerCount: 2
Fore
SplineSet
226 347 m 1,0,-1
 226 349 l 1,1,-1
 101 138 l 2,2,3
 82 105 82 105 82 82 c 0,4,5
 82 51 82 51 104 38 c 128,-1,6
 126 25 126 25 157 25 c 2,7,-1
 195 25 l 1,8,-1
 195 9 l 1,9,-1
 -91 9 l 1,10,-1
 -91 25 l 1,11,12
 -25 25 -25 25 8 44 c 128,-1,13
 41 63 41 63 74 120 c 2,14,-1
 379 636 l 2,15,16
 399 671 399 671 426.5 685.5 c 128,-1,17
 454 700 454 700 498 700 c 2,18,-1
 875 700 l 1,19,-1
 875 469 l 1,20,-1
 861 469 l 1,21,22
 861 580 861 580 814 632 c 128,-1,23
 767 684 767 684 651 684 c 2,24,-1
 576 684 l 1,25,-1
 576 361 l 1,26,-1
 613 361 l 2,27,28
 748 361 748 361 748 507 c 1,29,-1
 762 507 l 1,30,-1
 762 198 l 1,31,-1
 748 198 l 1,32,33
 748 271 748 271 711 309 c 128,-1,34
 674 347 674 347 609 347 c 2,35,-1
 576 347 l 1,36,-1
 576 25 l 1,37,-1
 637 25 l 2,38,39
 789 25 789 25 838 104 c 0,40,41
 862 144 862 144 871 189 c 128,-1,42
 880 234 880 234 880 300 c 1,43,-1
 894 300 l 1,44,-1
 894 9 l 1,45,-1
 298 9 l 1,46,-1
 298 25 l 1,47,-1
 372 25 l 1,48,-1
 372 347 l 1,49,-1
 226 347 l 1,0,-1
372 361 m 1,50,-1
 372 585 l 1,51,-1
 365 585 l 1,52,-1
 233 361 l 1,53,-1
 372 361 l 1,50,-1
EndSplineSet
EndChar

StartChar: Ccedilla
Encoding: 199 199 137
Width: 651
GlyphClass: 2
Flags: W
LayerCount: 2
Fore
SplineSet
285.5 618 m 128,-1,1
 252 536 252 536 252 360 c 128,-1,2
 252 184 252 184 285.5 98.5 c 128,-1,3
 319 13 319 13 396 13 c 0,4,5
 458 13 458 13 506.5 53.5 c 128,-1,6
 555 94 555 94 577.5 146.5 c 128,-1,7
 600 199 600 199 600 246 c 1,8,-1
 621 246 l 1,9,10
 614 127 614 127 544 58.5 c 128,-1,11
 474 -10 474 -10 378 -10 c 0,12,13
 205 -10 205 -10 117.5 89.5 c 128,-1,14
 30 189 30 189 30 357 c 0,15,16
 30 491 30 491 111 600 c 0,17,18
 151 653 151 653 219 686 c 128,-1,19
 287 719 287 719 373 719 c 0,20,21
 426 719 426 719 472.5 701.5 c 128,-1,22
 519 684 519 684 538 684 c 128,-1,23
 557 684 557 684 568.5 692.5 c 128,-1,24
 580 701 580 701 587 719 c 1,25,-1
 600 719 l 1,26,-1
 600 435 l 1,27,-1
 587 435 l 1,28,29
 577 469 577 469 573 483.5 c 128,-1,30
 569 498 569 498 557 532 c 128,-1,31
 545 566 545 566 536 583.5 c 128,-1,32
 527 601 527 601 511 627.5 c 128,-1,33
 495 654 495 654 480 667 c 0,34,35
 440 700 440 700 396 700 c 0,36,0
 319 700 319 700 285.5 618 c 128,-1,1
294 -70 m 1,37,38
 320 -53 320 -53 359.5 -53 c 128,-1,39
 399 -53 399 -53 429 -82.5 c 128,-1,40
 459 -112 459 -112 459 -153.5 c 128,-1,41
 459 -195 459 -195 430 -222 c 128,-1,42
 401 -249 401 -249 365 -249 c 128,-1,43
 329 -249 329 -249 307 -223.5 c 128,-1,44
 285 -198 285 -198 285 -166 c 128,-1,45
 285 -134 285 -134 307.5 -114 c 128,-1,46
 330 -94 330 -94 355 -94 c 128,-1,47
 380 -94 380 -94 400 -112 c 128,-1,48
 420 -130 420 -130 421 -151 c 128,-1,49
 422 -172 422 -172 431 -172 c 128,-1,50
 440 -172 440 -172 440 -160 c 0,51,52
 440 -130 440 -130 419 -101 c 128,-1,53
 398 -72 398 -72 358 -72 c 0,54,55
 335 -72 335 -72 312.5 -83.5 c 128,-1,56
 290 -95 290 -95 279 -112 c 1,57,-1
 262 -94 l 1,58,-1
 299 4 l 1,59,-1
 319 -4 l 1,60,-1
 294 -70 l 1,37,38
EndSplineSet
EndChar

StartChar: Egrave
Encoding: 200 200 138
Width: 686
GlyphClass: 2
Flags: W
LayerCount: 2
Fore
SplineSet
30 9 m 1,0,-1
 30 25 l 1,1,-1
 94 25 l 1,2,-1
 94 684 l 1,3,-1
 30 684 l 1,4,-1
 30 700 l 1,5,-1
 597 700 l 1,6,-1
 597 472 l 1,7,-1
 581 472 l 1,8,9
 581 582 581 582 535 633 c 128,-1,10
 489 684 489 684 373 684 c 2,11,-1
 298 684 l 1,12,-1
 298 376 l 1,13,-1
 335 376 l 2,14,15
 467 376 467 376 467 519 c 1,16,-1
 484 519 l 1,17,-1
 484 214 l 1,18,-1
 467 214 l 1,19,20
 467 286 467 286 431.5 323 c 128,-1,21
 396 360 396 360 331 360 c 2,22,-1
 298 360 l 1,23,-1
 298 25 l 1,24,-1
 359 25 l 2,25,26
 510 25 510 25 558 102 c 0,27,28
 583 141 583 141 591.5 185 c 128,-1,29
 600 229 600 229 600 294 c 1,30,-1
 616 294 l 1,31,-1
 616 9 l 1,32,-1
 30 9 l 1,0,-1
191 846 m 1,33,-1
 196 864 l 1,34,-1
 494 782 l 1,35,-1
 489 765 l 1,36,-1
 191 846 l 1,33,-1
EndSplineSet
EndChar

StartChar: Eacute
Encoding: 201 201 139
Width: 686
GlyphClass: 2
Flags: W
LayerCount: 2
Fore
SplineSet
30 9 m 1,0,-1
 30 23 l 1,1,-1
 94 23 l 1,2,-1
 94 686 l 1,3,-1
 30 686 l 1,4,-1
 30 700 l 1,5,-1
 597 700 l 1,6,-1
 597 472 l 1,7,-1
 583 472 l 1,8,9
 583 582 583 582 536 634 c 128,-1,10
 489 686 489 686 373 686 c 2,11,-1
 298 686 l 1,12,-1
 298 375 l 1,13,-1
 335 375 l 2,14,15
 470 375 470 375 470 519 c 1,16,-1
 484 519 l 1,17,-1
 484 214 l 1,18,-1
 470 214 l 1,19,20
 470 286 470 286 433 323.5 c 128,-1,21
 396 361 396 361 331 361 c 2,22,-1
 298 361 l 1,23,-1
 298 23 l 1,24,-1
 359 23 l 2,25,26
 532 23 532 23 577 132 c 0,27,28
 602 192 602 192 602 294 c 1,29,-1
 616 294 l 1,30,-1
 616 9 l 1,31,-1
 30 9 l 1,0,-1
502 856 m 1,32,-1
 507 838 l 1,33,-1
 209 757 l 1,34,-1
 204 774 l 1,35,-1
 502 856 l 1,32,-1
EndSplineSet
EndChar

StartChar: Ecircumflex
Encoding: 202 202 140
Width: 686
GlyphClass: 2
Flags: W
LayerCount: 2
Fore
SplineSet
30 9 m 1,0,-1
 30 25 l 1,1,-1
 94 25 l 1,2,-1
 94 684 l 1,3,-1
 30 684 l 1,4,-1
 30 700 l 1,5,-1
 597 700 l 1,6,-1
 597 472 l 1,7,-1
 581 472 l 1,8,9
 581 582 581 582 535 633 c 128,-1,10
 489 684 489 684 373 684 c 2,11,-1
 298 684 l 1,12,-1
 298 376 l 1,13,-1
 335 376 l 2,14,15
 467 376 467 376 467 519 c 1,16,-1
 484 519 l 1,17,-1
 484 214 l 1,18,-1
 467 214 l 1,19,20
 467 286 467 286 431.5 323 c 128,-1,21
 396 360 396 360 331 360 c 2,22,-1
 298 360 l 1,23,-1
 298 25 l 1,24,-1
 359 25 l 2,25,26
 510 25 510 25 558 102 c 0,27,28
 583 141 583 141 591.5 185 c 128,-1,29
 600 229 600 229 600 294 c 1,30,-1
 616 294 l 1,31,-1
 616 9 l 1,32,-1
 30 9 l 1,0,-1
361 836 m 1,33,-1
 361 856 l 1,34,-1
 546 779 l 1,35,-1
 540 762 l 1,36,-1
 361 836 l 1,33,-1
361 856 m 1,37,-1
 361 836 l 1,38,-1
 182 762 l 1,39,-1
 176 779 l 1,40,-1
 361 856 l 1,37,-1
EndSplineSet
EndChar

StartChar: Edieresis
Encoding: 203 203 141
Width: 686
GlyphClass: 2
Flags: W
LayerCount: 2
Fore
SplineSet
30 9 m 1,0,-1
 30 23 l 1,1,-1
 94 23 l 1,2,-1
 94 686 l 1,3,-1
 30 686 l 1,4,-1
 30 700 l 1,5,-1
 597 700 l 1,6,-1
 597 472 l 1,7,-1
 583 472 l 1,8,9
 583 582 583 582 536 634 c 128,-1,10
 489 686 489 686 373 686 c 2,11,-1
 298 686 l 1,12,-1
 298 375 l 1,13,-1
 335 375 l 2,14,15
 470 375 470 375 470 519 c 1,16,-1
 484 519 l 1,17,-1
 484 214 l 1,18,-1
 470 214 l 1,19,20
 470 286 470 286 433 323.5 c 128,-1,21
 396 361 396 361 331 361 c 2,22,-1
 298 361 l 1,23,-1
 298 23 l 1,24,-1
 359 23 l 2,25,26
 532 23 532 23 577 132 c 0,27,28
 602 192 602 192 602 294 c 1,29,-1
 616 294 l 1,30,-1
 616 9 l 1,31,-1
 30 9 l 1,0,-1
373 816 m 128,-1,33
 373 841 373 841 391 858.5 c 128,-1,34
 409 876 409 876 434 876 c 128,-1,35
 459 876 459 876 476.5 858.5 c 128,-1,36
 494 841 494 841 494 816 c 128,-1,37
 494 791 494 791 476.5 773 c 128,-1,38
 459 755 459 755 434 755 c 128,-1,39
 409 755 409 755 391 773 c 128,-1,32
 373 791 373 791 373 816 c 128,-1,33
193 816 m 128,-1,41
 193 841 193 841 210.5 858.5 c 128,-1,42
 228 876 228 876 253 876 c 128,-1,43
 278 876 278 876 296 858.5 c 128,-1,44
 314 841 314 841 314 816 c 128,-1,45
 314 791 314 791 296 773 c 128,-1,46
 278 755 278 755 253 755 c 128,-1,47
 228 755 228 755 210.5 773 c 128,-1,40
 193 791 193 791 193 816 c 128,-1,41
EndSplineSet
EndChar

StartChar: Igrave
Encoding: 204 204 142
Width: 424
GlyphClass: 2
Flags: W
LayerCount: 2
Fore
SplineSet
394 25 m 1,0,-1
 394 9 l 1,1,-1
 30 9 l 1,2,-1
 30 25 l 1,3,-1
 104 25 l 1,4,-1
 104 684 l 1,5,-1
 30 684 l 1,6,-1
 30 700 l 1,7,-1
 392 700 l 1,8,-1
 392 684 l 1,9,-1
 308 684 l 1,10,-1
 308 25 l 1,11,-1
 394 25 l 1,0,-1
60 850 m 1,12,-1
 65 868 l 1,13,-1
 363 786 l 1,14,-1
 358 769 l 1,15,-1
 60 850 l 1,12,-1
EndSplineSet
EndChar

StartChar: Iacute
Encoding: 205 205 143
Width: 424
GlyphClass: 2
Flags: W
LayerCount: 2
Fore
SplineSet
394 25 m 1,0,-1
 394 9 l 1,1,-1
 30 9 l 1,2,-1
 30 25 l 1,3,-1
 104 25 l 1,4,-1
 104 684 l 1,5,-1
 30 684 l 1,6,-1
 30 700 l 1,7,-1
 392 700 l 1,8,-1
 392 684 l 1,9,-1
 308 684 l 1,10,-1
 308 25 l 1,11,-1
 394 25 l 1,0,-1
372 856 m 1,12,-1
 377 838 l 1,13,-1
 79 757 l 1,14,-1
 74 774 l 1,15,-1
 372 856 l 1,12,-1
EndSplineSet
EndChar

StartChar: Icircumflex
Encoding: 206 206 144
Width: 424
GlyphClass: 2
Flags: W
LayerCount: 2
Fore
SplineSet
394 25 m 1,0,-1
 394 9 l 1,1,-1
 30 9 l 1,2,-1
 30 25 l 1,3,-1
 104 25 l 1,4,-1
 104 684 l 1,5,-1
 30 684 l 1,6,-1
 30 700 l 1,7,-1
 392 700 l 1,8,-1
 392 684 l 1,9,-1
 308 684 l 1,10,-1
 308 25 l 1,11,-1
 394 25 l 1,0,-1
210 836 m 1,12,-1
 210 856 l 1,13,-1
 395 779 l 1,14,-1
 389 762 l 1,15,-1
 210 836 l 1,12,-1
210 856 m 1,16,-1
 210 836 l 1,17,-1
 31 762 l 1,18,-1
 25 779 l 1,19,-1
 210 856 l 1,16,-1
EndSplineSet
EndChar

StartChar: Idieresis
Encoding: 207 207 145
Width: 424
GlyphClass: 2
Flags: W
LayerCount: 2
Fore
SplineSet
394 23 m 1,0,-1
 394 9 l 1,1,-1
 30 9 l 1,2,-1
 30 23 l 1,3,-1
 104 23 l 1,4,-1
 104 686 l 1,5,-1
 30 686 l 1,6,-1
 30 700 l 1,7,-1
 392 700 l 1,8,-1
 392 686 l 1,9,-1
 308 686 l 1,10,-1
 308 23 l 1,11,-1
 394 23 l 1,0,-1
235 816 m 128,-1,13
 235 841 235 841 253 858.5 c 128,-1,14
 271 876 271 876 296 876 c 128,-1,15
 321 876 321 876 338.5 858.5 c 128,-1,16
 356 841 356 841 356 816 c 128,-1,17
 356 791 356 791 338.5 773 c 128,-1,18
 321 755 321 755 296 755 c 128,-1,19
 271 755 271 755 253 773 c 128,-1,12
 235 791 235 791 235 816 c 128,-1,13
55 816 m 128,-1,21
 55 841 55 841 72.5 858.5 c 128,-1,22
 90 876 90 876 115 876 c 128,-1,23
 140 876 140 876 158 858.5 c 128,-1,24
 176 841 176 841 176 816 c 128,-1,25
 176 791 176 791 158 773 c 128,-1,26
 140 755 140 755 115 755 c 128,-1,27
 90 755 90 755 72.5 773 c 128,-1,20
 55 791 55 791 55 816 c 128,-1,21
EndSplineSet
EndChar

StartChar: Eth
Encoding: 208 208 146
Width: 762
GlyphClass: 2
Flags: W
LayerCount: 2
Fore
SplineSet
351 0 m 2,0,-1
 30 0 l 1,1,-1
 30 14 l 1,2,-1
 94 14 l 1,3,-1
 94 356 l 1,4,-1
 30 356 l 1,5,-1
 30 377 l 1,6,-1
 94 377 l 1,7,-1
 94 686 l 1,8,-1
 30 686 l 1,9,-1
 30 700 l 1,10,-1
 341 700 l 2,11,12
 551 700 551 700 644 602 c 0,13,14
 732 509 732 509 732 353.5 c 128,-1,15
 732 198 732 198 639.5 99 c 128,-1,16
 547 0 547 0 351 0 c 2,0,-1
298 14 m 1,17,-1
 331 14 l 2,18,19
 421 14 421 14 465.5 92 c 128,-1,20
 510 170 510 170 510 354 c 128,-1,21
 510 538 510 538 465 612 c 128,-1,22
 420 686 420 686 338 686 c 2,23,-1
 298 686 l 1,24,-1
 298 377 l 1,25,-1
 406 377 l 1,26,-1
 406 356 l 1,27,-1
 298 356 l 1,28,-1
 298 14 l 1,17,-1
EndSplineSet
EndChar

StartChar: Ntilde
Encoding: 209 209 147
Width: 689
GlyphClass: 2
Flags: W
LayerCount: 2
Fore
SplineSet
116 505 m 2,0,-1
 116 119 l 2,1,2
 116 71 116 71 86.5 35.5 c 128,-1,3
 57 0 57 0 6.5 0 c 128,-1,4
 -44 0 -44 0 -76.5 31 c 128,-1,5
 -109 62 -109 62 -109 103 c 128,-1,6
 -109 144 -109 144 -83 172 c 128,-1,7
 -57 200 -57 200 -18.5 200 c 128,-1,8
 20 200 20 200 46.5 176.5 c 128,-1,9
 73 153 73 153 73 114 c 0,10,11
 73 92 73 92 65.5 76 c 128,-1,12
 58 60 58 60 50 55 c 0,13,14
 38 48 38 48 36 46 c 0,15,16
 28 42 28 42 28 37 c 0,17,18
 28 27 28 27 37 27 c 0,19,20
 41 27 41 27 49 31 c 0,21,22
 96 54 96 54 96 117 c 2,23,-1
 96 509 l 2,24,25
 96 565 96 565 75 612 c 1,26,27
 65 631 65 631 49 650 c 0,28,29
 22 684 22 684 -11 684 c 1,30,-1
 -11 700 l 1,31,-1
 194 700 l 2,32,33
 235 700 235 700 261.5 686.5 c 128,-1,34
 288 673 288 673 317 627 c 2,35,-1
 570 220 l 1,36,-1
 574 220 l 1,37,-1
 574 466 l 2,38,39
 574 618 574 618 548 650 c 0,40,41
 519 684 519 684 461 684 c 2,42,-1
 428 684 l 1,43,-1
 428 700 l 1,44,-1
 719 700 l 1,45,-1
 719 684 l 1,46,-1
 707 684 l 1,47,48
 650 682 650 682 629 654 c 0,49,50
 617 639 617 639 609.5 623.5 c 128,-1,51
 602 608 602 608 599 579 c 0,52,53
 594 531 594 531 594 465 c 2,54,-1
 594 9 l 1,55,-1
 535 9 l 2,56,57
 494 9 494 9 467.5 22.5 c 128,-1,58
 441 36 441 36 412 82 c 2,59,-1
 112 554 l 1,60,61
 116 535 116 535 116 505 c 2,0,-1
426 781 m 0,62,63
 399 781 399 781 352 797 c 128,-1,64
 305 813 305 813 279 813 c 128,-1,65
 253 813 253 813 232.5 804.5 c 128,-1,66
 212 796 212 796 202 788 c 2,67,-1
 193 780 l 1,68,-1
 179 795 l 1,69,70
 219 833 219 833 276 833 c 0,71,72
 311 833 311 833 356.5 817 c 128,-1,73
 402 801 402 801 426.5 801 c 128,-1,74
 451 801 451 801 471.5 809.5 c 128,-1,75
 492 818 492 818 502 826 c 2,76,-1
 511 834 l 1,77,-1
 525 819 l 1,78,79
 487 781 487 781 426 781 c 0,62,63
EndSplineSet
EndChar

StartChar: Ograve
Encoding: 210 210 148
Width: 746
GlyphClass: 2
Flags: W
LayerCount: 2
Fore
SplineSet
373 -10 m 128,-1,1
 304 -10 304 -10 246 11.5 c 128,-1,2
 188 33 188 33 148.5 68.5 c 128,-1,3
 109 104 109 104 82 152 c 0,4,5
 30 243 30 243 30 357 c 0,6,7
 30 491 30 491 111 600 c 0,8,9
 151 653 151 653 219 686 c 128,-1,10
 287 719 287 719 373 719 c 128,-1,11
 459 719 459 719 527 687.5 c 128,-1,12
 595 656 595 656 635 604 c 0,13,14
 716 497 716 497 716 357 c 0,15,16
 716 243 716 243 664 152 c 0,17,18
 607 51 607 51 500 12 c 0,19,0
 442 -10 442 -10 373 -10 c 128,-1,1
373 9 m 128,-1,21
 415 9 415 9 440 37.5 c 128,-1,22
 465 66 465 66 479.5 143.5 c 128,-1,23
 494 221 494 221 494 357 c 128,-1,24
 494 493 494 493 479.5 569.5 c 128,-1,25
 465 646 465 646 440 673 c 128,-1,26
 415 700 415 700 373 700 c 128,-1,27
 331 700 331 700 306 673 c 128,-1,28
 281 646 281 646 266.5 569.5 c 128,-1,29
 252 493 252 493 252 357 c 128,-1,30
 252 221 252 221 266.5 143.5 c 128,-1,31
 281 66 281 66 306 37.5 c 128,-1,20
 331 9 331 9 373 9 c 128,-1,21
235 838 m 1,32,-1
 240 856 l 1,33,-1
 538 774 l 1,34,-1
 533 757 l 1,35,-1
 235 838 l 1,32,-1
EndSplineSet
EndChar

StartChar: Oacute
Encoding: 211 211 149
Width: 746
GlyphClass: 2
Flags: W
LayerCount: 2
Fore
SplineSet
373 -10 m 128,-1,1
 304 -10 304 -10 246 11.5 c 128,-1,2
 188 33 188 33 148.5 68.5 c 128,-1,3
 109 104 109 104 82 152 c 0,4,5
 30 243 30 243 30 357 c 0,6,7
 30 491 30 491 111 600 c 0,8,9
 151 653 151 653 219 686 c 128,-1,10
 287 719 287 719 373 719 c 128,-1,11
 459 719 459 719 527 687.5 c 128,-1,12
 595 656 595 656 635 604 c 0,13,14
 716 497 716 497 716 357 c 0,15,16
 716 243 716 243 664 152 c 0,17,18
 607 51 607 51 500 12 c 0,19,0
 442 -10 442 -10 373 -10 c 128,-1,1
373 9 m 128,-1,21
 415 9 415 9 440 37.5 c 128,-1,22
 465 66 465 66 479.5 143.5 c 128,-1,23
 494 221 494 221 494 357 c 128,-1,24
 494 493 494 493 479.5 569.5 c 128,-1,25
 465 646 465 646 440 673 c 128,-1,26
 415 700 415 700 373 700 c 128,-1,27
 331 700 331 700 306 673 c 128,-1,28
 281 646 281 646 266.5 569.5 c 128,-1,29
 252 493 252 493 252 357 c 128,-1,30
 252 221 252 221 266.5 143.5 c 128,-1,31
 281 66 281 66 306 37.5 c 128,-1,20
 331 9 331 9 373 9 c 128,-1,21
492 856 m 1,32,-1
 497 838 l 1,33,-1
 199 757 l 1,34,-1
 194 774 l 1,35,-1
 492 856 l 1,32,-1
EndSplineSet
EndChar

StartChar: Ocircumflex
Encoding: 212 212 150
Width: 746
GlyphClass: 2
Flags: W
LayerCount: 2
Fore
SplineSet
373 -10 m 128,-1,1
 304 -10 304 -10 246 11.5 c 128,-1,2
 188 33 188 33 148.5 68.5 c 128,-1,3
 109 104 109 104 82 152 c 0,4,5
 30 243 30 243 30 357 c 0,6,7
 30 491 30 491 111 600 c 0,8,9
 151 653 151 653 219 686 c 128,-1,10
 287 719 287 719 373 719 c 128,-1,11
 459 719 459 719 527 687.5 c 128,-1,12
 595 656 595 656 635 604 c 0,13,14
 716 497 716 497 716 357 c 0,15,16
 716 243 716 243 664 152 c 0,17,18
 607 51 607 51 500 12 c 0,19,0
 442 -10 442 -10 373 -10 c 128,-1,1
373 9 m 128,-1,21
 415 9 415 9 440 37.5 c 128,-1,22
 465 66 465 66 479.5 143.5 c 128,-1,23
 494 221 494 221 494 357 c 128,-1,24
 494 493 494 493 479.5 569.5 c 128,-1,25
 465 646 465 646 440 673 c 128,-1,26
 415 700 415 700 373 700 c 128,-1,27
 331 700 331 700 306 673 c 128,-1,28
 281 646 281 646 266.5 569.5 c 128,-1,29
 252 493 252 493 252 357 c 128,-1,30
 252 221 252 221 266.5 143.5 c 128,-1,31
 281 66 281 66 306 37.5 c 128,-1,20
 331 9 331 9 373 9 c 128,-1,21
374 836 m 1,32,-1
 374 856 l 1,33,-1
 559 779 l 1,34,-1
 553 762 l 1,35,-1
 374 836 l 1,32,-1
374 856 m 1,36,-1
 374 836 l 1,37,-1
 195 762 l 1,38,-1
 189 779 l 1,39,-1
 374 856 l 1,36,-1
EndSplineSet
EndChar

StartChar: Otilde
Encoding: 213 213 151
Width: 746
GlyphClass: 2
Flags: W
LayerCount: 2
Fore
SplineSet
373 -10 m 128,-1,1
 304 -10 304 -10 246 11.5 c 128,-1,2
 188 33 188 33 148.5 68.5 c 128,-1,3
 109 104 109 104 82 152 c 0,4,5
 30 243 30 243 30 357 c 0,6,7
 30 491 30 491 111 600 c 0,8,9
 151 653 151 653 219 686 c 128,-1,10
 287 719 287 719 373 719 c 128,-1,11
 459 719 459 719 527 687.5 c 128,-1,12
 595 656 595 656 635 604 c 0,13,14
 716 497 716 497 716 357 c 0,15,16
 716 243 716 243 664 152 c 0,17,18
 607 51 607 51 500 12 c 0,19,0
 442 -10 442 -10 373 -10 c 128,-1,1
373 9 m 128,-1,21
 415 9 415 9 440 37.5 c 128,-1,22
 465 66 465 66 479.5 143.5 c 128,-1,23
 494 221 494 221 494 357 c 128,-1,24
 494 493 494 493 479.5 569.5 c 128,-1,25
 465 646 465 646 440 673 c 128,-1,26
 415 700 415 700 373 700 c 128,-1,27
 331 700 331 700 306 673 c 128,-1,28
 281 646 281 646 266.5 569.5 c 128,-1,29
 252 493 252 493 252 357 c 128,-1,30
 252 221 252 221 266.5 143.5 c 128,-1,31
 281 66 281 66 306 37.5 c 128,-1,20
 331 9 331 9 373 9 c 128,-1,21
450 775 m 0,32,33
 423 775 423 775 376 791 c 128,-1,34
 329 807 329 807 303 807 c 128,-1,35
 277 807 277 807 256.5 798.5 c 128,-1,36
 236 790 236 790 226 782 c 2,37,-1
 217 774 l 1,38,-1
 203 789 l 1,39,40
 243 827 243 827 300 827 c 0,41,42
 335 827 335 827 380.5 811 c 128,-1,43
 426 795 426 795 450.5 795 c 128,-1,44
 475 795 475 795 495.5 803.5 c 128,-1,45
 516 812 516 812 526 820 c 2,46,-1
 535 828 l 1,47,-1
 549 813 l 1,48,49
 511 775 511 775 450 775 c 0,32,33
EndSplineSet
EndChar

StartChar: Odieresis
Encoding: 214 214 152
Width: 746
GlyphClass: 2
Flags: W
LayerCount: 2
Fore
SplineSet
373 -10 m 128,-1,1
 304 -10 304 -10 246 11.5 c 128,-1,2
 188 33 188 33 148.5 68.5 c 128,-1,3
 109 104 109 104 82 152 c 0,4,5
 30 243 30 243 30 357 c 0,6,7
 30 491 30 491 111 600 c 0,8,9
 151 653 151 653 219 686 c 128,-1,10
 287 719 287 719 373 719 c 128,-1,11
 459 719 459 719 527 687.5 c 128,-1,12
 595 656 595 656 635 604 c 0,13,14
 716 497 716 497 716 357 c 0,15,16
 716 243 716 243 664 152 c 0,17,18
 607 51 607 51 500 12 c 0,19,0
 442 -10 442 -10 373 -10 c 128,-1,1
373 9 m 128,-1,21
 415 9 415 9 440 37.5 c 128,-1,22
 465 66 465 66 479.5 143.5 c 128,-1,23
 494 221 494 221 494 357 c 128,-1,24
 494 493 494 493 479.5 569.5 c 128,-1,25
 465 646 465 646 440 673 c 128,-1,26
 415 700 415 700 373 700 c 128,-1,27
 331 700 331 700 306 673 c 128,-1,28
 281 646 281 646 266.5 569.5 c 128,-1,29
 252 493 252 493 252 357 c 128,-1,30
 252 221 252 221 266.5 143.5 c 128,-1,31
 281 66 281 66 306 37.5 c 128,-1,20
 331 9 331 9 373 9 c 128,-1,21
403 816 m 128,-1,33
 403 841 403 841 421 858.5 c 128,-1,34
 439 876 439 876 464 876 c 128,-1,35
 489 876 489 876 506.5 858.5 c 128,-1,36
 524 841 524 841 524 816 c 128,-1,37
 524 791 524 791 506.5 773 c 128,-1,38
 489 755 489 755 464 755 c 128,-1,39
 439 755 439 755 421 773 c 128,-1,32
 403 791 403 791 403 816 c 128,-1,33
223 816 m 128,-1,41
 223 841 223 841 240.5 858.5 c 128,-1,42
 258 876 258 876 283 876 c 128,-1,43
 308 876 308 876 326 858.5 c 128,-1,44
 344 841 344 841 344 816 c 128,-1,45
 344 791 344 791 326 773 c 128,-1,46
 308 755 308 755 283 755 c 128,-1,47
 258 755 258 755 240.5 773 c 128,-1,40
 223 791 223 791 223 816 c 128,-1,41
EndSplineSet
EndChar

StartChar: multiply
Encoding: 215 215 153
Width: 456
GlyphClass: 2
Flags: W
LayerCount: 2
Fore
SplineSet
70 394 m 1,0,-1
 86 408 l 1,1,-1
 236 252 l 1,2,-1
 387 408 l 1,3,-1
 402 393 l 1,4,-1
 251 237 l 1,5,-1
 412 72 l 1,6,-1
 397 57 l 1,7,-1
 237 222 l 1,8,-1
 77 57 l 1,9,-1
 62 72 l 1,10,-1
 222 237 l 1,11,-1
 70 394 l 1,0,-1
EndSplineSet
EndChar

StartChar: Oslash
Encoding: 216 216 154
Width: 746
GlyphClass: 2
Flags: W
LayerCount: 2
Fore
SplineSet
111 600 m 0,0,1
 151 653 151 653 219 686 c 128,-1,2
 287 719 287 719 362.5 719 c 128,-1,3
 438 719 438 719 493 700 c 1,4,-1
 528 799 l 1,5,-1
 550 792 l 1,6,-1
 515 692 l 1,7,8
 613 651 613 651 664.5 558.5 c 128,-1,9
 716 466 716 466 716 357 c 0,10,11
 716 243 716 243 664 152 c 0,12,13
 607 51 607 51 500 12 c 0,14,15
 442 -10 442 -10 381 -10 c 128,-1,16
 320 -10 320 -10 270 3 c 1,17,-1
 232 -106 l 1,18,-1
 211 -99 l 1,19,-1
 249 10 l 1,20,21
 142 48 142 48 86 145 c 128,-1,22
 30 242 30 242 30 366.5 c 128,-1,23
 30 491 30 491 111 600 c 0,0,1
266.5 569.5 m 128,-1,25
 252 493 252 493 252 333.5 c 128,-1,26
 252 174 252 174 278 91 c 1,27,-1
 466 624 l 1,28,29
 440 700 440 700 373 700 c 0,30,31
 331 700 331 700 306 673 c 128,-1,24
 281 646 281 646 266.5 569.5 c 128,-1,25
373 9 m 0,32,33
 415 9 415 9 440 38 c 0,34,35
 494 99 494 99 494 357 c 0,36,37
 494 505 494 505 477 585 c 1,38,-1
 291 60 l 1,39,40
 318 9 318 9 373 9 c 0,32,33
EndSplineSet
EndChar

StartChar: Ugrave
Encoding: 217 217 155
Width: 734
GlyphClass: 2
Flags: W
LayerCount: 2
Fore
SplineSet
764 700 m 1,0,-1
 764 684 l 1,1,2
 633 684 633 684 633 500 c 2,3,-1
 633 302 l 2,4,5
 633 136 633 136 579 63 c 128,-1,6
 525 -10 525 -10 383.5 -10 c 128,-1,7
 242 -10 242 -10 174 52 c 0,8,9
 94 124 94 124 94 349 c 2,10,-1
 94 684 l 1,11,-1
 30 684 l 1,12,-1
 30 700 l 1,13,-1
 362 700 l 1,14,-1
 362 684 l 1,15,-1
 298 684 l 1,16,-1
 298 356 l 2,17,18
 298 279 298 279 305 204 c 0,19,20
 309 162 309 162 319 133 c 128,-1,21
 329 104 329 104 344.5 77 c 128,-1,22
 360 50 360 50 385.5 36 c 128,-1,23
 411 22 411 22 446 22 c 128,-1,24
 481 22 481 22 509 32 c 0,25,26
 558 51 558 51 586 108 c 0,27,28
 615 168 615 168 615 303 c 2,29,-1
 615 500 l 2,30,31
 615 594 615 594 575 639 c 128,-1,32
 535 684 535 684 444 684 c 1,33,-1
 444 700 l 1,34,-1
 764 700 l 1,0,-1
218 838 m 1,35,-1
 223 856 l 1,36,-1
 521 774 l 1,37,-1
 516 757 l 1,38,-1
 218 838 l 1,35,-1
EndSplineSet
EndChar

StartChar: Uacute
Encoding: 218 218 156
Width: 734
GlyphClass: 2
Flags: W
LayerCount: 2
Fore
SplineSet
764 700 m 1,0,-1
 764 684 l 1,1,2
 633 684 633 684 633 500 c 2,3,-1
 633 302 l 2,4,5
 633 136 633 136 579 63 c 128,-1,6
 525 -10 525 -10 383.5 -10 c 128,-1,7
 242 -10 242 -10 174 52 c 0,8,9
 94 124 94 124 94 349 c 2,10,-1
 94 684 l 1,11,-1
 30 684 l 1,12,-1
 30 700 l 1,13,-1
 362 700 l 1,14,-1
 362 684 l 1,15,-1
 298 684 l 1,16,-1
 298 356 l 2,17,18
 298 279 298 279 305 204 c 0,19,20
 309 162 309 162 319 133 c 128,-1,21
 329 104 329 104 344.5 77 c 128,-1,22
 360 50 360 50 385.5 36 c 128,-1,23
 411 22 411 22 446 22 c 128,-1,24
 481 22 481 22 509 32 c 0,25,26
 558 51 558 51 586 108 c 0,27,28
 615 168 615 168 615 303 c 2,29,-1
 615 500 l 2,30,31
 615 594 615 594 575 639 c 128,-1,32
 535 684 535 684 444 684 c 1,33,-1
 444 700 l 1,34,-1
 764 700 l 1,0,-1
562 856 m 1,35,-1
 567 838 l 1,36,-1
 269 757 l 1,37,-1
 264 774 l 1,38,-1
 562 856 l 1,35,-1
EndSplineSet
EndChar

StartChar: Ucircumflex
Encoding: 219 219 157
Width: 734
GlyphClass: 2
Flags: W
LayerCount: 2
Fore
SplineSet
764 700 m 1,0,-1
 764 684 l 1,1,2
 633 684 633 684 633 500 c 2,3,-1
 633 302 l 2,4,5
 633 136 633 136 579 63 c 128,-1,6
 525 -10 525 -10 383.5 -10 c 128,-1,7
 242 -10 242 -10 174 52 c 0,8,9
 94 124 94 124 94 349 c 2,10,-1
 94 684 l 1,11,-1
 30 684 l 1,12,-1
 30 700 l 1,13,-1
 362 700 l 1,14,-1
 362 684 l 1,15,-1
 298 684 l 1,16,-1
 298 356 l 2,17,18
 298 279 298 279 305 204 c 0,19,20
 309 162 309 162 319 133 c 128,-1,21
 329 104 329 104 344.5 77 c 128,-1,22
 360 50 360 50 385.5 36 c 128,-1,23
 411 22 411 22 446 22 c 128,-1,24
 481 22 481 22 509 32 c 0,25,26
 558 51 558 51 586 108 c 0,27,28
 615 168 615 168 615 303 c 2,29,-1
 615 500 l 2,30,31
 615 594 615 594 575 639 c 128,-1,32
 535 684 535 684 444 684 c 1,33,-1
 444 700 l 1,34,-1
 764 700 l 1,0,-1
413 836 m 1,35,-1
 413 856 l 1,36,-1
 598 779 l 1,37,-1
 592 762 l 1,38,-1
 413 836 l 1,35,-1
413 856 m 1,39,-1
 413 836 l 1,40,-1
 234 762 l 1,41,-1
 228 779 l 1,42,-1
 413 856 l 1,39,-1
EndSplineSet
EndChar

StartChar: Udieresis
Encoding: 220 220 158
Width: 734
GlyphClass: 2
Flags: W
LayerCount: 2
Fore
SplineSet
764 700 m 1,0,-1
 764 686 l 1,1,2
 633 686 633 686 633 502 c 2,3,-1
 633 302 l 2,4,5
 633 136 633 136 579 63.5 c 128,-1,6
 525 -9 525 -9 384 -9 c 128,-1,7
 243 -9 243 -9 174 52 c 0,8,9
 94 124 94 124 94 349 c 2,10,-1
 94 686 l 1,11,-1
 30 686 l 1,12,-1
 30 700 l 1,13,-1
 362 700 l 1,14,-1
 362 686 l 1,15,-1
 298 686 l 1,16,-1
 298 356 l 2,17,18
 298 278 298 278 306 191 c 0,19,20
 312 134 312 134 344 77 c 1,21,22
 376 23 376 23 444 23 c 0,23,24
 529 23 529 23 570 80 c 0,25,26
 615 142 615 142 615 303 c 2,27,-1
 615 502 l 2,28,29
 615 596 615 596 575 641 c 128,-1,30
 535 686 535 686 444 686 c 1,31,-1
 444 700 l 1,32,-1
 764 700 l 1,0,-1
427 816 m 128,-1,34
 427 841 427 841 445 858.5 c 128,-1,35
 463 876 463 876 488 876 c 128,-1,36
 513 876 513 876 530.5 858.5 c 128,-1,37
 548 841 548 841 548 816 c 128,-1,38
 548 791 548 791 530.5 773 c 128,-1,39
 513 755 513 755 488 755 c 128,-1,40
 463 755 463 755 445 773 c 128,-1,33
 427 791 427 791 427 816 c 128,-1,34
247 816 m 128,-1,42
 247 841 247 841 264.5 858.5 c 128,-1,43
 282 876 282 876 307 876 c 128,-1,44
 332 876 332 876 350 858.5 c 128,-1,45
 368 841 368 841 368 816 c 128,-1,46
 368 791 368 791 350 773 c 128,-1,47
 332 755 332 755 307 755 c 128,-1,48
 282 755 282 755 264.5 773 c 128,-1,41
 247 791 247 791 247 816 c 128,-1,42
EndSplineSet
EndChar

StartChar: Yacute
Encoding: 221 221 159
Width: 643
GlyphClass: 2
Flags: W
LayerCount: 2
Fore
SplineSet
516 617 m 0,0,1
 516 686 516 686 411 686 c 2,2,-1
 383 686 l 1,3,-1
 383 700 l 1,4,-1
 673 700 l 1,5,-1
 673 686 l 1,6,7
 582 686 582 686 552 625 c 1,8,-1
 410 300 l 1,9,-1
 410 14 l 1,10,-1
 474 14 l 1,11,-1
 474 0 l 1,12,-1
 142 0 l 1,13,-1
 142 14 l 1,14,-1
 206 14 l 1,15,-1
 206 284 l 1,16,-1
 18 686 l 1,17,-1
 -40 686 l 1,18,-1
 -40 700 l 1,19,-1
 321 700 l 1,20,-1
 321 686 l 1,21,-1
 234 686 l 1,22,-1
 402 326 l 1,23,-1
 497 544 l 1,24,25
 516 585 516 585 516 617 c 0,0,1
482 856 m 1,26,-1
 487 838 l 1,27,-1
 189 757 l 1,28,-1
 184 774 l 1,29,-1
 482 856 l 1,26,-1
EndSplineSet
EndChar

StartChar: Thorn
Encoding: 222 222 160
Width: 666
GlyphClass: 2
Flags: W
LayerCount: 2
Fore
SplineSet
95 684 m 1,0,-1
 27 684 l 1,1,-1
 27 700 l 1,2,-1
 351 700 l 1,3,-1
 351 684 l 1,4,-1
 284 684 l 1,5,-1
 284 570 l 1,6,-1
 355 570 l 2,7,8
 505 570 505 570 573 524 c 128,-1,9
 641 478 641 478 641 378 c 128,-1,10
 641 278 641 278 571.5 227.5 c 128,-1,11
 502 177 502 177 380 177 c 0,12,13
 328 177 328 177 284 188 c 1,14,-1
 284 25 l 1,15,-1
 352 25 l 1,16,-1
 352 9 l 1,17,-1
 28 9 l 1,18,-1
 28 25 l 1,19,-1
 95 25 l 1,20,-1
 95 684 l 1,0,-1
299 554 m 2,21,-1
 284 554 l 1,22,-1
 284 210 l 1,23,24
 310 202 310 202 330 202 c 0,25,26
 439 202 439 202 439 381 c 0,27,28
 439 478 439 478 409.5 516 c 128,-1,29
 380 554 380 554 299 554 c 2,21,-1
EndSplineSet
EndChar

StartChar: germandbls
Encoding: 223 223 161
Width: 688
GlyphClass: 2
Flags: W
LayerCount: 2
Fore
SplineSet
7 9 m 1,0,-1
 7 25 l 1,1,-1
 67 25 l 1,2,-1
 67 517 l 2,3,4
 67 573 67 573 90.5 613.5 c 128,-1,5
 114 654 114 654 154 676 c 0,6,7
 231 719 231 719 340 719 c 0,8,9
 486 719 486 719 547 685.5 c 128,-1,10
 608 652 608 652 608 587 c 0,11,12
 608 528 608 528 560 498 c 1,13,14
 511 469 511 469 440 454 c 0,15,16
 429 451 429 451 423 449 c 128,-1,17
 417 447 417 447 408 444.5 c 128,-1,18
 399 442 399 442 394.5 440 c 128,-1,19
 390 438 390 438 384 435 c 0,20,21
 375 430 375 430 375 422 c 0,22,23
 375 403 375 403 452 378 c 0,24,25
 531 353 531 353 596 312 c 0,26,27
 629 291 629 291 651 255.5 c 128,-1,28
 673 220 673 220 673 176 c 0,29,30
 673 85 673 85 603 37.5 c 128,-1,31
 533 -10 533 -10 459 -10 c 128,-1,32
 385 -10 385 -10 346.5 19 c 128,-1,33
 308 48 308 48 308 91 c 128,-1,34
 308 134 308 134 331 160 c 128,-1,35
 354 186 354 186 390 186 c 128,-1,36
 426 186 426 186 448.5 165 c 128,-1,37
 471 144 471 144 471 112.5 c 128,-1,38
 471 81 471 81 452.5 60.5 c 128,-1,39
 434 40 434 40 406 40 c 128,-1,40
 378 40 378 40 361 60 c 1,41,42
 354 75 354 75 345 75 c 128,-1,43
 336 75 336 75 336 66 c 0,44,45
 336 60 336 60 342 51 c 0,46,47
 374 9 374 9 438 9 c 0,48,49
 481 9 481 9 511 32 c 128,-1,50
 541 55 541 55 541 93.5 c 128,-1,51
 541 132 541 132 517 156.5 c 128,-1,52
 493 181 493 181 458.5 198 c 128,-1,53
 424 215 424 215 389.5 233 c 128,-1,54
 355 251 355 251 331 280.5 c 128,-1,55
 307 310 307 310 307 344.5 c 128,-1,56
 307 379 307 379 321.5 401.5 c 128,-1,57
 336 424 336 424 357 440 c 128,-1,58
 378 456 378 456 398 473 c 0,59,60
 448 514 448 514 448 584 c 0,61,62
 448 700 448 700 345 700 c 0,63,64
 293 700 293 700 274.5 662.5 c 128,-1,65
 256 625 256 625 256 526 c 2,66,-1
 256 25 l 1,67,-1
 316 25 l 1,68,-1
 316 9 l 1,69,-1
 7 9 l 1,0,-1
EndSplineSet
EndChar

StartChar: agrave
Encoding: 224 224 162
Width: 604
GlyphClass: 2
Flags: W
LayerCount: 2
Fore
SplineSet
337 160 m 2,0,-1
 337 253 l 1,1,2
 333 253 333 253 330 253 c 0,3,4
 283 253 283 253 251 227.5 c 128,-1,5
 219 202 219 202 219 146.5 c 128,-1,6
 219 91 219 91 235 65.5 c 128,-1,7
 251 40 251 40 278 40 c 128,-1,8
 305 40 305 40 321 78 c 128,-1,9
 337 116 337 116 337 160 c 2,0,-1
544 47 m 0,10,11
 582 47 582 47 593 147 c 1,12,-1
 611 145 l 1,13,14
 592 -10 592 -10 472 -10 c 0,15,16
 422 -10 422 -10 391 23.5 c 128,-1,17
 360 57 360 57 356 104 c 1,18,-1
 350 104 l 1,19,20
 336 50 336 50 303 20 c 128,-1,21
 270 -10 270 -10 198.5 -10 c 128,-1,22
 127 -10 127 -10 78.5 21.5 c 128,-1,23
 30 53 30 53 30 122 c 0,24,25
 30 271 30 271 337 271 c 1,26,-1
 337 304 l 2,27,28
 337 401 337 401 313 432 c 0,29,30
 302 446 302 446 280.5 457 c 128,-1,31
 259 468 259 468 229 468 c 0,32,33
 172 468 172 468 128.5 442 c 128,-1,34
 85 416 85 416 85 385 c 0,35,36
 85 376 85 376 94 376 c 0,37,38
 100 376 100 376 102 379.5 c 128,-1,39
 104 383 104 383 105 386.5 c 128,-1,40
 106 390 106 390 107 392.5 c 128,-1,41
 108 395 108 395 111.5 401 c 128,-1,42
 115 407 115 407 129 417 c 128,-1,43
 143 427 143 427 167 427 c 128,-1,44
 191 427 191 427 208.5 405.5 c 128,-1,45
 226 384 226 384 226 353 c 128,-1,46
 226 322 226 322 203 300.5 c 128,-1,47
 180 279 180 279 145 279 c 128,-1,48
 110 279 110 279 85.5 303.5 c 128,-1,49
 61 328 61 328 61 363 c 0,50,51
 61 421 61 421 114 454.5 c 128,-1,52
 167 488 167 488 266.5 488 c 128,-1,53
 366 488 366 488 425 462 c 128,-1,54
 484 436 484 436 505 388.5 c 128,-1,55
 526 341 526 341 526 258 c 2,56,-1
 526 88 l 2,57,58
 526 47 526 47 544 47 c 0,10,11
150 611 m 1,59,-1
 155 629 l 1,60,-1
 453 547 l 1,61,-1
 448 530 l 1,62,-1
 150 611 l 1,59,-1
EndSplineSet
EndChar

StartChar: aacute
Encoding: 225 225 163
Width: 604
GlyphClass: 2
Flags: W
LayerCount: 2
Fore
SplineSet
337 160 m 2,0,-1
 337 253 l 1,1,2
 333 253 333 253 330 253 c 0,3,4
 283 253 283 253 251 227.5 c 128,-1,5
 219 202 219 202 219 146.5 c 128,-1,6
 219 91 219 91 235 65.5 c 128,-1,7
 251 40 251 40 278 40 c 128,-1,8
 305 40 305 40 321 78 c 128,-1,9
 337 116 337 116 337 160 c 2,0,-1
544 47 m 0,10,11
 582 47 582 47 593 147 c 1,12,-1
 611 145 l 1,13,14
 592 -10 592 -10 472 -10 c 0,15,16
 422 -10 422 -10 391 23.5 c 128,-1,17
 360 57 360 57 356 104 c 1,18,-1
 350 104 l 1,19,20
 336 50 336 50 303 20 c 128,-1,21
 270 -10 270 -10 198.5 -10 c 128,-1,22
 127 -10 127 -10 78.5 21.5 c 128,-1,23
 30 53 30 53 30 122 c 0,24,25
 30 271 30 271 337 271 c 1,26,-1
 337 304 l 2,27,28
 337 401 337 401 313 432 c 0,29,30
 302 446 302 446 280.5 457 c 128,-1,31
 259 468 259 468 229 468 c 0,32,33
 172 468 172 468 128.5 442 c 128,-1,34
 85 416 85 416 85 385 c 0,35,36
 85 376 85 376 94 376 c 0,37,38
 100 376 100 376 102 379.5 c 128,-1,39
 104 383 104 383 105 386.5 c 128,-1,40
 106 390 106 390 107 392.5 c 128,-1,41
 108 395 108 395 111.5 401 c 128,-1,42
 115 407 115 407 129 417 c 128,-1,43
 143 427 143 427 167 427 c 128,-1,44
 191 427 191 427 208.5 405.5 c 128,-1,45
 226 384 226 384 226 353 c 128,-1,46
 226 322 226 322 203 300.5 c 128,-1,47
 180 279 180 279 145 279 c 128,-1,48
 110 279 110 279 85.5 303.5 c 128,-1,49
 61 328 61 328 61 363 c 0,50,51
 61 421 61 421 114 454.5 c 128,-1,52
 167 488 167 488 266.5 488 c 128,-1,53
 366 488 366 488 425 462 c 128,-1,54
 484 436 484 436 505 388.5 c 128,-1,55
 526 341 526 341 526 258 c 2,56,-1
 526 88 l 2,57,58
 526 47 526 47 544 47 c 0,10,11
448 629 m 1,59,-1
 453 611 l 1,60,-1
 155 530 l 1,61,-1
 150 547 l 1,62,-1
 448 629 l 1,59,-1
EndSplineSet
EndChar

StartChar: acircumflex
Encoding: 226 226 164
Width: 604
GlyphClass: 2
Flags: W
LayerCount: 2
Fore
SplineSet
337 160 m 2,0,-1
 337 253 l 1,1,2
 333 253 333 253 330 253 c 0,3,4
 283 253 283 253 251 227.5 c 128,-1,5
 219 202 219 202 219 146.5 c 128,-1,6
 219 91 219 91 235 65.5 c 128,-1,7
 251 40 251 40 278 40 c 128,-1,8
 305 40 305 40 321 78 c 128,-1,9
 337 116 337 116 337 160 c 2,0,-1
544 47 m 0,10,11
 582 47 582 47 593 147 c 1,12,-1
 611 145 l 1,13,14
 592 -10 592 -10 472 -10 c 0,15,16
 422 -10 422 -10 391 23.5 c 128,-1,17
 360 57 360 57 356 104 c 1,18,-1
 350 104 l 1,19,20
 336 50 336 50 303 20 c 128,-1,21
 270 -10 270 -10 198.5 -10 c 128,-1,22
 127 -10 127 -10 78.5 21.5 c 128,-1,23
 30 53 30 53 30 122 c 0,24,25
 30 271 30 271 337 271 c 1,26,-1
 337 304 l 2,27,28
 337 401 337 401 313 432 c 0,29,30
 302 446 302 446 280.5 457 c 128,-1,31
 259 468 259 468 229 468 c 0,32,33
 172 468 172 468 128.5 442 c 128,-1,34
 85 416 85 416 85 385 c 0,35,36
 85 376 85 376 94 376 c 0,37,38
 100 376 100 376 102 379.5 c 128,-1,39
 104 383 104 383 105 386.5 c 128,-1,40
 106 390 106 390 107 392.5 c 128,-1,41
 108 395 108 395 111.5 401 c 128,-1,42
 115 407 115 407 129 417 c 128,-1,43
 143 427 143 427 167 427 c 128,-1,44
 191 427 191 427 208.5 405.5 c 128,-1,45
 226 384 226 384 226 353 c 128,-1,46
 226 322 226 322 203 300.5 c 128,-1,47
 180 279 180 279 145 279 c 128,-1,48
 110 279 110 279 85.5 303.5 c 128,-1,49
 61 328 61 328 61 363 c 0,50,51
 61 421 61 421 114 454.5 c 128,-1,52
 167 488 167 488 266.5 488 c 128,-1,53
 366 488 366 488 425 462 c 128,-1,54
 484 436 484 436 505 388.5 c 128,-1,55
 526 341 526 341 526 258 c 2,56,-1
 526 88 l 2,57,58
 526 47 526 47 544 47 c 0,10,11
302 609 m 1,59,-1
 302 629 l 1,60,-1
 487 552 l 1,61,-1
 481 535 l 1,62,-1
 302 609 l 1,59,-1
302 629 m 1,63,-1
 302 609 l 1,64,-1
 123 535 l 1,65,-1
 117 552 l 1,66,-1
 302 629 l 1,63,-1
EndSplineSet
EndChar

StartChar: atilde
Encoding: 227 227 165
Width: 604
GlyphClass: 2
Flags: W
LayerCount: 2
Fore
SplineSet
337 160 m 2,0,-1
 337 253 l 1,1,2
 333 253 333 253 330 253 c 0,3,4
 283 253 283 253 251 227.5 c 128,-1,5
 219 202 219 202 219 146.5 c 128,-1,6
 219 91 219 91 235 65.5 c 128,-1,7
 251 40 251 40 278 40 c 128,-1,8
 305 40 305 40 321 78 c 128,-1,9
 337 116 337 116 337 160 c 2,0,-1
544 47 m 0,10,11
 582 47 582 47 593 147 c 1,12,-1
 611 145 l 1,13,14
 592 -10 592 -10 472 -10 c 0,15,16
 422 -10 422 -10 391 23.5 c 128,-1,17
 360 57 360 57 356 104 c 1,18,-1
 350 104 l 1,19,20
 336 50 336 50 303 20 c 128,-1,21
 270 -10 270 -10 198.5 -10 c 128,-1,22
 127 -10 127 -10 78.5 21.5 c 128,-1,23
 30 53 30 53 30 122 c 0,24,25
 30 271 30 271 337 271 c 1,26,-1
 337 304 l 2,27,28
 337 401 337 401 313 432 c 0,29,30
 302 446 302 446 280.5 457 c 128,-1,31
 259 468 259 468 229 468 c 0,32,33
 172 468 172 468 128.5 442 c 128,-1,34
 85 416 85 416 85 385 c 0,35,36
 85 376 85 376 94 376 c 0,37,38
 100 376 100 376 102 379.5 c 128,-1,39
 104 383 104 383 105 386.5 c 128,-1,40
 106 390 106 390 107 392.5 c 128,-1,41
 108 395 108 395 111.5 401 c 128,-1,42
 115 407 115 407 129 417 c 128,-1,43
 143 427 143 427 167 427 c 128,-1,44
 191 427 191 427 208.5 405.5 c 128,-1,45
 226 384 226 384 226 353 c 128,-1,46
 226 322 226 322 203 300.5 c 128,-1,47
 180 279 180 279 145 279 c 128,-1,48
 110 279 110 279 85.5 303.5 c 128,-1,49
 61 328 61 328 61 363 c 0,50,51
 61 421 61 421 114 454.5 c 128,-1,52
 167 488 167 488 266.5 488 c 128,-1,53
 366 488 366 488 425 462 c 128,-1,54
 484 436 484 436 505 388.5 c 128,-1,55
 526 341 526 341 526 258 c 2,56,-1
 526 88 l 2,57,58
 526 47 526 47 544 47 c 0,10,11
376 554 m 0,59,60
 349 554 349 554 302 570 c 128,-1,61
 255 586 255 586 229 586 c 128,-1,62
 203 586 203 586 182.5 578 c 128,-1,63
 162 570 162 570 152 562 c 1,64,-1
 143 553 l 1,65,-1
 129 568 l 1,66,67
 169 606 169 606 226 606 c 0,68,69
 261 606 261 606 306.5 590 c 128,-1,70
 352 574 352 574 376.5 574 c 128,-1,71
 401 574 401 574 421.5 582 c 128,-1,72
 442 590 442 590 452 598 c 1,73,-1
 461 607 l 1,74,-1
 475 592 l 1,75,76
 437 554 437 554 376 554 c 0,59,60
EndSplineSet
EndChar

StartChar: adieresis
Encoding: 228 228 166
Width: 604
GlyphClass: 2
Flags: W
LayerCount: 2
Fore
SplineSet
337 160 m 2,0,-1
 337 253 l 1,1,2
 333 253 333 253 330 253 c 0,3,4
 283 253 283 253 251 227.5 c 128,-1,5
 219 202 219 202 219 146.5 c 128,-1,6
 219 91 219 91 235 65.5 c 128,-1,7
 251 40 251 40 278 40 c 128,-1,8
 305 40 305 40 321 78 c 128,-1,9
 337 116 337 116 337 160 c 2,0,-1
544 47 m 0,10,11
 582 47 582 47 593 147 c 1,12,-1
 611 145 l 1,13,14
 592 -10 592 -10 472 -10 c 0,15,16
 422 -10 422 -10 391 23.5 c 128,-1,17
 360 57 360 57 356 104 c 1,18,-1
 350 104 l 1,19,20
 336 50 336 50 303 20 c 128,-1,21
 270 -10 270 -10 198.5 -10 c 128,-1,22
 127 -10 127 -10 78.5 21.5 c 128,-1,23
 30 53 30 53 30 122 c 0,24,25
 30 271 30 271 337 271 c 1,26,-1
 337 304 l 2,27,28
 337 401 337 401 313 432 c 0,29,30
 302 446 302 446 280.5 457 c 128,-1,31
 259 468 259 468 229 468 c 0,32,33
 172 468 172 468 128.5 442 c 128,-1,34
 85 416 85 416 85 385 c 0,35,36
 85 376 85 376 94 376 c 0,37,38
 100 376 100 376 102 379.5 c 128,-1,39
 104 383 104 383 105 386.5 c 128,-1,40
 106 390 106 390 107 392.5 c 128,-1,41
 108 395 108 395 111.5 401 c 128,-1,42
 115 407 115 407 129 417 c 128,-1,43
 143 427 143 427 167 427 c 128,-1,44
 191 427 191 427 208.5 405.5 c 128,-1,45
 226 384 226 384 226 353 c 128,-1,46
 226 322 226 322 203 300.5 c 128,-1,47
 180 279 180 279 145 279 c 128,-1,48
 110 279 110 279 85.5 303.5 c 128,-1,49
 61 328 61 328 61 363 c 0,50,51
 61 421 61 421 114 454.5 c 128,-1,52
 167 488 167 488 266.5 488 c 128,-1,53
 366 488 366 488 425 462 c 128,-1,54
 484 436 484 436 505 388.5 c 128,-1,55
 526 341 526 341 526 258 c 2,56,-1
 526 88 l 2,57,58
 526 47 526 47 544 47 c 0,10,11
332 581 m 128,-1,60
 332 606 332 606 350 623.5 c 128,-1,61
 368 641 368 641 393 641 c 128,-1,62
 418 641 418 641 435.5 623.5 c 128,-1,63
 453 606 453 606 453 581 c 128,-1,64
 453 556 453 556 435.5 538 c 128,-1,65
 418 520 418 520 393 520 c 128,-1,66
 368 520 368 520 350 538 c 128,-1,59
 332 556 332 556 332 581 c 128,-1,60
152 581 m 128,-1,68
 152 606 152 606 169.5 623.5 c 128,-1,69
 187 641 187 641 212 641 c 128,-1,70
 237 641 237 641 255 623.5 c 128,-1,71
 273 606 273 606 273 581 c 128,-1,72
 273 556 273 556 255 538 c 128,-1,73
 237 520 237 520 212 520 c 128,-1,74
 187 520 187 520 169.5 538 c 128,-1,67
 152 556 152 556 152 581 c 128,-1,68
EndSplineSet
EndChar

StartChar: aring
Encoding: 229 229 167
Width: 604
GlyphClass: 2
Flags: W
LayerCount: 2
Fore
SplineSet
337 160 m 2,0,-1
 337 253 l 1,1,2
 333 253 333 253 330 253 c 0,3,4
 283 253 283 253 251 227.5 c 128,-1,5
 219 202 219 202 219 146.5 c 128,-1,6
 219 91 219 91 235 65.5 c 128,-1,7
 251 40 251 40 278 40 c 128,-1,8
 305 40 305 40 321 78 c 128,-1,9
 337 116 337 116 337 160 c 2,0,-1
544 47 m 0,10,11
 582 47 582 47 593 147 c 1,12,-1
 611 145 l 1,13,14
 592 -10 592 -10 472 -10 c 0,15,16
 422 -10 422 -10 391 23.5 c 128,-1,17
 360 57 360 57 356 104 c 1,18,-1
 350 104 l 1,19,20
 336 50 336 50 303 20 c 128,-1,21
 270 -10 270 -10 198.5 -10 c 128,-1,22
 127 -10 127 -10 78.5 21.5 c 128,-1,23
 30 53 30 53 30 122 c 0,24,25
 30 271 30 271 337 271 c 1,26,-1
 337 304 l 2,27,28
 337 401 337 401 313 432 c 0,29,30
 302 446 302 446 280.5 457 c 128,-1,31
 259 468 259 468 229 468 c 0,32,33
 172 468 172 468 128.5 442 c 128,-1,34
 85 416 85 416 85 385 c 0,35,36
 85 376 85 376 94 376 c 0,37,38
 100 376 100 376 102 379.5 c 128,-1,39
 104 383 104 383 105 386.5 c 128,-1,40
 106 390 106 390 107 392.5 c 128,-1,41
 108 395 108 395 111.5 401 c 128,-1,42
 115 407 115 407 129 417 c 128,-1,43
 143 427 143 427 167 427 c 128,-1,44
 191 427 191 427 208.5 405.5 c 128,-1,45
 226 384 226 384 226 353 c 128,-1,46
 226 322 226 322 203 300.5 c 128,-1,47
 180 279 180 279 145 279 c 128,-1,48
 110 279 110 279 85.5 303.5 c 128,-1,49
 61 328 61 328 61 363 c 0,50,51
 61 421 61 421 114 454.5 c 128,-1,52
 167 488 167 488 266.5 488 c 128,-1,53
 366 488 366 488 425 462 c 128,-1,54
 484 436 484 436 505 388.5 c 128,-1,55
 526 341 526 341 526 258 c 2,56,-1
 526 88 l 2,57,58
 526 47 526 47 544 47 c 0,10,11
249 581 m 128,-1,60
 249 564 249 564 261.5 551 c 128,-1,61
 274 538 274 538 290.5 538 c 128,-1,62
 307 538 307 538 319.5 551 c 128,-1,63
 332 564 332 564 332 581 c 128,-1,64
 332 598 332 598 319.5 610.5 c 128,-1,65
 307 623 307 623 290.5 623 c 128,-1,66
 274 623 274 623 261.5 610.5 c 128,-1,59
 249 598 249 598 249 581 c 128,-1,60
248 537.5 m 128,-1,68
 231 555 231 555 231 580.5 c 128,-1,69
 231 606 231 606 248 623.5 c 128,-1,70
 265 641 265 641 290 641 c 128,-1,71
 315 641 315 641 332.5 623.5 c 128,-1,72
 350 606 350 606 350 580.5 c 128,-1,73
 350 555 350 555 332.5 537.5 c 128,-1,74
 315 520 315 520 290 520 c 128,-1,67
 265 520 265 520 248 537.5 c 128,-1,68
EndSplineSet
EndChar

StartChar: ae
Encoding: 230 230 168
Width: 916
GlyphClass: 2
Flags: W
LayerCount: 2
Fore
SplineSet
162 454.5 m 128,-1,1
 215 488 215 488 316.5 488 c 128,-1,2
 418 488 418 488 480 455 c 1,3,4
 541 488 541 488 618.5 488 c 128,-1,5
 696 488 696 488 748.5 474 c 128,-1,6
 801 460 801 460 839 423.5 c 128,-1,7
 877 387 877 387 877 339.5 c 128,-1,8
 877 292 877 292 859.5 265 c 128,-1,9
 842 238 842 238 810 224 c 0,10,11
 751 199 751 199 657 199 c 2,12,-1
 574 199 l 1,13,-1
 574 183 l 2,14,15
 574 88 574 88 600.5 49.5 c 128,-1,16
 627 11 627 11 679.5 11 c 128,-1,17
 732 11 732 11 784.5 46.5 c 128,-1,18
 837 82 837 82 854 167 c 1,19,-1
 872 164 l 1,20,21
 836 -10 836 -10 651 -10 c 0,22,23
 536 -10 536 -10 480 55 c 1,24,25
 471 48 471 48 454 37 c 128,-1,26
 437 26 437 26 384 8 c 128,-1,27
 331 -10 331 -10 279 -10 c 0,28,29
 194 -10 194 -10 136 22.5 c 128,-1,30
 78 55 78 55 78 122 c 0,31,32
 78 271 78 271 385 271 c 1,33,-1
 385 304 l 2,34,35
 385 401 385 401 361 432 c 0,36,37
 350 446 350 446 328.5 457 c 128,-1,38
 307 468 307 468 277 468 c 0,39,40
 220 468 220 468 176.5 442 c 128,-1,41
 133 416 133 416 133 385 c 0,42,43
 133 376 133 376 142 376 c 0,44,45
 148 376 148 376 150 379.5 c 128,-1,46
 152 383 152 383 153 386.5 c 128,-1,47
 154 390 154 390 155 392.5 c 128,-1,48
 156 395 156 395 159.5 401 c 128,-1,49
 163 407 163 407 177 417 c 128,-1,50
 191 427 191 427 215 427 c 128,-1,51
 239 427 239 427 256.5 405.5 c 128,-1,52
 274 384 274 384 274 353 c 128,-1,53
 274 322 274 322 251 300.5 c 128,-1,54
 228 279 228 279 193 279 c 128,-1,55
 158 279 158 279 133.5 303.5 c 128,-1,56
 109 328 109 328 109 363 c 0,57,0
 109 421 109 421 162 454.5 c 128,-1,1
574 337 m 2,58,-1
 574 217 l 1,59,-1
 591 217 l 2,60,61
 643 217 643 217 669 248 c 128,-1,62
 695 279 695 279 695 347 c 0,63,64
 695 470 695 470 635 470 c 0,65,66
 601 470 601 470 587.5 436.5 c 128,-1,67
 574 403 574 403 574 337 c 2,58,-1
267 133 m 0,68,69
 267 13 267 13 323 13 c 0,70,71
 385 13 385 13 385 133 c 2,72,-1
 385 253 l 1,73,74
 380 253 380 253 375 253 c 0,75,76
 329 253 329 253 298 227 c 128,-1,77
 267 201 267 201 267 133 c 0,68,69
EndSplineSet
EndChar

StartChar: ccedilla
Encoding: 231 231 169
Width: 515
GlyphClass: 2
Flags: W
LayerCount: 2
Fore
SplineSet
401 57 m 128,-1,1
 437 96 437 96 448 154 c 2,2,-1
 450 164 l 1,3,-1
 468 164 l 1,4,5
 459 87 459 87 408 38.5 c 128,-1,6
 357 -10 357 -10 282 -10 c 0,7,8
 160 -10 160 -10 90 55 c 128,-1,9
 20 120 20 120 20 238.5 c 128,-1,10
 20 357 20 357 91.5 422.5 c 128,-1,11
 163 488 163 488 284 488 c 0,12,13
 369 488 369 488 414.5 446 c 128,-1,14
 460 404 460 404 460 358 c 128,-1,15
 460 312 460 312 436.5 287 c 128,-1,16
 413 262 413 262 377 262 c 128,-1,17
 341 262 341 262 318.5 284 c 128,-1,18
 296 306 296 306 296 337.5 c 128,-1,19
 296 369 296 369 314.5 389.5 c 128,-1,20
 333 410 333 410 363 410 c 0,21,22
 405 410 405 410 418 370 c 0,23,24
 422 357 422 357 429 357 c 0,25,26
 438 357 438 357 438 367 c 0,27,28
 438 370 438 370 436 378 c 0,29,30
 408 460 408 460 317 460 c 0,31,32
 290 460 290 460 271 445.5 c 128,-1,33
 252 431 252 431 242.5 412 c 128,-1,34
 233 393 233 393 228 360 c 0,35,36
 222 319 222 319 222 258 c 128,-1,37
 222 197 222 197 223.5 166 c 128,-1,38
 225 135 225 135 230 104 c 128,-1,39
 235 73 235 73 245 56 c 0,40,41
 267 18 267 18 316 18 c 128,-1,0
 365 18 365 18 401 57 c 128,-1,1
204 -70 m 1,42,43
 230 -53 230 -53 269.5 -53 c 128,-1,44
 309 -53 309 -53 339 -82.5 c 128,-1,45
 369 -112 369 -112 369 -153.5 c 128,-1,46
 369 -195 369 -195 340 -222 c 128,-1,47
 311 -249 311 -249 275 -249 c 128,-1,48
 239 -249 239 -249 217 -223.5 c 128,-1,49
 195 -198 195 -198 195 -166 c 128,-1,50
 195 -134 195 -134 217.5 -114 c 128,-1,51
 240 -94 240 -94 265 -94 c 128,-1,52
 290 -94 290 -94 310 -112 c 128,-1,53
 330 -130 330 -130 331 -151 c 128,-1,54
 332 -172 332 -172 341 -172 c 128,-1,55
 350 -172 350 -172 350 -160 c 0,56,57
 350 -130 350 -130 329 -101 c 128,-1,58
 308 -72 308 -72 268 -72 c 0,59,60
 245 -72 245 -72 222.5 -83.5 c 128,-1,61
 200 -95 200 -95 189 -112 c 1,62,-1
 172 -94 l 1,63,-1
 209 4 l 1,64,-1
 229 -4 l 1,65,-1
 204 -70 l 1,42,43
EndSplineSet
EndChar

StartChar: egrave
Encoding: 232 232 170
Width: 543
GlyphClass: 2
Flags: W
LayerCount: 2
Fore
SplineSet
255.5 61 m 128,-1,1
 278 14 278 14 338.5 14 c 128,-1,2
 399 14 399 14 443.5 53 c 128,-1,3
 488 92 488 92 501 158 c 1,4,-1
 503 167 l 1,5,-1
 521 164 l 1,6,7
 507 82 507 82 452 36 c 128,-1,8
 397 -10 397 -10 309 -10 c 0,9,10
 176 -10 176 -10 103 53.5 c 128,-1,11
 30 117 30 117 30 236 c 128,-1,12
 30 355 30 355 100 421.5 c 128,-1,13
 170 488 170 488 290 488 c 0,14,15
 388 488 388 488 453.5 451.5 c 128,-1,16
 519 415 519 415 519 339 c 128,-1,17
 519 263 519 263 458 231 c 128,-1,18
 397 199 397 199 299 199 c 2,19,-1
 233 199 l 1,20,0
 233 108 233 108 255.5 61 c 128,-1,1
232 289 m 2,21,-1
 232 217 l 1,22,-1
 257 217 l 2,23,24
 302 217 302 217 319.5 247.5 c 128,-1,25
 337 278 337 278 337 337 c 0,26,27
 337 470 337 470 290 470 c 0,28,29
 259 470 259 470 245.5 434 c 128,-1,30
 232 398 232 398 232 289 c 2,21,-1
140 611 m 1,31,-1
 145 629 l 1,32,-1
 443 547 l 1,33,-1
 438 530 l 1,34,-1
 140 611 l 1,31,-1
EndSplineSet
EndChar

StartChar: eacute
Encoding: 233 233 171
Width: 551
GlyphClass: 2
Flags: W
LayerCount: 2
Fore
SplineSet
334 14 m 128,-1,1
 394 14 394 14 438.5 53 c 128,-1,2
 483 92 483 92 496 158 c 1,3,-1
 498 167 l 1,4,-1
 516 164 l 1,5,6
 502 82 502 82 447 36 c 128,-1,7
 392 -10 392 -10 304 -10 c 0,8,9
 171 -10 171 -10 98 53.5 c 128,-1,10
 25 117 25 117 25 236 c 128,-1,11
 25 355 25 355 95 421.5 c 128,-1,12
 165 488 165 488 285 488 c 0,13,14
 383 488 383 488 448.5 451.5 c 128,-1,15
 514 415 514 415 514 339 c 128,-1,16
 514 263 514 263 453 231 c 128,-1,17
 392 199 392 199 294 199 c 2,18,-1
 228 199 l 1,19,20
 228 108 228 108 251 61 c 128,-1,0
 274 14 274 14 334 14 c 128,-1,1
227 289 m 2,21,-1
 227 217 l 1,22,-1
 252 217 l 2,23,24
 297 217 297 217 314.5 247.5 c 128,-1,25
 332 278 332 278 332 337 c 0,26,27
 332 470 332 470 285 470 c 0,28,29
 254 470 254 470 240.5 434 c 128,-1,30
 227 398 227 398 227 289 c 2,21,-1
421 629 m 1,31,-1
 426 611 l 1,32,-1
 128 530 l 1,33,-1
 123 547 l 1,34,-1
 421 629 l 1,31,-1
EndSplineSet
EndChar

StartChar: ecircumflex
Encoding: 234 234 172
Width: 562
GlyphClass: 2
Flags: W
LayerCount: 2
Fore
SplineSet
102 557 m 1,0,-1
 287 634 l 1,1,-1
 473 557 l 1,2,-1
 467 540 l 1,3,-1
 287 612 l 1,4,-1
 108 540 l 1,5,-1
 102 557 l 1,0,-1
334 14 m 128,-1,7
 394 14 394 14 438.5 53 c 128,-1,8
 483 92 483 92 496 158 c 1,9,-1
 498 167 l 1,10,-1
 516 164 l 1,11,12
 502 82 502 82 447 36 c 128,-1,13
 392 -10 392 -10 304 -10 c 0,14,15
 171 -10 171 -10 98 53.5 c 128,-1,16
 25 117 25 117 25 236 c 128,-1,17
 25 355 25 355 95 421.5 c 128,-1,18
 165 488 165 488 285 488 c 0,19,20
 383 488 383 488 448.5 451.5 c 128,-1,21
 514 415 514 415 514 339 c 128,-1,22
 514 263 514 263 453 231 c 128,-1,23
 392 199 392 199 294 199 c 2,24,-1
 228 199 l 1,25,26
 228 108 228 108 251 61 c 128,-1,6
 274 14 274 14 334 14 c 128,-1,7
227 289 m 2,27,-1
 227 217 l 1,28,-1
 252 217 l 2,29,30
 297 217 297 217 314.5 247.5 c 128,-1,31
 332 278 332 278 332 337 c 0,32,33
 332 470 332 470 285 470 c 0,34,35
 254 470 254 470 240.5 434 c 128,-1,36
 227 398 227 398 227 289 c 2,27,-1
EndSplineSet
EndChar

StartChar: edieresis
Encoding: 235 235 173
Width: 546
GlyphClass: 2
Flags: W
LayerCount: 2
Fore
SplineSet
245.5 61 m 128,-1,1
 268 14 268 14 328.5 14 c 128,-1,2
 389 14 389 14 433.5 53 c 128,-1,3
 478 92 478 92 491 158 c 1,4,-1
 493 167 l 1,5,-1
 511 164 l 1,6,7
 497 82 497 82 442 36 c 128,-1,8
 387 -10 387 -10 299 -10 c 0,9,10
 166 -10 166 -10 93 53.5 c 128,-1,11
 20 117 20 117 20 236 c 128,-1,12
 20 355 20 355 90 421.5 c 128,-1,13
 160 488 160 488 280 488 c 0,14,15
 378 488 378 488 443.5 451.5 c 128,-1,16
 509 415 509 415 509 339 c 128,-1,17
 509 263 509 263 448 231 c 128,-1,18
 387 199 387 199 289 199 c 2,19,-1
 223 199 l 1,20,0
 223 108 223 108 245.5 61 c 128,-1,1
222 289 m 2,21,-1
 222 217 l 1,22,-1
 247 217 l 2,23,24
 292 217 292 217 309.5 247.5 c 128,-1,25
 327 278 327 278 327 337 c 0,26,27
 327 470 327 470 280 470 c 0,28,29
 249 470 249 470 235.5 434 c 128,-1,30
 222 398 222 398 222 289 c 2,21,-1
303 581 m 128,-1,32
 303 606 303 606 321 623.5 c 128,-1,33
 339 641 339 641 364 641 c 128,-1,34
 389 641 389 641 406.5 623.5 c 128,-1,35
 424 606 424 606 424 581 c 128,-1,36
 424 556 424 556 406.5 538 c 128,-1,37
 389 520 389 520 364 520 c 128,-1,38
 339 520 339 520 321 538 c 128,-1,31
 303 556 303 556 303 581 c 128,-1,32
123 581 m 128,-1,40
 123 606 123 606 140.5 623.5 c 128,-1,41
 158 641 158 641 183 641 c 128,-1,42
 208 641 208 641 226 623.5 c 128,-1,43
 244 606 244 606 244 581 c 128,-1,44
 244 556 244 556 226 538 c 128,-1,45
 208 520 208 520 183 520 c 128,-1,46
 158 520 158 520 140.5 538 c 128,-1,39
 123 556 123 556 123 581 c 128,-1,40
EndSplineSet
EndChar

StartChar: igrave
Encoding: 236 236 174
Width: 364
GlyphClass: 2
Flags: W
LayerCount: 2
Fore
SplineSet
90 453 m 1,0,-1
 19 453 l 1,1,-1
 19 469 l 1,2,-1
 79 469 l 2,3,4
 188 469 188 469 279 488 c 1,5,-1
 279 25 l 1,6,-1
 341 25 l 1,7,-1
 341 9 l 1,8,-1
 28 9 l 1,9,-1
 28 25 l 1,10,-1
 90 25 l 1,11,-1
 90 453 l 1,0,-1
31 611 m 1,12,-1
 36 629 l 1,13,-1
 334 547 l 1,14,-1
 329 530 l 1,15,-1
 31 611 l 1,12,-1
EndSplineSet
EndChar

StartChar: iacute
Encoding: 237 237 175
Width: 364
GlyphClass: 2
Flags: W
LayerCount: 2
Fore
SplineSet
90 453 m 1,0,-1
 19 453 l 1,1,-1
 19 469 l 1,2,-1
 79 469 l 2,3,4
 188 469 188 469 279 488 c 1,5,-1
 279 25 l 1,6,-1
 341 25 l 1,7,-1
 341 9 l 1,8,-1
 28 9 l 1,9,-1
 28 25 l 1,10,-1
 90 25 l 1,11,-1
 90 453 l 1,0,-1
335 629 m 1,12,-1
 340 611 l 1,13,-1
 42 530 l 1,14,-1
 37 547 l 1,15,-1
 335 629 l 1,12,-1
EndSplineSet
EndChar

StartChar: icircumflex
Encoding: 238 238 176
Width: 364
GlyphClass: 2
Flags: W
LayerCount: 2
Fore
SplineSet
-19 557 m 1,0,-1
 166 634 l 1,1,-1
 352 557 l 1,2,-1
 346 540 l 1,3,-1
 166 612 l 1,4,-1
 -13 540 l 1,5,-1
 -19 557 l 1,0,-1
90 453 m 1,6,-1
 19 453 l 1,7,-1
 19 469 l 1,8,-1
 79 469 l 2,9,10
 188 469 188 469 279 488 c 1,11,-1
 279 25 l 1,12,-1
 341 25 l 1,13,-1
 341 9 l 1,14,-1
 28 9 l 1,15,-1
 28 25 l 1,16,-1
 90 25 l 1,17,-1
 90 453 l 1,6,-1
EndSplineSet
EndChar

StartChar: idieresis
Encoding: 239 239 177
Width: 364
GlyphClass: 2
Flags: W
LayerCount: 2
Fore
SplineSet
90 453 m 1,0,-1
 19 453 l 1,1,-1
 19 469 l 1,2,-1
 79 469 l 2,3,4
 188 469 188 469 279 488 c 1,5,-1
 279 25 l 1,6,-1
 341 25 l 1,7,-1
 341 9 l 1,8,-1
 28 9 l 1,9,-1
 28 25 l 1,10,-1
 90 25 l 1,11,-1
 90 453 l 1,0,-1
209 581 m 128,-1,13
 209 606 209 606 227 623.5 c 128,-1,14
 245 641 245 641 270 641 c 128,-1,15
 295 641 295 641 312.5 623.5 c 128,-1,16
 330 606 330 606 330 581 c 128,-1,17
 330 556 330 556 312.5 538 c 128,-1,18
 295 520 295 520 270 520 c 128,-1,19
 245 520 245 520 227 538 c 128,-1,12
 209 556 209 556 209 581 c 128,-1,13
29 581 m 128,-1,21
 29 606 29 606 46.5 623.5 c 128,-1,22
 64 641 64 641 89 641 c 128,-1,23
 114 641 114 641 132 623.5 c 128,-1,24
 150 606 150 606 150 581 c 128,-1,25
 150 556 150 556 132 538 c 128,-1,26
 114 520 114 520 89 520 c 128,-1,27
 64 520 64 520 46.5 538 c 128,-1,20
 29 556 29 556 29 581 c 128,-1,21
EndSplineSet
EndChar

StartChar: eth
Encoding: 240 240 178
Width: 611
GlyphClass: 2
Flags: W
LayerCount: 2
Fore
SplineSet
539 291 m 0,0,1
 539 205 539 205 500 130 c 0,2,3
 456 43 456 43 375 9 c 0,4,5
 330 -10 330 -10 276 -10 c 0,6,7
 163 -10 163 -10 91.5 50 c 128,-1,8
 20 110 20 110 20 209.5 c 128,-1,9
 20 309 20 309 96 366.5 c 128,-1,10
 172 424 172 424 273 424 c 0,11,12
 325 424 325 424 352 412 c 1,13,-1
 361 407 l 1,14,-1
 368 411 l 1,15,16
 356 512 356 512 303 580 c 1,17,-1
 190 535 l 1,18,-1
 182 554 l 1,19,-1
 289 597 l 1,20,21
 215 679 215 679 83 703 c 1,22,-1
 87 719 l 1,23,24
 252 705 252 705 366 628 c 1,25,-1
 495 680 l 1,26,-1
 503 661 l 1,27,-1
 386 614 l 1,28,29
 539 498 539 498 539 291 c 0,0,1
332.5 51.5 m 128,-1,31
 346 95 346 95 346 205 c 128,-1,32
 346 315 346 315 332.5 360.5 c 128,-1,33
 319 406 319 406 284 406 c 128,-1,34
 249 406 249 406 235.5 362.5 c 128,-1,35
 222 319 222 319 222 207 c 128,-1,36
 222 95 222 95 235.5 51.5 c 128,-1,37
 249 8 249 8 284 8 c 128,-1,30
 319 8 319 8 332.5 51.5 c 128,-1,31
EndSplineSet
EndChar

StartChar: ntilde
Encoding: 241 241 179
Width: 635
GlyphClass: 2
Flags: W
LayerCount: 2
Fore
SplineSet
71 453 m 1,0,-1
 0 453 l 1,1,-1
 0 469 l 1,2,-1
 60 469 l 2,3,4
 169 469 169 469 260 488 c 1,5,-1
 260 390 l 1,6,-1
 265 390 l 1,7,8
 304 488 304 488 405 488 c 0,9,10
 491 488 491 488 526 434.5 c 128,-1,11
 561 381 561 381 561 282 c 2,12,-1
 561 25 l 1,13,-1
 623 25 l 1,14,-1
 623 9 l 1,15,-1
 314 9 l 1,16,-1
 314 25 l 1,17,-1
 376 25 l 1,18,-1
 376 240 l 2,19,20
 376 342 376 342 367 388 c 128,-1,21
 358 434 358 434 327 434 c 0,22,23
 292 434 292 434 274 359.5 c 128,-1,24
 256 285 256 285 256 195 c 2,25,-1
 256 9 l 1,26,-1
 9 9 l 1,27,-1
 9 25 l 1,28,-1
 71 25 l 1,29,-1
 71 453 l 1,0,-1
379 554 m 0,30,31
 352 554 352 554 305 570 c 128,-1,32
 258 586 258 586 232 586 c 128,-1,33
 206 586 206 586 185.5 578 c 128,-1,34
 165 570 165 570 156 562 c 2,35,-1
 146 553 l 1,36,-1
 132 568 l 1,37,38
 172 606 172 606 229 606 c 0,39,40
 264 606 264 606 309.5 590 c 128,-1,41
 355 574 355 574 379.5 574 c 128,-1,42
 404 574 404 574 424.5 582 c 128,-1,43
 445 590 445 590 454 598 c 2,44,-1
 464 607 l 1,45,-1
 478 592 l 1,46,47
 440 554 440 554 379 554 c 0,30,31
EndSplineSet
EndChar

StartChar: ograve
Encoding: 242 242 180
Width: 578
GlyphClass: 2
Flags: W
LayerCount: 2
Fore
SplineSet
289 -10 m 128,-1,1
 171 -10 171 -10 98 58.5 c 128,-1,2
 25 127 25 127 25 239 c 128,-1,3
 25 351 25 351 98 419.5 c 128,-1,4
 171 488 171 488 289 488 c 128,-1,5
 407 488 407 488 480 419.5 c 128,-1,6
 553 351 553 351 553 239 c 128,-1,7
 553 127 553 127 480 58.5 c 128,-1,0
 407 -10 407 -10 289 -10 c 128,-1,1
351 239 m 128,-1,9
 351 369 351 369 337.5 419.5 c 128,-1,10
 324 470 324 470 289 470 c 128,-1,11
 254 470 254 470 240.5 419.5 c 128,-1,12
 227 369 227 369 227 239 c 128,-1,13
 227 109 227 109 240.5 58.5 c 128,-1,14
 254 8 254 8 289 8 c 128,-1,15
 324 8 324 8 337.5 58.5 c 128,-1,8
 351 109 351 109 351 239 c 128,-1,9
151 611 m 1,16,-1
 156 629 l 1,17,-1
 454 547 l 1,18,-1
 449 530 l 1,19,-1
 151 611 l 1,16,-1
EndSplineSet
EndChar

